<svg width="181" height="30" viewBox="0 0 181 30" fill="none" xmlns="http://www.w3.org/2000/svg">
<g clip-path="url(#clip0)">
<rect x="3" y="7" width="16" height="15" fill="white"/>
<path d="M20.785 15.0317C20.7228 13.2523 21.1216 11.487 21.9427 9.90704C22.2603 9.23292 22.9592 8.24469 21.9427 7.08351C21.6383 6.75541 21.2296 6.54301 20.7862 6.48251C20.3427 6.42201 19.892 6.51717 19.5109 6.75175C19.749 6.37257 19.8466 5.92189 19.7866 5.47818C19.7266 5.03447 19.5129 4.62586 19.1827 4.32351C18.0356 3.2894 17.0474 3.97057 16.3592 4.32351C14.7785 5.14231 13.0135 5.5398 11.2344 5.47763C9.45391 5.53932 7.68757 5.14059 6.10621 4.31998C5.43209 3.99881 4.44386 3.29998 3.28268 4.31998C2.95248 4.62226 2.73853 5.0306 2.67793 5.47414C2.61732 5.91768 2.71391 6.36844 2.95092 6.74822C2.56925 6.51337 2.11797 6.41808 1.67394 6.47857C1.2299 6.53907 0.820563 6.7516 0.515622 7.07998C-0.514966 8.23057 0.187387 9.21881 0.515622 9.90351C1.33593 11.4836 1.73351 13.249 1.66974 15.0282C1.7338 16.8086 1.33622 18.5752 0.515622 20.1565C0.197975 20.8306 -0.504378 21.8188 0.515622 22.98C0.819819 23.3095 1.22927 23.5229 1.67366 23.5835C2.11804 23.644 2.56965 23.5479 2.95092 23.3117C2.71365 23.6921 2.61693 24.1434 2.67752 24.5876C2.73812 25.0317 2.95221 25.4407 3.28268 25.7435C4.42974 26.7741 5.41797 26.0753 6.10621 25.7435C7.68685 24.9247 9.45188 24.5272 11.2309 24.5894C13.01 24.5272 14.775 24.9247 16.3556 25.7435C17.0333 26.0647 18.0215 26.7635 19.1792 25.7435C19.5106 25.4371 19.7239 25.024 19.782 24.5764C19.84 24.1287 19.7391 23.6749 19.4968 23.2941C19.8773 23.5307 20.3285 23.627 20.7725 23.5664C21.2164 23.5059 21.6253 23.2922 21.9286 22.9623C22.9592 21.8153 22.2603 20.8447 21.9286 20.1388C21.1075 18.5576 20.7087 16.7912 20.7709 15.0106L20.785 15.0317ZM18.2297 22.0412L12.8015 17.4953C12.3714 17.0913 11.8186 16.8428 11.2309 16.7894C10.6433 16.8428 10.0904 17.0913 9.66033 17.4953L4.23562 22.0623H4.21798L8.76739 16.5882C9.17183 16.1584 9.42039 15.6054 9.47327 15.0176C9.42069 14.4308 9.17204 13.8788 8.76739 13.4506L4.20033 8.01881L4.21798 7.99763L9.66033 12.5859C10.0901 12.9903 10.6431 13.2389 11.2309 13.2917C11.8187 13.2389 12.3717 12.9903 12.8015 12.5859L18.2403 8.00116H18.265L13.6768 13.447C13.2721 13.8753 13.0235 14.4273 12.9709 15.0141C13.0238 15.6019 13.2724 16.1549 13.6768 16.5847L18.265 22.027L18.2297 22.0412Z" fill="#FF3333"/>
<path d="M75.6037 5.08933H75.7978L75.8825 8.65404H75.6637C75.3107 7.20345 73.9166 5.83051 71.1213 5.6858C67.8037 5.51286 66.3531 7.48227 66.3531 9.34227C66.3319 11.8129 68.2625 12.3352 71.1284 13.0305C72.4801 13.3623 77.4813 14.0117 77.0754 19.6305C76.7966 23.5517 73.4084 25.4187 68.6048 25.2776C66.9878 25.1701 65.3869 24.8896 63.8295 24.4411C63.3107 24.2964 63.1801 24.4693 62.9684 24.854H62.7425V21.0105H62.9648C63.0778 21.3987 63.1025 22.1223 63.8084 22.7435C64.3272 23.1952 65.5307 24.314 68.1813 24.3423C70.8319 24.3705 72.939 23.2835 73.2319 20.3611C73.3095 19.574 73.2319 17.7811 71.4672 16.9587C70.0942 16.3164 66.286 15.8999 64.4331 14.2764C63.7749 13.7686 63.2598 13.0987 62.9381 12.3322C62.6165 11.5657 62.4992 10.7288 62.5978 9.90345C63.0813 5.87992 66.4378 4.87404 69.459 4.81404C71.0887 4.80984 72.7139 4.98621 74.3048 5.33992C74.6245 5.42129 74.9604 5.41274 75.2754 5.31521C75.4009 5.27393 75.5089 5.19195 75.5825 5.08227L75.6037 5.08933ZM56.746 14.3505C61.6448 15.5682 61.9413 19.1046 61.8707 20.0964C61.6519 24.5293 57.8931 25.0376 56.379 25.0376H44.8237V24.8117C45.6672 24.6987 46.2919 24.2364 46.2919 22.7611L46.3625 7.50698C46.3837 5.84816 45.946 5.34345 45.0284 5.23404L45.0107 5.0258H53.7566C55.3625 5.0258 60.1907 4.70463 60.6037 9.15169C60.9284 12.7058 57.0284 14.1952 56.7425 14.3505H56.746ZM58.0307 20.1176C58.119 15.8187 54.9672 14.6823 51.7025 14.5023C51.6354 14.5023 51.6601 14.3329 51.7025 14.3258C52.7613 14.2835 56.9966 13.7964 56.8095 9.76933C56.6366 5.8411 53.6578 5.75286 52.5743 5.73874C51.6884 5.73874 51.4943 5.73874 51.1201 5.73874C50.4919 5.76345 50.3331 5.80933 50.3331 6.49757C50.3331 6.5858 50.1919 13.5564 50.1143 18.4764C50.0684 21.1482 50.0648 23.2023 50.0648 23.2023C50.0648 23.6893 50.0154 24.187 51.219 24.2435C52.4225 24.2999 54.0672 24.3529 55.186 24.1164C56.2131 23.8976 57.9637 23.1458 58.0095 20.1105L58.0307 20.1176ZM34.9872 5.0258C39.1519 5.0258 44.6331 7.86698 44.6154 15.0035C44.6154 21.2082 40.1154 25.0376 35.9719 25.0376H25.4648V24.8152C26.0578 24.7129 26.7178 24.3423 26.8272 23.9505C27.1801 22.4505 27.099 8.77404 26.8837 6.51169C26.8433 6.18374 26.6923 5.87939 26.4555 5.64898C26.2186 5.41857 25.9102 5.27592 25.5813 5.24463V5.0258C25.5813 5.0258 34.0519 5.0258 34.9872 5.0258ZM36.8931 23.7317C38.7531 23.0646 41.0648 19.8811 40.6837 14.8658C40.3166 10.0199 38.4707 6.21169 33.5295 5.85169C33.5295 5.85169 32.5978 5.78463 31.8143 5.7811C31.0307 5.77757 30.7943 5.74933 30.7343 6.64227C30.6248 8.31874 30.5931 21.3635 30.7025 23.2482C30.7025 23.5093 30.7448 24.127 31.8248 24.2329C33.5264 24.4536 35.2558 24.2847 36.8825 23.7387" fill="black"/>
<path d="M164.087 7.31996V10.4541H157.212C156.076 10.4541 155.479 10.9658 155.479 11.7705C155.479 12.5753 155.769 12.8647 156.538 13.2529C158.832 14.4247 164.783 14.1811 164.783 19.7047C164.783 22.5282 162.937 24.6458 159.361 24.6458H152.038V21.3847H158.8C159.351 21.3847 160.957 21.3847 160.957 19.7435C160.957 18.3741 160.014 18.0882 158.959 17.7317C156.383 16.86 151.943 16.6729 151.943 12.2364C151.943 9.48702 153.93 7.31996 157.099 7.31996H164.087ZM117.418 24.6423V7.31996H124.074C128.049 7.31996 131.349 8.56584 131.349 13.0305C131.349 17.4423 128.296 18.7976 124.261 18.7976H121.18V24.6423H117.418ZM121.17 10.4364V15.6035H124.554C126.044 15.6035 127.53 14.7882 127.53 13.0305C127.53 10.5988 125.529 10.4364 123.905 10.4364H121.17ZM132.545 15.9776C132.545 10.4294 136.378 6.87878 141.637 6.87878C146.896 6.87878 150.725 10.4294 150.725 15.9776C150.725 21.5258 146.892 25.08 141.637 25.08C136.381 25.08 132.545 21.5294 132.545 15.9776ZM136.399 15.9776C136.399 19.2106 138.471 21.5576 141.637 21.5576C144.803 21.5576 146.871 19.2106 146.871 15.9776C146.871 12.7447 144.803 10.4011 141.637 10.4011C138.471 10.4011 136.399 12.7517 136.399 15.9776ZM167.193 24.6458V7.31996H173.486C176.521 7.31996 179.839 7.95526 179.839 11.7247C179.839 13.6553 178.801 14.9788 177.016 15.5435V15.5894C179.289 15.8823 180.644 17.5694 180.644 19.8247C180.644 23.4494 177.22 24.6494 174.136 24.6494L167.193 24.6458ZM170.37 10.4364V14.2447H174.107C175.279 14.2447 176.504 13.7329 176.504 12.3423C176.504 10.8953 175.134 10.4364 173.934 10.4364H170.37ZM170.37 17.4741V21.3847H174.764C175.964 21.3847 177.309 20.947 177.309 19.4329C177.309 17.7917 175.477 17.4741 174.227 17.4741H170.37Z" fill="#FFA800"/>
<path d="M106.54 27.367C106.54 27.0004 106.648 26.6418 106.851 26.3366C107.054 26.0314 107.343 25.7934 107.682 25.6526C108.02 25.5118 108.393 25.4746 108.753 25.5457C109.112 25.6168 109.443 25.793 109.702 26.052C109.962 26.311 110.139 26.6412 110.21 27.0007C110.282 27.3602 110.246 27.733 110.106 28.0718C109.966 28.4106 109.728 28.7002 109.423 28.9039C109.118 29.1077 108.76 29.2164 108.393 29.2164C108.15 29.2169 107.909 29.1694 107.685 29.0767C107.46 28.9839 107.256 28.8478 107.083 28.676C106.911 28.5042 106.775 28.3002 106.682 28.0756C106.588 27.851 106.54 27.6102 106.54 27.367ZM96.6369 12.8964C96.6391 13.3009 96.7611 13.6956 96.9877 14.0307C97.2143 14.3657 97.5353 14.6259 97.9099 14.7785C98.2845 14.931 98.6959 14.9689 99.0921 14.8874C99.4883 14.8059 99.8514 14.6087 100.135 14.3207C100.419 14.0328 100.612 13.667 100.688 13.2697C100.764 12.8724 100.72 12.4616 100.562 12.0891C100.405 11.7166 100.14 11.3993 99.8018 11.1774C99.4637 10.9554 99.0673 10.8388 98.6628 10.8423C98.3945 10.8419 98.1287 10.8944 97.8808 10.997C97.6328 11.0996 97.4076 11.2501 97.218 11.44C97.0285 11.6299 96.8783 11.8554 96.7761 12.1035C96.674 12.3517 96.6219 12.6175 96.6228 12.8858L96.6369 12.8964ZM101.486 5.61526C101.487 6.01943 101.608 6.41432 101.833 6.74999C102.058 7.08565 102.377 7.34703 102.751 7.50105C103.125 7.65507 103.536 7.69483 103.932 7.6153C104.328 7.53576 104.692 7.34051 104.977 7.05422C105.263 6.76794 105.457 6.40348 105.535 6.00694C105.613 5.6104 105.572 5.19958 105.416 4.82644C105.261 4.4533 104.999 4.1346 104.662 3.91064C104.326 3.68667 103.931 3.5675 103.526 3.5682C103.258 3.56866 102.992 3.62198 102.745 3.7251C102.497 3.82823 102.272 3.97914 102.082 4.16923C101.893 4.35932 101.743 4.58485 101.641 4.83296C101.538 5.08107 101.486 5.3469 101.486 5.61526ZM106.329 12.8858C106.329 13.29 106.449 13.6851 106.673 14.0212C106.898 14.3572 107.217 14.6192 107.59 14.7738C107.964 14.9285 108.375 14.969 108.771 14.8901C109.167 14.8113 109.531 14.6166 109.817 14.3308C110.103 14.045 110.298 13.6809 110.377 13.2845C110.455 12.8881 110.415 12.4772 110.26 12.1038C110.106 11.7304 109.844 11.4113 109.508 11.1867C109.172 10.9622 108.776 10.8423 108.372 10.8423C108.104 10.8419 107.838 10.8944 107.59 10.9969C107.342 11.0995 107.116 11.25 106.926 11.4398C106.736 11.6297 106.586 11.8551 106.483 12.1033C106.381 12.3514 106.328 12.6174 106.329 12.8858ZM98.2111 7.31996C98.0363 6.76858 97.947 6.19368 97.9463 5.61526C97.9463 4.13348 98.535 2.71239 99.5828 1.66461C100.631 0.616833 102.052 0.0281982 103.533 0.0281982C105.015 0.0281982 106.436 0.616833 107.484 1.66461C108.532 2.71239 109.12 4.13348 109.12 5.61526C109.12 6.19368 109.031 6.76858 108.856 7.31996C109.683 7.39314 110.483 7.64991 111.199 8.07159C111.914 8.49327 112.527 9.06923 112.991 9.75752C113.456 10.4458 113.761 11.2291 113.885 12.0503C114.009 12.8715 113.948 13.7099 113.706 14.5045C113.465 15.2992 113.049 16.0299 112.49 16.6436C111.93 17.2573 111.241 17.7385 110.472 18.052C109.703 18.3656 108.874 18.5037 108.045 18.4562C107.216 18.4087 106.407 18.1769 105.679 17.7776V30.0388H103.533C102.969 30.0388 102.428 29.8166 102.026 29.4203C101.624 29.0239 101.395 28.4854 101.388 27.9211V17.7776C100.659 18.18 99.8495 18.4145 99.0185 18.4639C98.1876 18.5134 97.3561 18.3765 96.5849 18.0634C95.8136 17.7503 95.1221 17.2687 94.5608 16.654C93.9995 16.0393 93.5827 15.307 93.3408 14.5105C93.0989 13.7141 93.038 12.8736 93.1625 12.0506C93.2871 11.2276 93.594 10.4428 94.0608 9.75358C94.5276 9.06439 95.1425 8.48822 95.8606 8.06716C96.5786 7.64611 97.3817 7.39082 98.2111 7.31996ZM106.551 22.7894C106.551 22.4229 106.66 22.0647 106.863 21.7599C107.067 21.4552 107.356 21.2177 107.695 21.0775C108.033 20.9372 108.406 20.9005 108.765 20.972C109.125 21.0435 109.455 21.22 109.714 21.4792C109.973 21.7383 110.15 22.0685 110.221 22.4279C110.293 22.7873 110.256 23.1599 110.116 23.4985C109.976 23.837 109.738 24.1264 109.433 24.33C109.129 24.5336 108.77 24.6423 108.404 24.6423C107.913 24.6423 107.441 24.4471 107.094 24.0996C106.746 23.7521 106.551 23.2808 106.551 22.7894Z" fill="#0F1F7A"/>
</g>
<defs>
<clipPath id="clip0">
<rect width="181" height="30" fill="white"/>
</clipPath>
</defs>
</svg>
