<svg width="72" height="32" viewBox="0 0 72 32" fill="none" xmlns="http://www.w3.org/2000/svg">
<path fill-rule="evenodd" clip-rule="evenodd" d="M26.2047 15.9981V15.9963C26.2047 14.4209 26.2685 13.0086 27.4371 10.528C27.7749 9.80636 28.5224 8.7549 27.4212 7.5279C26.5265 6.63602 25.5104 6.7823 24.8259 7.17682C25.2196 6.49239 25.3659 5.47196 24.4721 4.57654C23.2459 3.47898 22.1908 4.22457 21.4726 4.56413C18.989 5.73527 17.5837 5.79999 16.0028 5.79999C14.4157 5.79999 13.0085 5.73527 10.5303 4.56413C9.80861 4.22457 8.74905 3.47898 7.52635 4.57654C6.6326 5.47196 6.78333 6.49239 7.17701 7.17682C6.49074 6.78053 5.47286 6.63602 4.57733 7.5279C3.47699 8.7549 4.22799 9.80636 4.5596 10.528C5.73531 13.0086 5.80003 14.4209 5.80003 15.9981C5.80003 17.5797 5.73531 18.9956 4.5596 21.4744C4.22799 22.1907 3.47699 23.2493 4.57733 24.4754C5.47286 25.3646 6.49074 25.2174 7.17701 24.8274C6.78333 25.5135 6.6326 26.5313 7.52635 27.4179C8.74905 28.5234 9.80861 27.7761 10.5303 27.4365C13.0103 26.2662 14.4157 26.2042 16.0028 26.2042C17.5837 26.2042 18.989 26.2662 21.4717 27.4365C22.1908 27.7761 23.2459 28.5234 24.4721 27.4179C25.3659 26.5313 25.216 25.5135 24.8241 24.8274C25.5104 25.2174 26.5265 25.3699 27.4212 24.4754C28.5224 23.2493 27.7749 22.1907 27.4371 21.4744C26.2685 18.992 26.2047 17.5797 26.2047 15.9981Z" fill="#FF3333"/>
<path fill-rule="evenodd" clip-rule="evenodd" d="M23.4158 23.4401L17.6559 18.6098C17.6559 18.6098 16.8756 17.848 16.0004 17.848C15.1165 17.848 14.3362 18.6098 14.3362 18.6098L8.57802 23.4401L8.55957 23.4234L13.3907 17.6634C13.3907 17.6634 14.1508 16.8858 14.1508 16.0001C14.1508 15.1231 13.3907 14.3446 13.3907 14.3446L8.55957 8.58027L8.57802 8.56006L14.3362 13.3956C14.3362 13.3956 15.1165 14.1592 16.0004 14.1592C16.8756 14.1592 17.6559 13.3956 17.6559 13.3956L23.4158 8.56006L23.4396 8.58554L18.5988 14.3446C18.5988 14.3446 17.844 15.1231 17.844 16.0001C17.844 16.8858 18.5988 17.6634 18.5988 17.6634L23.4396 23.4216L23.4158 23.4401Z" fill="white"/>
<path fill-rule="evenodd" clip-rule="evenodd" d="M51.1976 8.65669C51.1976 9.17551 51.2771 9.67359 51.4269 10.1425C48.9478 10.3531 47 12.443 47 14.9902C47 17.6781 49.1672 19.8564 51.8397 19.8564C52.6867 19.8564 53.4848 19.6366 54.1766 19.2515V28.0823C54.1835 29.1038 55.0068 29.9309 56.035 29.937H57.8949V19.2515C58.589 19.6366 59.3863 19.8564 60.2341 19.8564C62.9066 19.8564 65.073 17.6781 65.073 14.9902C65.073 12.443 63.1252 10.3531 60.6454 10.1425C60.7952 9.67359 60.8762 9.17551 60.8762 8.65669C60.8762 5.96955 58.7098 3.79125 56.0357 3.79125C53.3648 3.79125 51.1976 5.96955 51.1976 8.65669ZM60.2555 22.007C59.3695 22.007 58.6517 22.7296 58.6517 23.6196C58.6517 24.5105 59.3695 25.233 60.2555 25.233C61.1407 25.233 61.8601 24.5105 61.8601 23.6196C61.8601 22.7296 61.1407 22.007 60.2555 22.007ZM58.4652 14.9902C58.4652 15.9733 59.2579 16.7696 60.2341 16.7696C61.2103 16.7696 62.0038 15.9733 62.0038 14.9902C62.0038 14.0087 61.2103 13.2116 60.2341 13.2116C59.2579 13.2116 58.4652 14.0087 58.4652 14.9902ZM56.0357 10.4361C55.0595 10.4361 54.2683 9.63976 54.2683 8.65669C54.2683 7.67514 55.0595 6.87807 56.0357 6.87807C57.0135 6.87807 57.8054 7.67514 57.8054 8.65669C57.8054 9.63976 57.0135 10.4361 56.0357 10.4361ZM50.0708 14.9902C50.0708 15.9733 50.8627 16.7696 51.8397 16.7696C52.8159 16.7696 53.6071 15.9733 53.6071 14.9902C53.6071 14.0087 52.8159 13.2116 51.8397 13.2116C50.8627 13.2116 50.0708 14.0087 50.0708 14.9902ZM60.2555 25.9932C59.3695 25.9932 58.6517 26.7149 58.6517 27.6058C58.6517 28.4966 59.3695 29.2176 60.2555 29.2176C61.1407 29.2176 61.8601 28.4966 61.8601 27.6058C61.8601 26.7149 61.1407 25.9932 60.2555 25.9932Z" fill="#012081"/>
</svg>
