<svg width="96" height="96" viewBox="0 0 96 96" fill="none" xmlns="http://www.w3.org/2000/svg">
<path d="M95.3295 43.7661C95.8119 44.3434 96.0936 45.0211 95.7938 45.8145C95.1956 47.407 93.6213 46.3583 92.7567 45.6486C91.6063 44.7017 73.9819 30.8968 66.1982 25.0568C62.726 22.4506 52.4141 14.3991 50.5204 13.2612C48.2266 11.8794 46.7555 11.6549 44.516 13.2361C37.4336 18.2352 30.7696 23.9078 23.9828 29.3364L12.3811 38.6164L6.58017 43.2571C5.45347 44.1579 3.25443 46.654 1.72612 46.7251C0.511562 46.7795 -0.159165 45.2595 0.37909 44.2834C0.623117 43.8414 1.01775 43.5053 1.40819 43.1846C2.94208 41.9296 4.58333 40.8503 6.1228 39.619L12.137 34.8082L23.9828 25.3329C30.7696 19.9044 37.4336 14.2332 44.516 9.23271C46.7541 7.65141 48.2266 7.87591 50.5204 9.25781C52.4141 10.3971 62.726 18.4472 66.1982 21.0534C70.9783 24.6413 75.7626 28.2236 80.5163 31.845C83.492 34.1123 86.4162 36.4466 89.3278 38.7921C90.7799 39.9634 92.2305 41.1366 93.6798 42.3117C94.1832 42.7244 94.854 43.1985 95.3295 43.7661Z" fill="#FF3333"/>
<path d="M20.0603 28.8707L12.8092 34.6535L9.18364 37.5442L7.37087 38.9902C6.76568 39.4699 6.16886 39.9663 5.54554 40.4307C4.30588 41.3691 3.03555 42.2434 1.83493 43.1986C1.53772 43.4262 1.25459 43.6716 0.98711 43.9335C0.865449 44.0582 0.757033 44.1951 0.663599 44.3421C0.622961 44.4114 0.586636 44.4831 0.554833 44.5568C0.540469 44.5937 0.528361 44.6314 0.518577 44.6698C0.504881 44.7072 0.495524 44.746 0.490688 44.7855C0.460224 44.9456 0.456924 45.1096 0.480927 45.2708C0.504709 45.4337 0.551666 45.5924 0.620372 45.7421C0.753194 46.0348 0.993269 46.2654 1.2911 46.3863C1.56999 46.5035 1.90326 46.4588 2.23374 46.3375C2.57476 46.2028 2.89866 46.0282 3.19869 45.8174C3.81781 45.3759 4.40537 44.8918 4.95709 44.3686L5.8077 43.5863C5.94714 43.4552 6.09774 43.3241 6.24973 43.1959C6.40173 43.0676 6.55512 42.9476 6.70572 42.8263L8.51849 41.3803L19.0842 32.9314C22.1924 30.452 25.3048 27.9839 28.3879 25.4781C31.471 22.9723 34.5625 20.4706 37.7084 18.0359C39.2813 16.82 40.8714 15.6249 42.4787 14.4508C42.8803 14.158 43.2843 13.8675 43.6905 13.5793C44.0949 13.2934 44.4937 12.9964 44.9316 12.7287C45.3669 12.4526 45.8385 12.2386 46.333 12.0928C46.8381 11.947 47.3681 11.9081 47.8892 11.9785C48.3996 12.0569 48.896 12.2086 49.3631 12.4289C49.8215 12.6414 50.2662 12.8822 50.6948 13.1498C50.9081 13.2892 51.1215 13.4287 51.3223 13.5681C51.5231 13.7076 51.7337 13.854 51.9331 14.0004C52.3374 14.2914 52.739 14.5856 53.1379 14.8831C54.7359 16.0684 56.3144 17.2746 57.8929 18.4822C60.6943 20.624 63.4888 22.7938 66.3028 24.9203C69.1168 27.0468 71.9196 29.1873 74.6931 31.3222C78.2555 34.0646 81.815 36.8209 85.3718 39.5912C87.1483 40.9764 88.9206 42.3657 90.6888 43.7592L92.0135 44.8064L92.6731 45.3349C92.8962 45.5134 93.104 45.6891 93.3271 45.8467C93.5472 46.0056 93.7804 46.1456 94.0243 46.265C94.2512 46.3811 94.4993 46.4499 94.7536 46.4672C94.8683 46.4727 94.9828 46.4525 95.0887 46.4082C95.1946 46.3638 95.2892 46.2963 95.3657 46.2106C95.5261 46.0154 95.6384 45.7851 95.6934 45.5385C95.7624 45.2743 95.7624 44.9968 95.6934 44.7325C95.6413 44.5476 95.5668 44.3696 95.4717 44.2026C95.3197 43.9377 95.2361 43.8233 95.2709 43.822C95.3058 43.8206 95.4452 43.9335 95.6377 44.1971C95.7574 44.3593 95.8514 44.5389 95.9165 44.7297C95.9556 44.8522 95.9818 44.9784 95.9946 45.1062C96.0055 45.2533 95.9999 45.4011 95.9779 45.5469C95.9481 45.7084 95.9013 45.8664 95.8385 46.0182C95.7694 46.1925 95.6677 46.352 95.5387 46.4881C95.3875 46.643 95.1931 46.7484 94.9809 46.7907C94.7596 46.8314 94.532 46.8228 94.3143 46.7656C93.8696 46.6397 93.4498 46.4383 93.0733 46.1702C92.8753 46.0391 92.6773 45.8913 92.4876 45.7393C92.298 45.5873 92.0958 45.4437 91.895 45.2903C90.2705 44.0646 88.3726 42.6172 86.3312 41.0219C82.714 38.1949 79.0884 35.3768 75.4545 32.5674L69.9981 28.3632L67.2594 26.2715L64.5109 24.1868C60.8575 21.3896 57.2278 18.5588 53.5464 15.7909C52.6247 15.102 51.7016 14.4062 50.7575 13.7634C50.2915 13.4492 49.8031 13.1695 49.2962 12.9267C48.8078 12.6788 48.2813 12.5148 47.7386 12.4414C47.2051 12.3845 46.6657 12.4523 46.1629 12.6394C45.6453 12.841 45.1552 13.1071 44.7043 13.4315L43.3042 14.4299L41.9098 15.4478C37.4476 18.7178 33.0704 22.2806 28.6626 25.8629C26.4612 27.6562 24.245 29.4411 22.0139 31.2176L15.3568 36.5388L8.05693 42.3662L7.14497 43.0941L6.69038 43.458C6.55093 43.5765 6.40033 43.7034 6.2581 43.8331C5.68638 44.3518 5.12442 44.8971 4.52481 45.4074C4.225 45.6626 3.91544 45.9094 3.59053 46.1395C3.26274 46.3783 2.90968 46.5803 2.53773 46.7419C2.34289 46.8261 2.13812 46.8852 1.92836 46.9176C1.87397 46.9246 1.81959 46.9288 1.76381 46.9343C1.70804 46.9399 1.65226 46.9343 1.59648 46.9343C1.48399 46.9288 1.37235 46.912 1.26321 46.8841C1.04722 46.8192 0.846904 46.7105 0.674755 46.5648C0.508115 46.4213 0.368759 46.2489 0.263394 46.0559C0.234916 46.0115 0.210195 45.9649 0.189489 45.9164C0.168572 45.8676 0.144867 45.8188 0.126739 45.7672C0.0904789 45.6658 0.0615856 45.5618 0.0402837 45.4562C-0.0037327 45.2429 -0.0117455 45.0238 0.0165779 44.8078C0.0451107 44.5881 0.114643 44.3757 0.221561 44.1817C0.326568 43.9994 0.451942 43.8296 0.595272 43.6755C0.867206 43.386 1.15988 43.1166 1.47098 42.8695C1.7759 42.6241 2.085 42.3838 2.39829 42.1486C3.65328 41.2074 4.9292 40.3289 6.13539 39.3597L13.4367 33.5324C19.4328 28.7452 25.4373 23.986 31.3734 19.1431C33.631 17.3192 35.8998 15.5008 38.2062 13.7257C39.357 12.8361 40.5191 11.9594 41.6923 11.0958C42.2793 10.6677 42.8636 10.2354 43.4562 9.8143L44.3445 9.18122C44.4909 9.07524 44.6485 8.97484 44.8005 8.87165C44.9525 8.76847 45.117 8.68062 45.2774 8.59277L45.5256 8.46726L45.6511 8.40451L45.7808 8.35153L46.0401 8.24555L46.3079 8.15909C46.6697 8.05061 47.0457 7.99702 47.4234 8.00013C48.1725 8.03322 48.9049 8.2318 49.5681 8.58161C49.9014 8.73918 50.2193 8.92185 50.5344 9.10731C50.6906 9.20074 50.8426 9.30533 50.9988 9.40294C51.155 9.50055 51.2972 9.61071 51.4478 9.7139C52.0432 10.1322 52.6261 10.5617 53.209 10.9926C55.5349 12.7203 57.8274 14.4787 60.1156 16.2287L65.4299 20.288L70.7455 24.2761L81.3516 32.2327C82.9036 33.4166 84.4096 34.588 85.9533 35.8095C88.8091 38.0769 90.6651 39.5996 91.9633 40.6775C92.6117 41.2171 93.1179 41.6536 93.5335 42.0106C93.949 42.3676 94.2795 42.659 94.5626 42.9365C94.8164 43.1728 95.0471 43.4329 95.2514 43.7132C95.3448 43.8624 95.2932 43.8331 95.1022 43.6574C94.7591 43.3506 94.3998 43.0624 94.0257 42.7943C92.9631 42.0008 91.3386 40.711 89.2525 39.0474C86.1569 36.5806 83.0152 34.0929 79.7703 31.6568L69.9548 24.297L64.9934 20.5654L60.0376 16.7712C58.3819 15.5041 56.7216 14.2389 55.0566 12.9755C54.2199 12.3466 53.3833 11.7205 52.5466 11.0986C52.1283 10.789 51.7099 10.4836 51.2791 10.1824C51.0671 10.043 50.8538 9.87983 50.6418 9.74457L50.3225 9.53959L49.9976 9.34576C49.6718 9.15847 49.3352 8.99084 48.9894 8.84377C48.8207 8.76707 48.6464 8.71408 48.4734 8.65273C48.3012 8.60118 48.1262 8.55974 47.9491 8.52862C47.6013 8.46662 47.2456 8.46238 46.8963 8.51607C46.5431 8.5783 46.1992 8.68514 45.8728 8.834C45.537 8.99436 45.2144 9.18086 44.9079 9.39178C44.7531 9.49357 44.5941 9.60652 44.4365 9.72087L43.9624 10.0597C43.3266 10.5073 42.7074 10.9717 42.073 11.4291C39.5713 13.2767 37.1115 15.1941 34.674 17.1365C32.2366 19.079 29.82 21.0549 27.3923 23.0197C24.9645 24.9844 22.5215 26.9241 20.0868 28.8763L20.0603 28.8707Z" fill="#FF3333"/>
<path d="M31.2574 62.064C32.6072 61.1702 36.99 56.4862 38.6075 56.4486C40.2251 56.4109 41.7757 55.8295 43.2817 55.2382C46.6284 53.9246 50.3836 51.9906 51.0655 48.457C51.4489 46.4727 50.7364 44.5038 50.2177 42.5237C50.1075 42.1054 50.0057 41.6745 49.9248 41.2492C49.367 38.3097 49.8007 32.8672 52.637 31.0154C54.8681 29.5623 59.1909 30.947 61.422 31.7321C64.6473 32.87 68.7135 35.4971 69.5697 39.0195C70.0048 40.8043 69.7719 42.6771 69.9016 44.5094C70.041 46.509 70.6672 49.5294 71.8929 51.1706C73.0335 52.6975 75.3622 53.0127 76.2812 54.7753C76.6605 55.5018 76.5712 56.4737 76.0023 57.058C75.6941 57.3717 75.2828 57.5572 74.8867 57.7357C71.6837 59.1538 69.7984 59.8078 68.8223 63.2939C68.0149 66.179 67.9089 69.5424 71.1259 71.086C72.261 71.6313 73.5676 71.7679 74.6678 72.3801C75.768 72.9922 76.62 74.409 75.9939 75.4981C75.2646 76.7531 73.0809 76.7419 72.6654 78.135C72.2819 79.4178 73.8046 80.4344 75.1098 80.7384C76.415 81.0424 78.0131 81.3129 78.4928 82.5637C78.8567 83.5133 78.3157 84.6191 77.4929 85.2131C76.6702 85.8072 75.6314 86.0052 74.626 86.1558C69.3871 86.9046 63.8623 86.6341 58.5899 86.7247C49.3866 86.8809 40.1832 86.9548 30.9799 87.0036C24.2127 87.0413 36.5047 87.4219 29.7375 87.2546C24.5251 87.1152 14.4391 88.1791 11.943 82.5414C11.514 81.5563 11.2899 80.4943 11.2841 79.4199C11.2784 78.3455 11.4911 77.2811 11.9095 76.2915C14.1853 70.9926 20.5899 73.1261 25.186 71.7122" fill="#CCCCCC"/>
<path d="M48.8382 84.5132C49.0655 84.8158 49.4936 84.8604 49.8715 84.8758C52.3494 84.9789 54.805 85.0319 57.2076 84.4072C59.4611 83.8354 61.6184 82.9361 63.6109 81.7383C72.1435 76.5412 66.3454 63.3414 62.2625 57.2407C61.1818 55.6273 59.7525 54.1478 58.2102 52.8845C56.0391 51.0996 52.6618 49.4988 49.8268 49.2743C46.7939 49.0344 43.7778 50.15 41.0419 51.3352C37.797 52.7436 35.0304 55.1002 32.7672 57.8222" fill="white"/>
<path d="M59.4527 53.3475C60.1995 54.0293 60.8984 54.7617 61.5444 55.5396C61.8651 55.93 62.1719 56.3344 62.4591 56.7542C62.7464 57.1739 63.0169 57.5908 63.2735 58.0203C64.3143 59.7259 65.23 61.5048 66.0135 63.3429C66.599 64.6799 67.0943 66.0546 67.4958 67.4579C67.8492 68.7006 68.1006 69.97 68.2474 71.2536C68.3177 71.8982 68.3531 72.5462 68.3534 73.1946C68.3534 73.5195 68.3311 73.8444 68.32 74.1707C68.2837 74.4956 68.26 74.8205 68.2098 75.1468C68.0254 76.449 67.5912 77.7033 66.9311 78.8407C66.2464 79.9674 65.3207 80.9285 64.2203 81.6547C63.7452 81.9771 63.2521 82.2722 62.7436 82.5388C62.2397 82.8093 61.7284 83.0608 61.2097 83.2932C60.1712 83.7573 59.103 84.1518 58.0122 84.4743C57.3127 84.6884 56.6007 84.8593 55.8801 84.986C55.1582 85.1049 54.43 85.1821 53.6992 85.2175C52.9713 85.2565 52.2434 85.2565 51.5197 85.2356C51.1572 85.2273 50.796 85.2105 50.4362 85.191L49.8966 85.1589C49.7004 85.1518 49.5053 85.1266 49.3137 85.0836C49.1119 85.0429 48.9286 84.9382 48.7908 84.7852C48.7057 84.6765 48.7057 84.6067 48.7378 84.5928C48.7699 84.5789 48.8452 84.6067 48.9539 84.6388C49.0945 84.6778 49.2405 84.6938 49.3862 84.6862C49.5675 84.6862 49.7753 84.6472 50.0444 84.6137C50.3135 84.5802 50.6022 84.5524 50.9313 84.5273C51.5811 84.4771 52.3355 84.4478 53.1484 84.4241C53.8666 84.4048 54.5833 84.3494 55.2959 84.2581C56.0018 84.1667 56.7007 84.0269 57.3875 83.8398C58.7757 83.4639 60.1288 82.9684 61.4314 82.3589C62.0822 82.054 62.718 81.7175 63.339 81.3493L63.7797 81.0607C63.9288 80.9684 64.0727 80.8679 64.2105 80.7595C65.0514 80.1262 65.7673 79.3423 66.3217 78.4475L66.5797 77.9887C66.6247 77.9126 66.6643 77.8334 66.6982 77.7517L66.807 77.5104C66.9513 77.1871 67.0779 76.8561 67.1863 76.519C67.433 75.6894 67.5827 74.834 67.6325 73.9699C67.6409 73.751 67.6492 73.5321 67.659 73.3118C67.6687 73.0914 67.6492 72.8697 67.645 72.6494C67.6409 72.4291 67.6186 72.206 67.606 71.9843L67.5809 71.6524C67.5711 71.5408 67.5544 71.4307 67.5419 71.3205C67.4379 70.4307 67.2767 69.5485 67.0594 68.6794C66.8516 67.8051 66.5867 66.9447 66.298 66.0969C65.9829 65.1626 65.6217 64.2437 65.2243 63.3401C64.8269 62.4365 64.4016 61.5427 63.9414 60.6684C63.4812 59.794 62.989 58.9351 62.4647 58.097C62.1998 57.6787 61.9362 57.2603 61.6489 56.8699C61.3617 56.4794 61.0563 56.089 60.737 55.7167C59.9435 54.8003 59.077 53.9497 58.1461 53.1732C57.6816 52.7859 57.1955 52.4251 56.6903 52.0925C56.1855 51.7607 55.6598 51.4595 55.1243 51.1792C54.3114 50.7562 53.4671 50.3963 52.599 50.1027C51.7356 49.8064 50.8418 49.6076 49.9342 49.51C49.0273 49.4275 48.1137 49.456 47.2137 49.5951C46.3127 49.7318 45.4247 49.9431 44.5587 50.2268C43.8838 50.4415 43.22 50.6883 42.566 50.9561C41.912 51.2238 41.2608 51.5041 40.6361 51.8067C40.0119 52.115 39.4045 52.4562 38.8163 52.8288C38.2293 53.2039 37.6631 53.6111 37.1137 54.0406C36.6271 54.4171 36.1795 54.8201 35.7193 55.2342C34.8729 56.0123 34.3458 56.5589 33.9581 56.9271C33.7001 57.1946 33.4069 57.4259 33.0866 57.6145C32.9854 57.677 32.8796 57.7315 32.77 57.7777C32.6376 57.8139 32.7017 57.6382 32.936 57.2701C33.3063 56.7287 33.7215 56.2193 34.177 55.7474C35.9299 53.8816 38.0466 52.2055 40.5036 51.0523C40.8132 50.9059 41.1158 50.7734 41.4226 50.6423C41.7293 50.5112 42.0375 50.3815 42.3499 50.256C42.9732 50.0051 43.6049 49.7694 44.2575 49.5588C45.5655 49.1184 46.9245 48.8471 48.3013 48.7514C48.8216 48.7208 49.3434 48.725 49.8631 48.764C50.3828 48.8099 50.899 48.89 51.4082 49.0038C52.4135 49.234 53.3941 49.5609 54.3365 49.98C55.2766 50.3906 56.1818 50.877 57.0431 51.4344C57.4763 51.7129 57.8951 52.0131 58.2981 52.3338C58.7053 52.6531 59.0832 52.985 59.4611 53.3266L59.4527 53.3475Z" fill="black"/>
<path d="M51.6529 75.5637C51.2578 76.6891 50.6307 77.7191 49.8123 78.5868C45.9817 82.752 40.5532 83.3279 35.1706 83.1508C30.1841 82.9849 24.8601 81.7871 21.6627 77.6233C21.2645 77.135 20.9472 76.5861 20.7228 75.9973C20.0632 74.0967 21.0198 71.9535 22.4575 70.5507C23.8952 69.1478 25.7498 68.2652 27.4566 67.204C29.5706 65.8849 30.1437 63.6858 29.8941 61.2902C29.7231 59.8544 29.1905 58.4856 28.3462 57.3118C28.3405 57.3024 28.334 57.2936 28.3267 57.2853C27.7159 56.4194 26.9323 55.559 26.9058 54.4964C26.8851 54.3152 26.935 54.1329 27.0452 53.9875C27.1193 53.9214 27.2066 53.872 27.3014 53.8424C27.3961 53.8128 27.4961 53.8038 27.5946 53.816C28.2918 53.8369 28.9319 54.2148 29.5943 54.4504C29.9355 54.5777 30.2984 54.6364 30.6624 54.6233C31.0048 54.6188 31.3325 54.4836 31.5785 54.2454C31.8672 53.9512 31.9606 53.5566 31.962 53.1383C31.9523 52.7758 31.9094 52.415 31.8337 52.0603C31.6943 51.3101 31.6664 50.3773 32.3023 49.9547C32.7039 49.687 33.2575 49.74 33.673 49.9826C34.0885 50.2253 34.3883 50.6283 34.624 51.048C34.7258 51.2279 34.8192 51.4147 34.9154 51.5974C35.0601 51.8905 35.244 52.1626 35.4621 52.4062C35.8302 52.7938 36.427 53.0309 36.9053 52.7924C37.3613 52.5651 37.5328 52.0185 37.7936 51.5821C37.8131 51.5514 37.8312 51.5193 37.8521 51.49C38.0861 51.138 38.3975 50.844 38.7624 50.6306C39.1273 50.4172 39.5362 50.29 39.9578 50.2587C40.1511 50.235 40.3471 50.2674 40.5225 50.3522C40.9841 50.6157 40.9116 51.2878 40.8139 51.8107C40.6899 52.4743 40.6269 53.1479 40.6257 53.8229C40.6073 54.0747 40.6514 54.3271 40.754 54.5578C40.7791 54.6077 40.81 54.6545 40.846 54.6972C41.1528 55.0682 41.758 55.1323 42.2209 54.9496L42.3172 54.9092C42.6964 54.7433 42.9628 54.3974 43.2166 54.0851C43.4834 53.7435 43.8396 53.4823 44.2457 53.3307C44.5056 53.2088 44.803 53.1938 45.074 53.2889C45.6624 53.544 45.4923 54.5439 45.4128 55.0361C45.2566 55.9829 44.7491 56.9507 45.0795 57.8529C45.1902 58.1416 45.3794 58.3937 45.6258 58.5805C45.8723 58.7673 46.1661 58.8814 46.474 58.9099C46.9021 58.9419 47.3497 58.8039 47.7555 58.9461C47.9413 59.0144 48.1026 59.1364 48.2191 59.2965C48.3355 59.4566 48.4017 59.6477 48.4095 59.8455C48.4583 61.8702 44.2736 62.2244 44.7909 64.8474C45.0823 66.3269 46.7598 67.0171 47.9828 67.5554C49.6296 68.2791 50.8497 69.3305 51.5302 71.0415C52.1157 72.4847 52.1593 74.0909 51.6529 75.5637Z" fill="#FF3029"/>
<path d="M33.962 50.8706C33.8451 50.7103 33.7039 50.5691 33.5436 50.4522C33.4723 50.4005 33.3956 50.3565 33.3149 50.3212C33.2367 50.2875 33.1548 50.2632 33.0709 50.2487C32.9256 50.2123 32.7722 50.227 32.6365 50.2902C32.5007 50.3534 32.3907 50.4613 32.3249 50.5959C32.2488 50.7635 32.2066 50.9445 32.2008 51.1285C32.1903 51.3434 32.201 51.5587 32.2329 51.7714C32.2621 51.9833 32.3179 52.2385 32.3514 52.4965C32.392 52.7668 32.4056 53.0406 32.3918 53.3136C32.3783 53.6247 32.2949 53.9288 32.1478 54.2033C32.0666 54.3483 31.9636 54.48 31.8424 54.5937C31.719 54.7087 31.5777 54.8029 31.4241 54.8726C31.1416 55.0013 30.8336 55.0642 30.5233 55.0567C30.24 55.0523 29.9587 55.0101 29.6866 54.9312C29.4362 54.8534 29.1907 54.7603 28.9517 54.6523C28.7244 54.5561 28.5069 54.4613 28.2963 54.3874C28.0989 54.3135 27.8934 54.2635 27.6842 54.2382C27.6368 54.2382 27.581 54.2298 27.5447 54.2298C27.5071 54.2273 27.4694 54.2273 27.4318 54.2298C27.418 54.2317 27.4045 54.235 27.3914 54.2395H27.3746C27.3645 54.2443 27.3551 54.2504 27.3467 54.2577C27.3371 54.2686 27.33 54.2814 27.3258 54.2953C27.3157 54.3345 27.3105 54.3748 27.3105 54.4152C27.3104 54.5392 27.3216 54.6629 27.3439 54.7848C27.4001 55.0484 27.494 55.3024 27.6228 55.5392C27.8892 56.0398 28.2754 56.5153 28.6408 57.0368L28.6213 57.0103C28.6422 57.0368 28.6617 57.0661 28.6798 57.094L28.6603 57.0633C29.3179 57.9973 29.7981 59.0443 30.0771 60.152C30.1487 60.4433 30.2036 60.7385 30.2416 61.0361C30.2611 61.1853 30.2737 61.3331 30.2848 61.4795L30.303 61.7012L30.3113 61.9229C30.3381 62.5213 30.2993 63.1207 30.1956 63.7106C30.0894 64.3114 29.8924 64.8926 29.6113 65.4341C29.3231 65.9782 28.9412 66.4672 28.4832 66.8788C28.0831 67.2228 27.6496 67.5259 27.1892 67.7838C26.7541 68.0417 26.3162 68.2913 25.8826 68.5423C25.0191 69.0204 24.1919 69.561 23.4074 70.1599C23.0283 70.458 22.6747 70.7873 22.3504 71.1444C22.0308 71.5005 21.7503 71.89 21.5138 72.3059C21.0452 73.1315 20.765 74.0741 20.8347 74.9972C20.841 75.1124 20.855 75.227 20.8765 75.3402C20.8938 75.4539 20.919 75.5662 20.9518 75.6763C21.0101 75.9004 21.0919 76.1178 21.1958 76.3247C21.4126 76.7538 21.6764 77.1574 21.9823 77.5281L22.4495 78.0929C22.6126 78.2769 22.7897 78.4457 22.9584 78.6228C23.1283 78.7987 23.308 78.9649 23.4967 79.1206L23.7756 79.3618C23.8662 79.4455 23.9708 79.511 24.067 79.5863C24.265 79.7258 24.4547 79.8861 24.661 80.02L25.2816 80.416C25.7064 80.665 26.1434 80.8926 26.5909 81.0979C27.4885 81.5128 28.422 81.8451 29.3798 82.0907C30.2331 82.3149 31.0993 82.4868 31.9735 82.6053C32.4086 82.675 32.8506 82.7099 33.2898 82.7601C33.7291 82.8103 34.1725 82.834 34.6146 82.8479C36.3773 82.9423 38.1446 82.9074 39.9023 82.7433C41.0187 82.632 42.124 82.4291 43.2071 82.1368C43.4748 82.0559 43.7468 81.9862 44.0103 81.8955L44.7968 81.6166L45.5637 81.2834C45.8175 81.169 46.0588 81.031 46.307 80.9055C47.2819 80.3707 48.1852 79.7148 48.9954 78.9532C49.8173 78.2129 50.5022 77.3335 51.0188 76.3554C51.3256 75.746 51.4483 75.4713 51.518 75.5187C51.5877 75.5661 51.5738 75.9217 51.3911 76.5116C51.123 77.3277 50.708 78.0881 50.1668 78.7552C50.0008 78.9644 49.8112 79.1652 49.6188 79.3813C49.5212 79.4859 49.4277 79.6003 49.319 79.7021L48.9843 80.0102L48.6371 80.3254C48.5172 80.4286 48.3847 80.522 48.2564 80.621L47.859 80.9166C47.7928 80.9675 47.7234 81.0141 47.6512 81.0561L47.4351 81.1955C46.4146 81.8342 45.3179 82.342 44.1707 82.7071C43.0336 83.0615 41.8668 83.3121 40.6846 83.4559C39.5121 83.599 38.3322 83.6735 37.1511 83.679C35.9755 83.679 34.8056 83.6497 33.6259 83.5535C31.2791 83.3569 28.9141 82.9093 26.7039 81.9666C25.5953 81.4948 24.5521 80.8823 23.5999 80.1441L23.4186 80.0047C23.36 79.9586 23.3042 79.907 23.2471 79.8568L22.918 79.5626C22.6911 79.3634 22.4751 79.152 22.271 78.9295C22.1664 78.8194 22.0576 78.7148 21.9586 78.6004L21.6714 78.2505L21.3855 77.899C21.2907 77.7805 21.2042 77.6578 21.1164 77.5323C20.9026 77.2275 20.716 76.9047 20.5586 76.5674C20.4769 76.3937 20.4079 76.2142 20.3522 76.0305L20.2741 75.7516C20.2504 75.6568 20.2365 75.5606 20.2183 75.4727L20.1932 75.3333L20.1807 75.1938C20.1807 75.0976 20.1612 75.0014 20.1584 74.9052C20.153 74.7135 20.1595 74.5216 20.1779 74.3307C20.1945 74.1402 20.2211 73.9508 20.2574 73.7631C20.3048 73.5791 20.3411 73.3908 20.3968 73.2137C20.6286 72.4956 20.9778 71.8209 21.4301 71.2169C21.6559 70.9165 21.9024 70.6323 22.1678 70.3663C22.4329 70.1048 22.7122 69.8581 23.0044 69.6272C24.1618 68.7027 25.4531 68.0152 26.6788 67.2859C26.9842 67.1033 27.2965 66.9164 27.5657 66.7282C27.7051 66.6334 27.8306 66.5204 27.9617 66.4172L28.143 66.2429C28.2056 66.188 28.2638 66.1283 28.3173 66.0644L28.4832 65.8762C28.5376 65.812 28.5836 65.7367 28.6338 65.6768C28.7348 65.5429 28.828 65.4032 28.9127 65.2584C29.0782 64.9671 29.2137 64.6596 29.3171 64.3409C29.6838 63.2253 29.6866 61.9703 29.497 60.8004C29.2692 59.6149 28.7905 58.4919 28.0928 57.5067L28.2252 57.398C28.2122 57.4029 28.2003 57.4105 28.1904 57.4203L28.0928 57.5053L28.076 57.4816C27.7302 56.9852 27.3258 56.4971 27.0107 55.9115C26.8472 55.6122 26.7274 55.291 26.6551 54.9577C26.6228 54.782 26.6069 54.6037 26.6077 54.425C26.6093 54.3202 26.6248 54.2162 26.6537 54.1154C26.6886 53.9959 26.7501 53.8858 26.8336 53.7933C26.9215 53.7007 27.0306 53.6309 27.1515 53.5897C27.2558 53.5535 27.3648 53.5328 27.475 53.5284C27.568 53.5244 27.6612 53.5267 27.7539 53.5354C27.8432 53.5451 27.9324 53.5577 28.0203 53.5744C28.3518 53.647 28.6751 53.7531 28.9852 53.8909C29.2822 54.0164 29.5695 54.1461 29.8442 54.2326C30.1142 54.3194 30.3976 54.3567 30.6808 54.3427C30.9337 54.3389 31.1766 54.2433 31.3641 54.0736C31.5436 53.8918 31.6523 53.652 31.6709 53.3973C31.6968 53.105 31.6841 52.8106 31.6332 52.5216C31.6109 52.3682 31.5817 52.2218 31.5538 52.0572C31.5248 51.8911 31.5044 51.7235 31.4924 51.5552C31.4697 51.2893 31.4824 51.0216 31.5301 50.759C31.5787 50.4704 31.7034 50.1999 31.8912 49.9753C31.9938 49.8642 32.1133 49.7701 32.2454 49.6965C32.3791 49.6227 32.5243 49.5723 32.6749 49.5472C32.9625 49.5012 33.2571 49.531 33.5297 49.6337C34.0763 49.8387 34.45 50.2696 34.7233 50.6991C34.8628 50.9194 34.966 51.1355 35.0831 51.3517C35.1875 51.5601 35.3035 51.7626 35.4303 51.9582C35.4915 52.049 35.5586 52.1356 35.6311 52.2176C35.7006 52.2931 35.7771 52.3618 35.8598 52.4226C36.02 52.5405 36.2068 52.6171 36.4036 52.6457C36.5821 52.6718 36.7636 52.6262 36.9084 52.5188C37.0666 52.3864 37.1949 52.2219 37.2849 52.0363C37.3993 51.8341 37.4955 51.618 37.6489 51.3795C37.7938 51.16 37.9673 50.9607 38.1648 50.7869C38.5609 50.4369 39.0416 50.1965 39.5593 50.0897C39.7592 50.0485 39.9632 50.0307 40.1672 50.0367C40.2831 50.0407 40.3978 50.0618 40.5075 50.0994C40.6264 50.1432 40.7348 50.2116 40.8254 50.3002C40.9914 50.4727 41.0942 50.6964 41.1168 50.9347C41.14 51.1378 41.1372 51.3431 41.1085 51.5455C41.0848 51.7407 41.0443 51.9262 41.0164 52.1033C40.9886 52.2804 40.9607 52.4574 40.9398 52.6359C40.8979 52.9929 40.8738 53.3513 40.8672 53.711C40.8575 54.0778 40.8672 54.4083 41.0471 54.5951C41.227 54.782 41.5533 54.874 41.8587 54.835C41.9354 54.8255 42.0111 54.8087 42.0846 54.7848C42.1181 54.7722 42.1543 54.7597 42.1961 54.7415C42.238 54.7234 42.2673 54.7095 42.3021 54.6913C42.442 54.6132 42.569 54.5139 42.6786 54.3971C42.7972 54.2758 42.9087 54.1391 43.0244 53.9955C43.1489 53.8393 43.2891 53.6963 43.4428 53.5688C43.5988 53.4416 43.7697 53.3339 43.9518 53.2481C44.0426 53.2041 44.1357 53.165 44.2306 53.131C44.3296 53.0936 44.4318 53.0656 44.536 53.0473C44.7632 53.0038 44.9982 53.0325 45.2081 53.1296C45.2922 53.1727 45.3692 53.2282 45.4368 53.2941L45.4968 53.3666C45.5675 53.4599 45.6217 53.5646 45.6572 53.6762C45.7148 53.8759 45.7402 54.0835 45.7325 54.2911C45.7282 54.484 45.711 54.6765 45.6809 54.867C45.6669 54.9605 45.653 55.0497 45.6362 55.1459C45.6195 55.2421 45.6 55.3342 45.5791 55.4248C45.5358 55.6089 45.487 55.7888 45.4396 55.9659C45.3375 56.3037 45.2629 56.6493 45.2165 56.9991C45.1999 57.1639 45.2023 57.33 45.2235 57.4942C45.2463 57.6511 45.2934 57.8035 45.3629 57.946C45.5104 58.2294 45.7471 58.4563 46.0364 58.5916C46.1785 58.658 46.3308 58.7 46.4868 58.7157C46.6566 58.7259 46.8268 58.7217 46.9958 58.7032C47.3131 58.6563 47.6371 58.6894 47.9385 58.7994C48.0961 58.8715 48.2369 58.9759 48.3518 59.1059C48.4666 59.2358 48.5528 59.3884 48.605 59.5538C48.6316 59.6371 48.6485 59.7232 48.6552 59.8103C48.6601 59.8935 48.6601 59.9768 48.6552 60.0599C48.6459 60.1415 48.6324 60.2225 48.6148 60.3026C48.5934 60.3812 48.5673 60.4585 48.5367 60.5341C48.4095 60.8206 48.226 61.0786 47.997 61.2926C47.5634 61.711 47.0781 62.0094 46.6249 62.3287C46.1717 62.648 45.7311 62.9702 45.4201 63.3717C45.268 63.5634 45.1565 63.784 45.0924 64.0202C45.0333 64.2556 45.0257 64.501 45.0701 64.7397C45.1603 65.2324 45.4173 65.679 45.798 66.0045C46.2006 66.3501 46.6504 66.6365 47.1339 66.8551C47.6219 67.0949 48.1407 67.2873 48.6678 67.5523C49.602 67.9986 50.419 68.6571 51.0536 69.4752C51.5315 70.1254 51.8829 70.8595 52.0897 71.6394C52.2377 72.1761 52.31 72.7309 52.3045 73.2876C52.3006 73.6502 52.2538 74.0111 52.165 74.3627C52.1073 74.5987 52.0221 74.8271 51.9112 75.0432L51.7718 75.3068C51.7312 75.3781 51.6845 75.4457 51.6323 75.509C51.5696 75.5815 51.5445 75.5424 51.5501 75.4072C51.5556 75.2719 51.5961 75.0418 51.6351 74.7197C51.6862 74.3142 51.7054 73.9053 51.6923 73.4968C51.6841 73.2324 51.6594 72.9688 51.6184 72.7075C51.5742 72.4098 51.508 72.1157 51.4204 71.8277C51.1618 70.9155 50.6829 70.0808 50.0259 69.3971C49.6896 69.0611 49.3152 68.7653 48.9104 68.5159C48.704 68.3917 48.4921 68.2718 48.2745 68.1658C48.057 68.0599 47.8367 67.9636 47.5982 67.8605C47.1051 67.6588 46.6254 67.426 46.1619 67.1632C45.6571 66.8836 45.2118 66.508 44.8512 66.0574C44.6646 65.8092 44.5187 65.5329 44.4189 65.2389C44.3205 64.9389 44.2733 64.6245 44.2794 64.3088C44.2905 63.9825 44.3704 63.6623 44.5137 63.369C44.6521 63.091 44.8333 62.8364 45.0506 62.6146C45.4487 62.2261 45.8856 61.8794 46.3544 61.5799C46.7697 61.3185 47.1599 61.0193 47.5201 60.6861C47.6612 60.5489 47.7739 60.3855 47.852 60.205C47.8673 60.1645 47.8771 60.1241 47.8911 60.0837C47.905 60.0432 47.9064 60.0028 47.9092 59.9609C47.912 59.9191 47.9092 59.8689 47.9092 59.841C47.9067 59.8109 47.9015 59.781 47.8938 59.7518C47.8675 59.6546 47.8119 59.568 47.7345 59.5036C47.6572 59.4392 47.5619 59.4003 47.4616 59.392C47.3609 59.3834 47.2597 59.3834 47.159 59.392C46.8602 59.4267 46.5584 59.4267 46.2596 59.392C45.9173 59.3343 45.5939 59.195 45.3168 58.9861C45.0396 58.7771 44.8168 58.5046 44.6671 58.1914C44.5273 57.8821 44.4559 57.5463 44.4579 57.2069C44.4599 56.9036 44.4983 56.6016 44.5723 56.3075C44.635 56.0286 44.7117 55.7706 44.7759 55.5224C44.8093 55.3983 44.8386 55.2784 44.8637 55.1599C44.8791 55.0999 44.8874 55.0441 44.8986 54.9856C44.9097 54.927 44.9195 54.8587 44.9293 54.7987C44.9692 54.5732 44.9864 54.3443 44.9808 54.1154C44.9805 54.0053 44.9552 53.8966 44.9069 53.7975C44.8902 53.7752 44.8874 53.7682 44.8735 53.764C44.8595 53.7599 44.8735 53.764 44.8637 53.7557L44.8414 53.7487C44.8239 53.7424 44.8056 53.7387 44.787 53.7375C44.673 53.7301 44.5588 53.7497 44.4537 53.7947C44.3045 53.8521 44.1616 53.9245 44.0271 54.0109C43.9004 54.0974 43.7852 54.1996 43.684 54.3148C43.6561 54.3441 43.631 54.3762 43.6031 54.4097L43.5097 54.5254C43.4456 54.6035 43.3703 54.6858 43.3019 54.7694C43.1419 54.9542 42.9565 55.1152 42.7511 55.2477C42.6422 55.3151 42.5274 55.3725 42.4081 55.4192C42.2818 55.4682 42.151 55.5046 42.0177 55.528C41.7519 55.5732 41.4797 55.5618 41.2186 55.4945C40.9276 55.4217 40.6655 55.2622 40.467 55.0372C40.2746 54.8061 40.1582 54.5212 40.1338 54.2214C40.1217 54.1047 40.1161 53.9874 40.117 53.87V53.5605C40.1273 53.1486 40.1599 52.7375 40.2146 52.3292C40.2411 52.1242 40.2746 51.9192 40.3123 51.7184C40.3464 51.5511 40.3678 51.3814 40.3764 51.2108C40.3862 51.0916 40.37 50.9717 40.329 50.8594C40.3206 50.8353 40.3057 50.814 40.2861 50.7978C40.2664 50.7816 40.2427 50.7711 40.2174 50.7674C40.086 50.7444 39.9515 50.7444 39.82 50.7674C39.6603 50.7889 39.5035 50.8287 39.3529 50.8859C39.0482 51.0018 38.7712 51.1805 38.5399 51.4102C38.4244 51.5258 38.3215 51.6534 38.2331 51.7909C38.1955 51.8467 38.1523 51.9304 38.109 52.007L37.9696 52.2692C37.864 52.4811 37.7334 52.6796 37.5805 52.8604C37.3884 53.0839 37.134 53.2451 36.8499 53.3234C36.5704 53.3929 36.2772 53.3847 36.002 53.2997C35.7538 53.2228 35.5221 53.1003 35.3188 52.9385C35.2185 52.8597 35.1252 52.7725 35.0399 52.6778C34.962 52.5891 34.8894 52.496 34.8223 52.3989C34.6997 52.2196 34.5875 52.0333 34.4863 51.8411L34.2074 51.3252C34.1255 51.1698 34.0322 51.0207 33.9285 50.8789L33.962 50.8706Z" fill="#FF3029"/>
<path d="M39.3693 65.5948C38.9272 65.5948 38.4866 65.6102 38.0445 65.5948C37.8242 65.5948 37.6039 65.5879 37.3836 65.5781L36.724 65.5418C36.4033 65.5293 36.0812 65.5195 35.7618 65.4889C34.6371 65.3761 33.5197 65.1992 32.4152 64.959L30.944 64.6633C30.6317 64.5936 30.3179 64.5323 30.0056 64.4598C29.695 64.3803 29.3907 64.2782 29.095 64.1544C28.7297 63.9982 29.4255 63.4572 30.1074 63.6426C31.3359 63.9633 32.5714 64.245 33.8305 64.5197C34.0188 64.5588 34.2098 64.6006 34.4037 64.6243C34.5975 64.648 34.7941 64.6717 34.9907 64.6926C35.3826 64.74 35.78 64.7512 36.1718 64.7874C36.388 64.8084 36.6041 64.8167 36.8202 64.8279L37.47 64.8614L38.1199 64.8739C38.3374 64.8739 38.5549 64.8837 38.7711 64.8739L39.5729 64.86L40.3733 64.8125C40.5755 64.8028 40.7777 64.7833 40.9798 64.7637L41.585 64.7052C41.9866 64.6564 42.3882 64.5964 42.7843 64.5295C43.091 64.4681 43.3922 64.39 43.692 64.3217C43.9918 64.2534 44.2833 64.1488 44.5803 64.0665C44.7114 64.0303 44.8369 63.9856 44.968 63.9452C45.4546 63.8058 45.6233 63.8058 45.7823 63.9731C45.8209 64.0074 45.8568 64.0447 45.8897 64.0846C45.9789 64.2241 45.8116 64.3942 45.4546 64.5351C44.3542 64.953 43.2077 65.2376 42.0396 65.3829C41.8207 65.4191 41.599 65.4428 41.3773 65.4665L40.7107 65.5349L40.0428 65.5781C39.8197 65.592 39.598 65.6088 39.3748 65.613L39.3693 65.5948Z" fill="black"/>
<path d="M26.0303 65.6186L27.9714 64.3636L28.1847 64.2241L28.2321 64.1977L28.3381 64.1377L28.3688 64.121L28.3827 64.1126H28.3911H28.3841C28.3685 64.1038 28.3522 64.0963 28.3353 64.0903C28.2973 64.0746 28.2582 64.062 28.2182 64.0526L28.1694 64.0415L28.0425 64.0233C27.9031 64.0066 27.7748 63.9927 27.6395 63.9801L26.8098 63.9104C26.5602 63.8853 26.312 63.856 26.0624 63.8225C25.8049 63.7897 25.5494 63.7432 25.2968 63.6831C25.0313 63.6201 24.7739 63.5265 24.5299 63.4042C24.2657 63.2705 24.0342 63.08 23.8522 62.8464C23.8062 62.7865 23.7685 62.7168 23.7281 62.6526C23.6882 62.5802 23.6555 62.5041 23.6305 62.4253C23.5838 62.2732 23.5636 62.1143 23.5705 61.9554C23.5887 61.6581 23.6817 61.3703 23.841 61.1187C23.8768 61.0585 23.9159 61.0003 23.9582 60.9444C24 60.8863 24.0467 60.8317 24.0976 60.7813C24.1478 60.7283 24.1966 60.6739 24.2482 60.6223L24.4281 60.4829C24.6752 60.3204 24.96 60.2243 25.255 60.204C25.7344 60.1966 26.2098 60.2917 26.6494 60.4829C27.0674 60.6527 27.4712 60.8555 27.857 61.0894C28.8558 61.6612 29.7166 62.4458 30.3782 63.3875C30.5762 63.6831 30.3907 63.7556 30.0658 63.6413C29.6051 63.4542 29.1864 63.1769 28.8345 62.8255C28.4491 62.4546 28.0288 62.1217 27.5795 61.8313C27.1378 61.5377 26.6662 61.2919 26.1725 61.0978C25.7012 60.9277 25.2174 60.8594 24.8952 61.0379L24.8632 61.0518L24.8339 61.0727L24.7767 61.1145C24.7345 61.1408 24.6968 61.1738 24.6652 61.2122C24.5835 61.289 24.5122 61.3762 24.4532 61.4715C24.3349 61.6405 24.2703 61.8412 24.2677 62.0474C24.2679 62.1016 24.2754 62.1556 24.2901 62.2078C24.2984 62.2329 24.3068 62.2566 24.3165 62.2789C24.3263 62.3012 24.3472 62.3319 24.3626 62.3584C24.4311 62.4679 24.5207 62.5627 24.6261 62.6373C24.8781 62.8105 25.1628 62.9305 25.4628 62.9901C25.7927 63.0628 26.1272 63.1131 26.464 63.1407C26.807 63.1755 27.1612 63.1992 27.5098 63.2327C27.7036 63.2508 27.9003 63.2717 28.0983 63.2996L28.2461 63.3219C28.3228 63.3331 28.4037 63.3456 28.479 63.361L28.709 63.407L28.9294 63.4628C29.2083 63.5423 29.4634 63.6357 29.7256 63.7305L29.9264 63.8044L29.9766 63.8239C29.9836 63.8239 29.9975 63.8239 29.9989 63.8337L29.978 63.849L29.8971 63.9118L29.5722 64.1586C29.377 64.319 29.0897 64.4947 28.8359 64.662L28.2545 65.0413L27.2783 65.6688L26.6815 66.0564C26.4916 66.1701 26.3144 66.3038 26.153 66.4553C25.8332 66.7523 25.5881 67.1207 25.4377 67.5304C25.3839 67.6781 25.3506 67.8324 25.3387 67.9891C25.3281 68.134 25.3505 68.2795 25.4042 68.4144C25.5295 68.6959 25.7517 68.9231 26.0303 69.0545C26.3124 69.2072 26.6333 69.2734 26.9527 69.2446C27.2722 69.2158 27.5761 69.0934 27.8264 68.8927C28.0273 68.7412 28.1996 68.5552 28.3353 68.3433C28.4736 68.1213 28.593 67.8881 28.6923 67.6461L29.0228 66.8959C29.1297 66.6477 29.2334 66.3976 29.3338 66.1457C29.4216 65.924 29.4983 65.7037 29.5861 65.4791C29.9027 64.6425 30.031 64.3943 30.2834 64.2757C30.3375 64.2445 30.3945 64.2183 30.4535 64.1977C30.625 64.1642 30.6334 64.5574 30.4395 65.2017C30.2955 65.6776 30.129 66.1536 29.9403 66.6296C29.7549 67.1051 29.5332 67.5778 29.3282 68.0366C29.2139 68.2952 29.0782 68.5438 28.9224 68.7798C28.7488 69.0367 28.535 69.2641 28.2893 69.4533C28.0359 69.6499 27.7485 69.7984 27.4415 69.8912C27.2805 69.9396 27.1143 69.969 26.9465 69.979C26.8629 69.9846 26.779 69.9846 26.6955 69.979C26.6142 69.976 26.5332 69.9681 26.4528 69.9553C25.9637 69.8855 25.5082 69.6658 25.149 69.3264C24.957 69.1411 24.8072 68.9166 24.7098 68.6682C24.6102 68.4139 24.5748 68.1391 24.6066 67.8678C24.6655 67.4053 24.8322 66.963 25.0933 66.5766C25.3378 66.1978 25.6526 65.8693 26.0206 65.6088L26.0303 65.6186Z" fill="black"/>
<path d="M39.3191 76.2663C39.3191 77.2424 38.8589 77.9062 38.0641 78.1502C38.0641 78.2548 38.0753 78.3677 38.0753 78.4723C38.0753 78.7345 38.0209 78.9966 38.0209 79.15C38.0209 79.2699 38.0097 79.4875 37.3655 79.4875C37.0866 79.4875 36.8189 79.4875 36.8189 79.2476C36.8189 79.1165 36.8956 78.8111 36.8956 78.5155V78.2171C36.6607 78.1799 36.436 78.0952 36.2351 77.9681C36.0341 77.841 35.8613 77.6743 35.727 77.4781C35.5304 77.1838 35.4216 76.5396 35.4216 76.1784C35.4216 76.0697 35.4872 75.9609 35.8246 75.9609C36.1035 75.9609 36.3824 75.9721 36.4479 76.1004C36.5135 76.2286 36.6222 76.679 36.6655 76.7878C36.7422 76.9733 37.0266 77.1267 37.2553 77.1267C37.8131 77.1267 38.1185 76.9077 38.1185 76.29C38.1185 75.3934 37.1577 75.088 36.4368 74.2471C36.0003 73.734 35.6615 72.6631 35.6615 71.9212C35.6687 71.5475 35.795 71.1859 36.0219 70.8889C36.2489 70.592 36.5647 70.3752 36.9234 70.2702C36.9011 69.9439 36.8621 69.6803 36.8621 69.2285C36.8621 69.0891 37.4743 68.9762 37.6709 68.9762C38.0529 68.9762 38.0641 69.1923 38.0641 69.3122C38.0641 69.6929 38.1073 69.9299 38.1324 70.2465C38.6428 70.3553 39.0012 70.6188 39.1671 71.0915C39.2306 71.334 39.2671 71.5828 39.2759 71.8334C39.2759 71.9868 38.6093 72.1123 38.4239 72.1123C38.2384 72.1123 38.0962 72.1011 38.0962 71.9379C38.0962 71.7748 38.0529 71.3258 37.6276 71.3258C37.2776 71.3258 36.8621 71.4792 36.8621 71.9268C36.8621 72.3451 37.0922 73.1497 37.3976 73.5095C38.1185 74.3615 39.3205 74.7436 39.3205 76.2733L39.3191 76.2663Z" fill="black"/>
<g style="mix-blend-mode:multiply">
<path d="M37.8574 51.4899C37.7375 52.1592 37.5938 52.8258 37.4628 53.4854C37.347 54.0696 36.8618 56.3691 36.7586 56.945C36.6512 56.7344 36.5494 56.5266 36.449 56.3077C36.0906 55.5268 35.7853 54.7236 35.4729 53.9204C35.2247 53.2873 34.7868 52.3391 34.9249 51.5973C35.0695 51.8904 35.2534 52.1625 35.4715 52.4061C35.8396 52.7937 36.4365 53.0308 36.9148 52.7923C37.3707 52.565 37.5423 52.0184 37.803 51.5819C37.8184 51.5513 37.8365 51.5192 37.8574 51.4899Z" fill="#BC3229"/>
</g>
<g style="mix-blend-mode:multiply">
<path d="M42.3278 54.9078C41.5915 55.8774 40.8845 56.867 40.2068 57.8766C40.2668 57.3634 40.5555 55.9829 40.8567 54.6958C41.1634 55.0668 41.7686 55.1309 42.2316 54.9482L42.3278 54.9078Z" fill="#BC3229"/>
</g>
<g style="mix-blend-mode:multiply">
<path d="M46.6414 58.9156C46.5159 58.8961 46.1017 59.2391 45.9734 59.3228C45.6625 59.5264 45.3655 59.7523 45.0615 59.9656C44.5637 60.3142 44.0658 60.674 43.5374 60.9752C43.8581 60.7925 44.1844 60.1608 44.4172 59.8736C44.791 59.4162 45.1549 58.9505 45.5175 58.4791C45.5997 58.7134 45.8884 58.7887 46.1338 58.8278L46.6414 58.9156Z" fill="#BC3229"/>
</g>
<g style="mix-blend-mode:multiply">
<path d="M33.3688 59.8483C32.779 58.8304 31.3817 55.8393 30.6678 54.6234C31.0102 54.6188 31.3379 54.4836 31.5839 54.2455C31.8726 53.9512 31.966 53.5566 31.9674 53.1383C32.4931 55.764 33.3688 58.9545 33.3688 59.8483Z" fill="#BC3229"/>
</g>
<path d="M51.4111 79.7511C51.5213 79.6674 51.6245 79.5726 51.7319 79.4833C51.8392 79.3941 51.948 79.3048 52.047 79.2044C52.2492 79.0106 52.4653 78.8238 52.648 78.616C52.7875 78.4668 52.9157 78.3078 53.0468 78.1502C53.5354 77.6146 53.9746 77.0359 54.359 76.4211C54.5269 76.1459 54.6747 75.8588 54.801 75.5621C54.8763 75.3711 54.9405 75.1759 55.0213 74.9862C55.089 74.7921 55.1759 74.6053 55.2807 74.4285C55.349 74.3183 55.5247 74.395 55.66 74.5679C55.7378 74.6575 55.7915 74.7655 55.8159 74.8817C55.8403 74.9978 55.8346 75.1183 55.7994 75.2317C55.4787 76.0624 55.0262 76.836 54.4594 77.5227C54.4176 77.5743 54.3757 77.6273 54.3353 77.6803L54.2098 77.8379C54.1261 77.9439 54.0452 78.054 53.9658 78.1628C53.804 78.3817 53.6325 78.5951 53.4596 78.8028C53.0626 79.2476 52.6378 79.6667 52.1878 80.0578L51.9815 80.2377L51.7653 80.3995C51.6259 80.511 51.4864 80.6309 51.3358 80.7369C51.1113 80.8973 50.8938 81.0674 50.6595 81.2138L50.3165 81.4425L49.9679 81.6614C49.8786 81.7186 49.7908 81.7786 49.7043 81.8385L49.4394 82.0114C49.2637 82.1272 49.0908 82.2499 48.9039 82.3517C48.8244 82.3991 48.7478 82.4507 48.6641 82.4911L48.5567 82.5441C48.5072 82.5677 48.4553 82.5859 48.4019 82.5985C48.2912 82.6222 48.1756 82.6017 48.0798 82.5413C48.0165 82.5021 47.9675 82.4434 47.9404 82.374C47.9334 82.3554 47.9278 82.3363 47.9236 82.3168C47.923 82.3075 47.923 82.2982 47.9236 82.2889C47.923 82.2764 47.923 82.2638 47.9236 82.2513C47.9232 82.2266 47.928 82.2021 47.9379 82.1795C47.9478 82.1569 47.9624 82.1367 47.9808 82.1202C47.9918 82.1121 48.0044 82.1064 48.0178 82.1037C48.0312 82.1009 48.0451 82.1012 48.0584 82.1043C48.0717 82.1075 48.0841 82.1136 48.0948 82.1221C48.1055 82.1307 48.1142 82.1414 48.1203 82.1537C48.13 82.1693 48.1375 82.1862 48.1426 82.2039L48.1523 82.2304L48.1593 82.2415V82.2304C48.1546 82.2194 48.1485 82.2091 48.1412 82.1997C48.1342 82.1899 48.1342 82.1844 48.1244 82.176C48.1147 82.1676 48.1049 82.176 48.1244 82.1634C48.176 82.1565 48.275 82.0156 48.2876 81.9752C48.3001 81.9347 48.2876 81.9626 48.2876 81.9891C48.28 82.0273 48.28 82.0667 48.2876 82.1049C48.287 82.11 48.287 82.1151 48.2876 82.1202V82.1286L48.1997 81.9306L48.2276 81.9097L48.2848 81.8706L48.3977 81.7925C48.4744 81.7409 48.5511 81.6921 48.6292 81.6433C48.7868 81.5499 48.9374 81.4397 49.095 81.3449L49.3334 81.1985L49.5677 81.0451C49.7253 80.9433 49.8856 80.8471 50.0376 80.7369L50.3848 80.5013L50.7237 80.2531C50.9552 80.0913 51.1671 79.9086 51.386 79.7329L51.4111 79.7511Z" fill="black"/>
<path d="M67.378 37.6081C67.457 37.9687 67.5139 38.3338 67.5481 38.7014C67.6876 40.2283 67.5481 41.9281 68.5103 43.1231C69.227 44.0142 70.3886 44.3781 71.4526 44.8062C73.3211 45.5481 75.1437 46.6413 76.2118 48.3453C77.2799 50.0493 77.3943 52.4631 76.0598 53.9663C75.2706 54.856 74.1201 55.312 73.0924 55.9088C72.0647 56.5056 71.0565 57.4008 70.9464 58.5833C70.8069 60.0642 72.0801 61.2328 72.96 62.432C74.6235 64.6979 75.0251 67.8773 73.8245 70.4207C72.0605 74.1578 66.5009 75.9399 62.7903 74.3768C61.0626 73.6503 59.4074 72.6867 58.1133 71.3313C55.2031 68.2831 54.524 63.6312 55.3035 59.4911C55.5908 57.9572 56.0551 56.4624 56.2002 54.9131C56.3549 53.2552 55.8376 52.1243 54.5826 51.0254C52.438 49.1402 49.8861 47.6788 48.1012 45.4477C45.6805 42.4231 45.0139 38.0181 46.6594 34.5097C47.7959 32.0861 50.0423 30.2218 52.6039 29.4729C58.6223 27.7146 66.0338 31.3959 67.378 37.6081Z" fill="black"/>
<path d="M56.5826 53.3265C56.6748 53.7663 56.7067 54.2167 56.6774 54.6651C56.6691 54.7739 56.6621 54.884 56.6523 54.9914L56.6161 55.3066C56.5896 55.5157 56.5589 55.7249 56.5226 55.9313C56.3832 56.7582 56.1838 57.5586 56.0011 58.3492C55.9091 58.7439 55.8198 59.1371 55.7445 59.5289C55.6692 59.9208 55.6051 60.3126 55.5605 60.7086C55.5159 61.1046 55.4838 61.4993 55.4531 61.8953C55.4224 62.2913 55.4238 62.6901 55.4405 63.0875C55.4523 63.8831 55.5326 64.6763 55.6804 65.4581C55.8199 66.2361 56.0347 66.9988 56.3218 67.7352C56.6061 68.4696 56.9694 69.171 57.4053 69.8269C57.5127 69.9914 57.6368 70.1434 57.7525 70.3024C57.8111 70.3805 57.8655 70.4614 57.9296 70.5353L58.1235 70.757C58.3769 71.0564 58.6503 71.3383 58.942 71.6006C59.8106 72.366 60.7793 73.0096 61.8215 73.5138C62.0809 73.6532 62.3472 73.7662 62.6122 73.8861C62.8717 74.0039 63.137 74.1086 63.407 74.1999C63.9434 74.3706 64.4971 74.481 65.058 74.5289C66.0643 74.6125 67.0775 74.531 68.0575 74.2877C69.0422 74.0502 69.9833 73.6592 70.8463 73.1289C71.7053 72.608 72.4493 71.9177 73.0328 71.1C73.104 70.9982 73.1723 70.8964 73.2364 70.7877C73.3027 70.683 73.3637 70.575 73.4191 70.4641C73.4794 70.3558 73.5334 70.2441 73.5808 70.1295C73.6297 70.0137 73.6826 69.9008 73.7273 69.7837C73.9023 69.3142 74.0298 68.8283 74.108 68.3334C74.4051 66.3136 73.9051 64.2573 72.7135 62.5995C72.4123 62.1812 72.0749 61.7879 71.7513 61.3612C71.4076 60.9324 71.1208 60.4608 70.8979 59.9584C70.7874 59.6905 70.7128 59.4092 70.6762 59.1218L70.6609 58.9028C70.6539 58.8303 70.6609 58.7564 70.6609 58.6839C70.662 58.6106 70.6681 58.5375 70.679 58.465C70.6916 58.3925 70.6971 58.3186 70.7167 58.2474C70.8521 57.6871 71.1374 57.1742 71.5422 56.7638C71.7096 56.5838 71.891 56.4174 72.0846 56.2659C72.2736 56.1147 72.4715 55.975 72.6773 55.8476C73.0872 55.5882 73.5056 55.3763 73.9155 55.1574C74.3212 54.9491 74.7138 54.7163 75.091 54.4601C75.6429 54.0983 76.0886 53.5963 76.3826 53.0056C76.6767 52.4148 76.8084 51.7565 76.7644 51.0981C76.7418 50.2128 76.4911 49.3482 76.0365 48.5881C75.7418 48.1008 75.3825 47.6557 74.9683 47.2648C74.5512 46.8686 74.0952 46.5154 73.6073 46.2106C73.1159 45.902 72.6034 45.6285 72.0735 45.3921C71.545 45.148 70.9956 44.9556 70.4322 44.7283C69.8456 44.5112 69.294 44.2091 68.7951 43.8317C68.5397 43.6279 68.316 43.3873 68.1314 43.1177C67.9493 42.8495 67.8026 42.559 67.6949 42.2532C67.5059 41.6611 67.3975 41.0461 67.3728 40.4251C67.3337 39.8227 67.3268 39.2314 67.2794 38.6555C67.211 37.9402 67.1762 37.6264 67.2585 37.6292C67.3407 37.632 67.5136 37.9639 67.6768 38.5858C67.7563 38.8954 67.8274 39.276 67.8929 39.7083C67.9585 40.1406 68.0226 40.6231 68.1342 41.1209C68.1874 41.3746 68.2596 41.624 68.3503 41.8669C68.4383 42.1134 68.5573 42.3477 68.7045 42.5641C69.036 43.0265 69.4812 43.3954 69.9971 43.6351C70.5277 43.8898 71.0708 44.1174 71.6245 44.317C72.2071 44.5504 72.7752 44.8186 73.3257 45.1202C73.8859 45.4225 74.4179 45.7744 74.9153 46.1716C75.4228 46.5735 75.8785 47.0367 76.2721 47.5507C76.6786 48.0728 76.9962 48.6584 77.212 49.284C77.4264 49.9126 77.5366 50.572 77.5383 51.2362C77.535 51.9142 77.3955 52.5847 77.1283 53.2079C77.0558 53.3627 76.9791 53.5161 76.8927 53.6639C76.8035 53.8094 76.7052 53.9491 76.5984 54.0822C76.3917 54.3524 76.1523 54.5959 75.8859 54.8073C74.8428 55.644 73.645 56.0414 72.7456 56.6996C72.299 57.0038 71.924 57.4016 71.6468 57.8654C71.5259 58.0814 71.4456 58.3177 71.4097 58.5626C71.3801 58.8099 71.3938 59.0604 71.4501 59.303C71.5715 59.7995 71.8685 60.2791 72.2073 60.7574C72.5462 61.2357 72.9506 61.6945 73.3229 62.2118C74.0635 63.2635 74.5594 64.4675 74.7745 65.7356C75.0405 67.2674 74.8664 68.8433 74.2725 70.2801C74.1227 70.6429 73.9397 70.9911 73.7259 71.3203C73.5096 71.6475 73.2695 71.9584 73.0077 72.2504C72.4769 72.824 71.8708 73.3231 71.2061 73.7341C69.8784 74.5539 68.3835 75.0647 66.8317 75.229C66.6393 75.2541 66.4441 75.261 66.2503 75.2764C66.0564 75.2917 65.8612 75.2917 65.666 75.2847C65.2759 75.2796 64.8865 75.2493 64.5002 75.1941C64.1124 75.1376 63.7292 75.0523 63.354 74.9389C62.9832 74.8233 62.6203 74.6836 62.2677 74.5206C60.7436 73.8457 59.2767 72.9574 58.0719 71.754C57.4747 71.1506 56.9514 70.4785 56.5129 69.7516C56.0818 69.0242 55.7263 68.2546 55.4517 67.4549C55.1923 66.6562 55.0006 65.8371 54.8786 65.0063C54.7621 64.1749 54.709 63.3358 54.7196 62.4963C54.7306 61.6602 54.8019 60.8261 54.933 60.0003C55.0571 59.172 55.2579 58.366 55.4419 57.5669C55.6706 56.5908 55.8896 55.6036 55.9551 54.6289C55.9686 54.3895 55.964 54.1494 55.9412 53.9107C55.9206 53.6744 55.8762 53.4408 55.8087 53.2135C55.6722 52.7598 55.4481 52.3372 55.1491 51.9697C54.8381 51.5922 54.489 51.2479 54.1075 50.942C53.7254 50.6175 53.3349 50.3019 52.9361 49.9951C52.1427 49.376 51.3255 48.7764 50.5335 48.1335C49.3399 47.1644 48.1797 46.0865 47.3263 44.759C47.2245 44.5917 47.1088 44.4327 47.0181 44.2584L46.7392 43.7424C46.5733 43.3869 46.4018 43.0355 46.2707 42.6645C45.9916 41.9361 45.792 41.1796 45.6753 40.4083C45.5538 39.6356 45.515 38.8522 45.5595 38.0713C45.6079 37.291 45.7402 36.5182 45.9542 35.7662L46.1396 35.2085C46.1996 35.023 46.286 34.8473 46.3585 34.666C46.3976 34.5754 46.4338 34.4847 46.4743 34.3969L46.6068 34.1347C46.6904 33.9576 46.7936 33.7917 46.8856 33.6216C47.2867 32.9513 47.7702 32.3339 48.3247 31.7837C49.1741 30.9268 50.1708 30.2296 51.267 29.7255C51.8112 29.4726 52.3786 29.2727 52.9612 29.1287C53.5401 28.9797 54.13 28.8776 54.7252 28.8233C57.1167 28.6187 59.5181 29.0811 61.6625 30.1592C62.6078 30.6244 63.4901 31.2077 64.2883 31.8953C64.9214 32.4399 65.4886 33.0567 65.9783 33.7331C66.3097 34.1961 66.5977 34.6885 66.8387 35.2043C67.2121 35.9318 67.3835 36.746 67.3351 37.5623C67.3198 37.6599 67.2766 37.639 67.211 37.5149C67.1673 37.4287 67.1282 37.3403 67.0939 37.2499C67.0535 37.1356 66.9949 37.0003 66.9294 36.8427C66.5475 35.8795 66.0402 34.9708 65.4206 34.1403C62.9636 30.9331 58.6296 29.1106 54.4798 29.5916C53.9616 29.6534 53.4489 29.7541 52.9459 29.8928C52.4448 30.0272 51.9567 30.206 51.4873 30.4269C51.0174 30.6495 50.566 30.9092 50.1375 31.2036C49.7088 31.5013 49.3058 31.8344 48.9327 32.1993C48.1828 32.9263 47.5689 33.7815 47.1199 34.7246C46.6822 35.6776 46.4092 36.6979 46.3125 37.7422C46.2398 38.5218 46.2543 39.307 46.3558 40.0834C46.4671 40.8609 46.6611 41.6242 46.9344 42.3606C47.2039 43.0979 47.5611 43.8002 47.9984 44.4522L48.0765 44.5763L48.163 44.6949L48.3387 44.9305C48.3972 45.0086 48.453 45.0895 48.5144 45.1662L48.704 45.3921C48.9564 45.6947 49.2325 45.9819 49.5142 46.2636C50.6548 47.3792 51.9837 48.333 53.2959 49.3481C53.6236 49.6019 53.9527 49.8585 54.272 50.1262C54.4338 50.2656 54.5941 50.3953 54.7531 50.5334C54.9121 50.6714 55.078 50.8123 55.2328 50.9726C55.5571 51.2875 55.8413 51.6411 56.0792 52.0254C56.3204 52.4237 56.4942 52.859 56.5938 53.3139L56.5826 53.3265Z" fill="black"/>
<path d="M53.7469 52.0339C53.9099 51.5731 54.1416 51.1396 54.4344 50.7482C55.6531 49.1683 57.6681 49.1251 59.0723 47.8631C59.4223 48.3372 59.8825 48.7709 60.457 48.9048C61.0315 49.0386 61.7231 48.7834 61.9267 48.2298C62.1791 47.5438 61.6213 46.8438 61.0901 46.3418C60.9436 46.2023 60.7875 46.0475 60.7749 45.8481C60.7826 45.6909 60.8359 45.5392 60.9283 45.4117C61.3397 44.7145 61.6618 44.2627 61.6729 43.4469C61.7064 41.0359 60.4765 38.6974 58.6414 37.1329C56.8063 35.5683 54.4191 34.7372 52.0178 34.5239C44.5004 33.8545 44.2856 42.019 46.1737 47.5898C46.9267 49.8098 48.1259 51.9614 48.1162 54.3068C48.1162 55.2955 47.9168 56.3985 48.5345 57.1766C49.314 58.1527 50.7196 57.8864 51.5214 57.1599C52.4975 56.28 52.9019 55.2927 53.2045 54.0293C53.3462 53.3538 53.5287 52.6874 53.7511 52.0339" fill="white"/>
<path d="M44.7587 40.6929C44.8297 39.804 45.0134 38.9278 45.3054 38.0853C45.4604 37.659 45.6551 37.2481 45.8868 36.8582C46.0038 36.6613 46.1314 36.4709 46.2689 36.2879C46.3345 36.1944 46.4153 36.1108 46.4892 36.0215C46.5617 35.9319 46.6394 35.8466 46.7221 35.7663L46.9703 35.5265C47.054 35.4456 47.1502 35.3787 47.2394 35.3062C47.4202 35.162 47.6108 35.0306 47.8098 34.9129C47.906 34.8488 48.0134 34.8056 48.1152 34.7512C48.216 34.6959 48.3198 34.646 48.4261 34.602C48.637 34.5127 48.853 34.4364 49.0731 34.3733C49.9398 34.1337 50.8417 34.0478 51.7379 34.1195C53.0171 34.1955 54.2785 34.4557 55.4834 34.892C56.5484 35.2806 57.5477 35.8298 58.4466 36.5207C59.3462 37.2174 60.1128 38.0705 60.7098 39.0391C61.3088 40.0087 61.7062 41.089 61.8783 42.2156C61.9206 42.4974 61.9462 42.7814 61.955 43.0662C61.955 43.2057 61.955 43.3451 61.955 43.4957C61.9497 43.6468 61.9334 43.7974 61.9062 43.9461C61.848 44.2417 61.746 44.527 61.6036 44.7926C61.4642 45.0505 61.3247 45.2834 61.1853 45.5149C61.1458 45.5771 61.1095 45.6414 61.0765 45.7073C61.0577 45.745 61.0481 45.7865 61.0486 45.8286C61.0503 45.8552 61.0569 45.8812 61.0681 45.9053C61.0804 45.9329 61.0964 45.9587 61.1155 45.982C61.1794 46.0578 61.2483 46.129 61.3219 46.1954C61.4919 46.3581 61.6494 46.5334 61.7932 46.7197C61.9465 46.9162 62.07 47.1342 62.16 47.3667C62.2566 47.6231 62.2784 47.9016 62.2227 48.1699C62.1896 48.3075 62.1345 48.4389 62.0596 48.5589C61.9824 48.6749 61.8884 48.7788 61.7807 48.8671C61.5693 49.031 61.3207 49.1402 61.057 49.185C60.9275 49.2057 60.7962 49.2132 60.6651 49.2074C60.5338 49.1979 60.4039 49.1745 60.2775 49.1376C60.0373 49.0635 59.8111 48.9499 59.6082 48.8016C59.4613 48.6937 59.3237 48.5739 59.1968 48.4432L59.1424 48.386L59.1048 48.3442L59.0364 48.2605C58.9904 48.2912 58.9458 48.3372 58.897 48.3721L58.7645 48.4683C58.7073 48.5101 58.6474 48.5492 58.5874 48.5854C58.4675 48.6607 58.3476 48.736 58.2249 48.8002C58.1022 48.8643 57.9794 48.9313 57.8553 48.9926C57.3589 49.2366 56.8583 49.4347 56.3898 49.6619C55.9259 49.8703 55.4932 50.142 55.1041 50.4693C54.9199 50.635 54.7505 50.8165 54.5979 51.0118C54.4465 51.2123 54.3126 51.4255 54.1977 51.649C54.0318 51.9753 53.9328 52.1134 53.8644 52.0771C53.7961 52.0409 53.7696 51.8317 53.8282 51.4887C53.9178 51.0057 54.123 50.5516 54.4264 50.1653C54.5256 50.0375 54.6332 49.9163 54.7485 49.8028C54.8099 49.7456 54.8712 49.6843 54.9368 49.6271L55.1418 49.4639C55.4348 49.2458 55.7497 49.0588 56.0816 48.9062C56.5808 48.6677 57.0717 48.4753 57.5235 48.255L57.6936 48.1727L57.8553 48.0848C57.9669 48.0291 58.0673 47.9649 58.1705 47.9022C58.2223 47.8729 58.2721 47.8403 58.3197 47.8045L58.3922 47.753L58.4577 47.7083C58.4858 47.6889 58.5128 47.6679 58.5386 47.6456L59.1577 47.1338C59.3209 47.3444 59.4826 47.5759 59.6542 47.7753C59.7047 47.839 59.7597 47.8991 59.8187 47.9551C59.8564 47.9942 59.8968 48.0304 59.9372 48.0667C60.0864 48.2003 60.2589 48.3053 60.4462 48.3763C60.4896 48.3921 60.5338 48.4056 60.5787 48.4167C60.6188 48.425 60.6593 48.431 60.7 48.4348C60.7854 48.4408 60.8711 48.4357 60.9552 48.4195C61.1111 48.3944 61.255 48.3207 61.3665 48.2089C61.4105 48.1625 61.4442 48.1074 61.4655 48.0472C61.488 47.9827 61.498 47.9146 61.4948 47.8464C61.4756 47.6665 61.4124 47.4941 61.3108 47.3444C61.1878 47.1523 61.0443 46.9741 60.8827 46.8131C60.8422 46.7685 60.799 46.728 60.753 46.6834C60.707 46.6388 60.647 46.5788 60.587 46.5105C60.5578 46.477 60.5271 46.438 60.4978 46.3976C60.4621 46.3476 60.4304 46.2949 60.403 46.24C60.346 46.127 60.3123 46.0037 60.304 45.8774C60.299 45.7631 60.3146 45.6488 60.35 45.54C60.3778 45.4509 60.4157 45.3653 60.4629 45.2848C60.5006 45.2179 60.5327 45.1663 60.5633 45.1161L60.6568 44.9627C60.7823 44.7605 60.8994 44.5681 60.9928 44.3812C61.1789 44.0167 61.2618 43.6083 61.2327 43.2001C61.2212 42.2944 61.041 41.3987 60.7014 40.559C60.4234 39.8759 60.0548 39.2334 59.6054 38.6486C59.1438 38.0572 58.6082 37.5276 58.0115 37.0729C57.4061 36.6157 56.7513 36.2279 56.0593 35.9169C55.7149 35.7552 55.3621 35.6241 55.0009 35.4986C54.6398 35.3731 54.2758 35.2671 53.9063 35.1807C53.5006 35.0803 53.0901 35.0007 52.6764 34.9422C52.47 34.9087 52.258 34.8878 52.0531 34.8641C51.8481 34.8404 51.6347 34.8376 51.4325 34.8237C51.2303 34.8097 51.0212 34.8237 50.8148 34.8237C50.7123 34.8246 50.6098 34.8311 50.508 34.8432L50.2012 34.8725C49.999 34.8976 49.801 34.9422 49.5988 34.9757L49.3074 35.058C49.2086 35.081 49.1117 35.1113 49.0174 35.1486C48.2519 35.4121 47.5704 35.8747 47.0428 36.4887C46.7773 36.7963 46.5476 37.1331 46.3582 37.4926C46.2717 37.6781 46.1713 37.858 46.1002 38.0504L45.9858 38.3377L45.8896 38.6333C45.736 39.122 45.625 39.6231 45.5578 40.1309C45.4849 40.6428 45.4463 41.159 45.442 41.676C45.4316 42.7155 45.5184 43.7538 45.7014 44.7772C45.8393 45.5555 46.0255 46.3244 46.2592 47.0794C46.4892 47.8352 46.7765 48.5743 47.0693 49.3189C47.3622 50.0635 47.655 50.8124 47.8907 51.5863C48.0103 51.9743 48.1085 52.3686 48.1849 52.7674C48.2281 52.9668 48.2518 53.169 48.2825 53.3712C48.295 53.4716 48.302 53.5748 48.3118 53.6752C48.3215 53.7756 48.3313 53.8787 48.3313 53.9819C48.3634 54.622 48.2867 55.2369 48.3313 55.817C48.3455 56.0964 48.4039 56.3717 48.5042 56.6328C48.6058 56.8749 48.7676 57.087 48.9741 57.2491C49.3771 57.5726 49.9502 57.6033 50.4606 57.436C50.7179 57.3531 50.9586 57.2256 51.1718 57.0595C51.2248 57.0176 51.2736 56.9744 51.3252 56.9298L51.4786 56.7792L51.6264 56.623L51.7658 56.4599C52.079 56.0687 52.3284 55.6306 52.5049 55.1616C52.6495 54.7826 52.771 54.3952 52.8688 54.0015C52.9553 53.6682 53.0306 53.3935 53.1045 53.1648C53.1898 52.8454 53.343 52.5482 53.5535 52.2933C53.6187 52.2104 53.6926 52.1346 53.7738 52.0674C53.8798 52.006 53.8854 52.1733 53.8324 52.5275C53.7794 52.8817 53.6929 53.4325 53.5409 54.1604C53.4299 54.7258 53.2578 55.2776 53.0278 55.8059C52.7793 56.356 52.4367 56.8586 52.0154 57.2909L51.8551 57.4499C51.8035 57.5029 51.7337 57.5573 51.6724 57.6103C51.5448 57.7139 51.4091 57.8072 51.2666 57.8892C50.9779 58.0546 50.6635 58.1705 50.3365 58.2322C49.9931 58.2992 49.6393 58.2916 49.299 58.2099C48.9418 58.1204 48.6143 57.9387 48.3494 57.6828C48.0907 57.4308 47.8952 57.1212 47.7791 56.7792C47.6728 56.4642 47.6131 56.1353 47.602 55.8031C47.5685 55.177 47.6397 54.6011 47.6132 54.0768C47.5811 53.01 47.2771 51.9405 46.8908 50.8807C46.605 50.0914 46.2703 49.3022 45.9663 48.485C45.654 47.6623 45.3973 46.8196 45.198 45.9625C44.9993 45.1029 44.8596 44.2307 44.7797 43.3521C44.6934 42.4686 44.6846 41.5793 44.7532 40.6943L44.7587 40.6929Z" fill="black"/>
<path d="M47.6808 42.0023C47.7326 41.6874 47.8423 41.3848 48.0043 41.1099C48.0504 41.0109 48.1035 40.9154 48.1633 40.824C48.3711 40.5451 48.5998 40.2788 48.8243 40.0152C48.9211 39.8966 49.0101 39.7718 49.0906 39.6415C49.1952 39.477 49.2761 39.2887 49.4615 39.1897C49.5773 39.1284 50.0277 39.7057 49.9036 39.8716C49.6788 40.179 49.4227 40.4622 49.1394 40.7166C48.9806 40.8883 48.8443 41.0795 48.7336 41.2856C48.6061 41.4774 48.5074 41.687 48.4408 41.9075C48.4052 42.0143 48.3942 42.1277 48.4087 42.2394C48.4172 42.268 48.4299 42.2953 48.4464 42.3203C48.463 42.3399 48.4823 42.3573 48.5036 42.3718C48.5285 42.3879 48.5551 42.401 48.583 42.4109C48.659 42.4375 48.7383 42.4535 48.8187 42.4583C48.9946 42.4563 49.1691 42.4272 49.336 42.3718C49.3737 42.3621 49.4085 42.344 49.4462 42.337C49.5856 42.3105 49.6289 42.3509 49.6972 42.5406C49.7125 42.5824 49.7307 42.6256 49.7432 42.6689C49.7688 42.7313 49.7709 42.8009 49.7491 42.8647C49.7273 42.9285 49.6831 42.9823 49.6247 43.0161C49.4475 43.1052 49.2548 43.1597 49.0572 43.1764C48.8346 43.1988 48.6099 43.1789 48.3948 43.1179C48.3571 43.1053 48.3237 43.097 48.2777 43.0788C48.2316 43.0607 48.1828 43.037 48.1382 43.0133L48.0113 42.9268C47.9723 42.8948 47.936 42.8585 47.8984 42.825C47.7957 42.7043 47.723 42.5609 47.6864 42.4067C47.6758 42.366 47.6683 42.3245 47.6641 42.2826C47.6622 42.2496 47.6622 42.2166 47.6641 42.1836C47.6605 42.1237 47.6605 42.0636 47.6641 42.0037L47.6808 42.0023Z" fill="black"/>
<path d="M48.1564 44.2056C48.2199 44.2455 48.2866 44.28 48.3558 44.3088C48.3917 44.3245 48.4285 44.3381 48.466 44.3492L48.5817 44.3771C48.6389 44.3952 48.6975 44.3701 48.756 44.3771C48.9754 44.4052 49.1981 44.3896 49.4114 44.3311C49.4608 44.3168 49.5078 44.2951 49.5509 44.267C49.5954 44.2436 49.6366 44.2146 49.6736 44.1805L49.813 44.0411C49.8577 43.9908 49.9182 43.9573 49.9845 43.9462C50.0319 43.9379 50.1644 44.0759 50.2634 44.2377C50.3624 44.3994 50.4182 44.5891 50.3429 44.656C50.0665 44.8994 49.7127 45.0368 49.3445 45.0437C49.2908 45.0436 49.2372 45.0478 49.1841 45.0562C49.1311 45.0562 49.0768 45.066 49.0238 45.0743C48.9708 45.0827 48.9178 45.0925 48.8634 45.0952C48.8091 45.098 48.7546 45.098 48.7003 45.0952H48.6124L48.5232 45.0813L48.3489 45.0492C48.2917 45.0339 48.2345 45.0144 48.1787 44.9976C48.1217 44.9817 48.0661 44.9607 48.0128 44.9349C47.9473 44.9028 47.8803 44.8763 47.819 44.8387L47.6363 44.7243C47.5492 44.6604 47.4663 44.591 47.3881 44.5166L47.2779 44.4008L47.2208 44.345L47.1706 44.2851C47.1204 44.2223 47.0534 44.1693 46.9962 44.1094C46.9391 44.0494 46.8819 43.9867 46.8275 43.9211C46.8029 43.893 46.781 43.8627 46.762 43.8305C46.6992 43.7092 46.7299 43.6492 46.9084 43.5614C46.9488 43.5418 46.9879 43.5195 47.0297 43.5028C47.0838 43.4763 47.1431 43.4626 47.2033 43.4626C47.2635 43.4626 47.3229 43.4763 47.3769 43.5028C47.5365 43.6357 47.6883 43.7777 47.8315 43.9281C47.9293 44.0302 48.0422 44.1167 48.1662 44.1847L48.1564 44.2056Z" fill="black"/>
<path d="M53.5284 41.4387C53.6748 40.7819 54.6899 41.2993 54.2256 41.7734C53.9202 42.0885 53.4294 41.8863 53.5284 41.4387Z" fill="black"/>
<path d="M54.0418 41.5754C54.0551 41.5786 54.0691 41.5769 54.0812 41.5705C54.0933 41.564 54.1026 41.5534 54.1073 41.5405C54.1073 41.528 54.1003 41.5196 54.1003 41.5071C54.0969 41.4712 54.0826 41.4372 54.0595 41.4096C54.0363 41.382 54.0054 41.362 53.9707 41.3523C53.9536 41.3468 53.9353 41.3468 53.9183 41.3523C53.9013 41.3578 53.8864 41.3685 53.8758 41.383C53.8702 41.393 53.866 41.4038 53.8633 41.415C53.8594 41.4283 53.8566 41.4418 53.8549 41.4555C53.8549 41.4555 53.8452 41.4792 53.7978 41.4876C53.6633 41.4749 53.5318 41.44 53.4087 41.3844C53.3269 41.3491 53.2534 41.2974 53.1926 41.2324C53.141 41.1724 53.1131 41.1069 53.1493 41.0497C53.1619 41.026 53.1786 40.9981 53.1912 40.9786C53.2037 40.9591 53.2093 40.9507 53.2218 40.9354C53.2541 40.8993 53.2886 40.8654 53.325 40.8336C53.3633 40.8037 53.4044 40.7775 53.4477 40.7555C53.4907 40.7296 53.5379 40.7116 53.5872 40.7025C53.6849 40.6743 53.7875 40.6678 53.888 40.6834C53.9884 40.6991 54.0842 40.7365 54.1687 40.7931C54.2698 40.8563 54.3663 40.9266 54.4573 41.0037C54.5494 41.082 54.6187 41.1836 54.6581 41.2979C54.6749 41.3621 54.6829 41.4282 54.6818 41.4945C54.679 41.5605 54.6654 41.6255 54.6414 41.687C54.5938 41.8077 54.5148 41.9136 54.4127 41.9937C54.2997 42.0822 54.1647 42.1381 54.0223 42.1555C53.8377 42.174 53.6531 42.12 53.5077 42.0049C53.3871 41.922 53.2909 41.8083 53.2288 41.6758C53.2119 41.6454 53.2001 41.6124 53.194 41.5782C53.1842 41.5113 53.194 41.468 53.2386 41.4471C53.3028 41.4218 53.373 41.4155 53.4408 41.429L53.5802 41.4457C53.6875 41.4671 53.7922 41.4998 53.8926 41.5433C53.9334 41.5607 53.9782 41.567 54.0223 41.5615C54.0432 41.5615 54.046 41.5489 54.046 41.5489C54.046 41.5489 54.046 41.5642 54.0529 41.5642L54.0418 41.5754Z" fill="black"/>
<path d="M45.9853 39.1351C46.0001 39.1952 46.028 39.2513 46.0671 39.2994C46.1062 39.3474 46.1555 39.3862 46.2114 39.4129C46.2673 39.4396 46.3284 39.4535 46.3904 39.4537C46.4523 39.4539 46.5135 39.4403 46.5696 39.4139C46.9182 39.2745 47.0074 38.8408 46.6728 38.6317C46.5881 38.5806 46.4891 38.5581 46.3907 38.5677C46.2922 38.5772 46.1995 38.6182 46.1261 38.6846C46.0637 38.7396 46.0175 38.8107 45.9927 38.8901C45.9679 38.9696 45.9653 39.0543 45.9853 39.1351Z" fill="black"/>
<path d="M46.9073 38.2374C47.0278 38.321 47.1246 38.4345 47.1881 38.5667C47.2517 38.6989 47.2798 38.8454 47.2698 38.9918C47.268 39.0953 47.2462 39.1976 47.2057 39.293C47.1212 39.4496 46.9881 39.5744 46.8264 39.6485C46.6838 39.7139 46.5264 39.7399 46.3704 39.7238C46.2435 39.7119 46.12 39.6759 46.0065 39.6179C45.9307 39.5813 45.863 39.5301 45.807 39.4673C45.7788 39.4358 45.7578 39.3985 45.7456 39.358C45.7333 39.3175 45.73 39.2749 45.7359 39.233C45.7443 39.1716 45.9381 39.1507 46.1222 39.1173C46.2062 39.1045 46.2892 39.0854 46.3704 39.0601C46.4025 39.0489 46.4304 39.0392 46.4485 39.0308L46.4778 39.0155C46.4847 39.0155 46.4778 39.0155 46.4778 39.0308C46.4768 39.0459 46.4801 39.0609 46.4872 39.0742C46.4944 39.0875 46.5051 39.0986 46.5182 39.1061C46.5276 39.1123 46.539 39.1148 46.5501 39.113C46.5612 39.1112 46.5713 39.1052 46.5782 39.0963C46.5909 39.0793 46.6021 39.0611 46.6116 39.042C46.6276 39.0167 46.6361 38.9875 46.6361 38.9576C46.6361 38.9277 46.6276 38.8985 46.6116 38.8732C46.5889 38.8342 46.5535 38.8041 46.5112 38.7882C46.4763 38.7728 46.4377 38.7677 46.3999 38.7734C46.3622 38.779 46.3268 38.7953 46.2979 38.8202C46.2814 38.8437 46.2725 38.8717 46.2725 38.9004C46.2725 38.9291 46.2814 38.9571 46.2979 38.9806C46.2979 38.9904 46.316 39.0001 46.3188 39.0071C46.3216 39.0141 46.2826 39.0433 46.0915 39.1005L45.9632 39.141C45.8238 39.1884 45.6843 39.1744 45.6258 39.0685C45.5883 38.9869 45.5695 38.898 45.5707 38.8083C45.5719 38.7186 45.5931 38.6302 45.6327 38.5497C45.7181 38.368 45.8669 38.2237 46.0511 38.1439C46.1925 38.0824 46.3471 38.0572 46.5008 38.0706C46.6544 38.084 46.8023 38.1356 46.931 38.2206L46.9073 38.2374Z" fill="black"/>
<path d="M50.3078 31.5943C50.1928 31.5681 50.0732 31.5694 49.9588 31.5983C49.8444 31.6271 49.7385 31.6826 49.6497 31.7602C49.0487 32.2943 52.0997 36.2225 52.5027 36.6743C53.6182 37.9083 56.8994 41.8239 58.4207 39.1843C59.3062 40.1381 59.8751 41.2968 60.9307 42.1126C61.8692 42.8475 63.0224 43.507 64.1965 43.2644C65.6216 42.973 65.6188 40.8548 65.6565 39.7392" fill="black"/>
<path d="M59.0423 40.7151C58.8847 40.492 58.7299 40.2716 58.5723 40.0611C58.5361 40.0173 58.5034 39.9707 58.4747 39.9216L58.4566 39.8937L58.4469 39.8798C58.4469 39.8798 58.4468 39.8673 58.4371 39.8798C58.4291 39.8907 58.4202 39.901 58.4106 39.9105L58.3939 39.9258L58.3771 39.9412L58.3437 39.9704L58.2126 40.0904L58.062 40.1936L57.9867 40.2451L57.903 40.2856C57.8472 40.3121 57.7929 40.3414 57.7357 40.3651C57.5056 40.4481 57.2621 40.4878 57.0175 40.4822C56.7912 40.4708 56.5674 40.4286 56.3524 40.3567C56.1006 40.2748 55.8573 40.1688 55.6259 40.0402C55.4031 39.9191 55.1896 39.7816 54.9872 39.6288C54.3094 39.0957 53.6846 38.4984 53.1215 37.8453C52.8426 37.5302 52.5637 37.2053 52.2946 36.8901C52.1454 36.7144 52.0227 36.5499 51.893 36.3798L51.5179 35.8694C51.0786 35.2614 50.6352 34.652 50.221 34.0287C49.9433 33.625 49.6949 33.2019 49.4778 32.7626C49.4233 32.6445 49.3768 32.5229 49.3384 32.3986C49.3286 32.3652 49.3188 32.3331 49.3105 32.2982C49.2984 32.2523 49.289 32.2058 49.2826 32.1588C49.2655 32.0668 49.2632 31.9726 49.2756 31.8799C49.2884 31.7896 49.3223 31.7036 49.3746 31.6289C49.4312 31.5583 49.5008 31.4991 49.5796 31.4546C49.6588 31.4072 49.7442 31.371 49.8334 31.3472C49.8791 31.3348 49.9257 31.3259 49.9728 31.3207C50.0128 31.3179 50.0528 31.3179 50.0927 31.3207C50.2977 31.3207 50.3716 31.4155 50.3437 31.4825C50.3159 31.5494 50.2182 31.6219 50.1206 31.7223C50.0756 31.7548 50.0404 31.7991 50.0188 31.8502C49.9972 31.9013 49.9899 31.9574 49.9979 32.0124C50.0038 32.0294 50.0132 32.045 50.0254 32.0582C50.0377 32.0714 50.0525 32.0819 50.069 32.0891C50.069 32.0891 50.0802 32.0891 50.0844 32.0891C50.0886 32.0891 50.0844 32.096 50.0941 32.1072L50.1081 32.1393L50.1708 32.2885C50.3544 32.7024 50.5698 33.1015 50.8151 33.4821C51.0619 33.8823 51.3254 34.2797 51.5946 34.6743C51.8637 35.069 52.1412 35.4622 52.4215 35.8513C52.5609 36.0423 52.7004 36.2445 52.8398 36.409L53.3014 36.9752C53.6693 37.428 54.0671 37.8557 54.4922 38.2553C54.91 38.6516 55.3648 39.007 55.8504 39.3164C56.2687 39.573 56.7219 39.7724 57.1403 39.7529C57.3453 39.7449 57.5436 39.677 57.7106 39.5577C57.7551 39.5282 57.7966 39.4946 57.8347 39.4573L57.864 39.4294L57.8793 39.4155L57.9114 39.3834C57.9518 39.3346 57.9783 39.2927 58.0132 39.2439C58.1526 39.0682 58.2642 38.8884 58.3799 38.7099C58.4092 38.7099 58.4441 38.7615 58.4789 38.7991L58.5793 38.9148L58.7787 39.1449C58.8443 39.2216 58.9112 39.2969 58.9739 39.3764L59.1287 39.5744C59.6279 40.2326 60.0519 40.9145 60.5901 41.475C60.7934 41.6878 61.014 41.8832 61.2497 42.0593C61.4842 42.2421 61.7301 42.4098 61.9859 42.5613C62.4737 42.8705 63.0314 43.0522 63.6077 43.0898C63.8196 43.0968 64.0312 43.071 64.2352 43.0131C64.4191 42.9555 64.584 42.849 64.7121 42.7049C64.9728 42.4177 65.1039 42.0007 65.1792 41.574C65.2127 41.3844 65.2266 41.1934 65.2461 40.9967C65.2606 40.7324 65.2918 40.4693 65.3396 40.2089C65.3642 40.0694 65.4385 39.9436 65.5487 39.8547C65.5913 39.8149 65.638 39.7798 65.6882 39.7501C65.8416 39.6832 65.9671 39.9914 65.981 40.5728C65.9934 41.0221 65.957 41.4715 65.8723 41.9129C65.8216 42.1528 65.7454 42.3865 65.645 42.6101C65.533 42.8616 65.3745 43.0896 65.1778 43.2822C64.9619 43.488 64.6984 43.6369 64.4109 43.7159L64.3049 43.7438L64.2073 43.7619C64.1418 43.7717 64.0762 43.7856 64.0121 43.7926C63.881 43.8065 63.7492 43.8121 63.6174 43.8093C63.1089 43.7932 62.6089 43.6741 62.1477 43.4593C61.8218 43.3123 61.5092 43.1374 61.2134 42.9364C60.9206 42.7409 60.6411 42.5261 60.3768 42.2936C59.8742 41.8157 59.424 41.2856 59.0339 40.7123L59.0423 40.7151Z" fill="black"/>
<path d="M60.5791 47.4641C60.6086 47.4795 60.6408 47.489 60.674 47.4919C60.6851 47.4919 60.6879 47.4808 60.6963 47.4822C60.7158 47.4866 60.7363 47.4849 60.7548 47.4771C60.7733 47.4694 60.7889 47.456 60.7995 47.439C60.8034 47.4301 60.8045 47.4202 60.8025 47.4106C60.8005 47.4011 60.7955 47.3925 60.7883 47.386C60.7688 47.365 60.7353 47.3692 60.7534 47.3302C60.7699 47.3105 60.7881 47.2923 60.8078 47.2758L60.8622 47.2326C60.8873 47.2144 60.9138 47.1963 60.9417 47.1796C61.0518 47.1071 61.1885 47.075 61.2206 47.128C61.2791 47.2117 61.3067 47.3131 61.2986 47.4149C61.2904 47.5167 61.2471 47.6125 61.176 47.6858C61.1108 47.7674 61.0343 47.8393 60.9487 47.8991C60.8581 47.9433 60.7579 47.9644 60.6572 47.9605C60.6018 47.9587 60.5467 47.9517 60.4927 47.9396C60.4146 47.9242 60.3463 47.8908 60.2765 47.8754C60.2195 47.8691 60.162 47.8691 60.105 47.8754C60.0925 47.8768 60.0799 47.8768 60.0674 47.8754C60.0269 47.8657 60.0283 47.8308 60.0743 47.7067L60.1064 47.6216C60.1281 47.5499 60.172 47.4868 60.2319 47.4417C60.3079 47.4065 60.3941 47.4001 60.4746 47.4236C60.5164 47.4348 60.5485 47.4501 60.5763 47.4557L60.5791 47.4641Z" fill="black"/>
<path d="M53.72 44.759C53.3296 44.9402 52.8527 45.0546 52.4971 44.805C52.2878 44.6305 52.1409 44.3926 52.0788 44.1273C51.7525 43.0717 52.6826 42.6213 53.5457 42.744C54.6766 42.9044 54.7589 44.2835 53.72 44.759Z" fill="#FFD6D6"/>
<path d="M46.5237 42.1767C46.4848 42.1672 46.4469 42.1536 46.4107 42.1363C45.8725 41.8783 45.4123 40.3876 46.3759 40.449C47.4873 40.5187 47.2725 42.3538 46.5237 42.1767Z" fill="#FFD6D6"/>
<path d="M52.0114 81.8692C51.7465 81.9947 51.66 82.3531 51.2849 82.1105C51.1228 81.9831 51.0008 81.8117 50.9335 81.6168C50.794 81.302 50.6729 80.9794 50.5709 80.6505C50.4148 80.1471 50.2921 79.6032 49.917 79.2309C49.8673 79.1735 49.8002 79.1338 49.7259 79.118C49.5363 79.0957 49.4345 79.3369 49.4233 79.5265C49.3815 80.1708 49.6227 80.8025 49.6227 81.4467C49.6227 81.575 49.5753 81.7437 49.447 81.7465C49.3424 81.7465 49.2769 81.6363 49.2379 81.5387C48.86 80.6044 48.7066 79.7022 48.2227 78.8014C48.1516 78.662 48.054 78.5225 47.902 78.5086C47.6705 78.4919 47.5673 78.7959 47.5687 79.0273C47.5687 79.8291 47.9145 80.5835 48.1627 81.3463C48.2143 81.5039 48.2143 81.7437 48.0498 81.7646C47.2996 81.4648 47.2996 80.1917 46.5229 79.9728C45.6946 79.7385 46.8882 82.0644 46.3304 82.2513C45.9386 82.3907 45.7908 81.3839 45.2456 81.4592C44.9918 81.4941 44.8161 81.7535 44.7952 82.0087C44.7915 82.2663 44.8549 82.5206 44.9792 82.7463C45.4784 83.82 46.3346 84.7794 47.5492 84.9914C49.7803 85.3832 52.4297 83.9218 52.5538 81.4843" fill="white"/>
<path d="M45.8773 82.5506C45.9549 82.5908 46.0397 82.6153 46.1268 82.6227C46.2138 82.6301 46.3015 82.6202 46.3848 82.5937L46.4252 82.5784C46.4363 82.5645 46.4516 82.5631 46.4641 82.5548L46.5392 82.5116C46.5807 82.4819 46.6177 82.4463 46.649 82.406C46.7076 82.3317 46.7511 82.2467 46.777 82.1557C46.8369 81.8955 46.8345 81.6249 46.77 81.3658C46.7408 81.2115 46.7033 81.0515 46.6685 80.8958L46.6073 80.6246C46.5906 80.5454 46.5767 80.4703 46.5684 80.4021C46.5608 80.3562 46.5575 80.3096 46.5586 80.2631L46.5128 80.2547C46.4823 80.2471 46.4525 80.2368 46.4238 80.2241C46.4043 80.2199 46.3856 80.2129 46.3681 80.2033L46.3417 80.1852H46.3292C46.2847 80.1435 46.3292 80.1713 46.3292 80.2408C46.332 80.2644 46.332 80.2882 46.3292 80.3117C46.3301 80.3229 46.3301 80.334 46.3292 80.3451V80.3994C46.3292 80.4494 46.3292 80.4327 46.3292 80.4355C46.3292 80.4383 46.3292 80.4355 46.3292 80.4355C46.3474 80.443 46.3659 80.4495 46.3848 80.455C46.4057 80.4689 46.4251 80.48 46.4488 80.4981L46.6101 80.6969L46.9146 81.242C47.0301 81.4399 47.175 81.619 47.3443 81.7732C47.4328 81.8499 47.5257 81.9214 47.6224 81.9874L47.7253 82.0555C47.8178 82.0655 47.911 82.0655 48.0035 82.0555C48.0391 82.0478 48.073 82.0337 48.1036 82.0138C48.1315 81.9962 48.1568 81.9746 48.1787 81.9498C48.2107 81.9154 48.2362 81.8753 48.2538 81.8317C48.2723 81.766 48.2858 81.6991 48.2941 81.6314C48.3071 81.5323 48.3113 81.4323 48.3066 81.3324C48.3066 81.3018 48.2997 81.2587 48.2955 81.2226C48.2935 81.1796 48.286 81.1371 48.2732 81.096L48.2343 80.9472C48.2204 80.8958 48.1954 80.8318 48.1773 80.7762C48.0966 80.5426 48.0104 80.3076 47.9409 80.0809C47.9061 79.9711 47.8741 79.8612 47.8505 79.7541C47.8366 79.6999 47.8227 79.6471 47.8129 79.5928L47.7949 79.4969C47.776 79.3869 47.764 79.2759 47.7587 79.1645V79.1242V79.1033C47.7574 79.0857 47.7574 79.0681 47.7587 79.0505C47.762 79.0213 47.7695 78.9927 47.781 78.9657C47.7807 78.9624 47.7807 78.9592 47.781 78.9559L47.7685 78.9448C47.7407 78.9239 47.7171 78.8979 47.6989 78.8683C47.692 78.8544 47.6989 78.86 47.692 78.853C47.685 78.8461 47.692 78.853 47.692 78.8669C47.6934 78.8729 47.6934 78.8791 47.692 78.885C47.692 78.9017 47.692 78.8655 47.692 78.8683V78.8767C47.6871 78.8893 47.6811 78.9014 47.6739 78.9128C47.669 78.922 47.6634 78.9309 47.6572 78.9392L47.6447 78.9559C47.6514 78.9602 47.6571 78.9659 47.6614 78.9726C47.6889 79.0056 47.7127 79.0415 47.7323 79.0797C47.7888 79.1826 47.8431 79.2883 47.895 79.3967C48.0938 79.85 48.2665 80.3143 48.4123 80.7873C48.4943 81.0293 48.5805 81.2726 48.6807 81.5146L48.7196 81.6106C48.7392 81.6539 48.7619 81.6957 48.7877 81.7357C48.8252 81.7902 48.8723 81.8373 48.9268 81.8748C49.0047 81.9308 49.0994 81.9583 49.1952 81.9526C49.2933 81.9447 49.3854 81.9023 49.4552 81.833C49.5043 81.7826 49.5422 81.7224 49.5665 81.6564C49.5836 81.6073 49.5958 81.5565 49.6026 81.5049C49.604 81.4808 49.604 81.4566 49.6026 81.4326V81.37C49.6026 81.3088 49.6026 81.2462 49.5929 81.1864C49.5929 81.1558 49.5929 81.1252 49.5845 81.096V81.046C49.5762 80.9931 49.5679 80.9389 49.5581 80.8847C49.5387 80.7776 49.5178 80.6691 49.5081 80.5634C49.4909 80.4614 49.4995 80.3567 49.5331 80.2589C49.542 80.2344 49.5598 80.2141 49.5831 80.2022C49.6063 80.1903 49.6332 80.1877 49.6583 80.1949C49.7068 80.2215 49.7476 80.2604 49.7765 80.3076C49.8535 80.4227 49.9091 80.5509 49.9405 80.6858L49.9864 80.8833L50.0101 80.9681L50.0268 81.0209L50.0629 81.1266C50.1116 81.2657 50.1658 81.4047 50.2228 81.5438C50.252 81.6119 50.2812 81.6829 50.3146 81.7482C50.3313 81.7844 50.3494 81.8205 50.3688 81.8581L50.4008 81.9137C50.4133 81.9359 50.4272 81.9596 50.4425 81.9832C50.5594 82.1728 50.7421 82.3124 50.9557 82.3754C51.0578 82.4053 51.1668 82.4024 51.2672 82.367C51.3654 82.3266 51.454 82.266 51.5272 82.189C51.564 82.1541 51.5975 82.116 51.6273 82.075C51.6385 82.0587 51.6461 82.0402 51.6496 82.0208C51.6573 81.9873 51.6523 81.9521 51.6357 81.922C51.6241 81.9019 51.6083 81.8844 51.5893 81.871C51.5704 81.8575 51.5487 81.8484 51.5258 81.8442C51.4555 81.8372 51.3847 81.8372 51.3144 81.8442C51.2524 81.8482 51.1906 81.8326 51.1378 81.7997C51.0887 81.7592 51.0569 81.7015 51.0488 81.6384C51.0443 81.6168 51.0443 81.5945 51.0488 81.573C51.0488 81.5619 51.0586 81.5633 51.0488 81.5368L51.0266 81.4562C50.9918 81.3338 50.9404 81.1781 50.8875 81.039L50.8166 80.8457L50.7832 80.7484L50.7179 80.5468C50.6317 80.2686 50.5496 79.9724 50.4495 79.7305C50.3689 79.5295 50.2628 79.3398 50.1338 79.1659C50.0427 79.0391 49.9302 78.929 49.8015 78.8405C49.6913 78.7669 49.5627 78.7254 49.4302 78.7209C49.3435 78.7188 49.2572 78.733 49.1757 78.7626C49.1024 78.79 49.0342 78.8294 48.9741 78.8794C48.8812 78.9599 48.8076 79.0602 48.7585 79.1729C48.6934 79.3202 48.6584 79.479 48.6556 79.6401C48.6516 79.8908 48.6716 80.1413 48.7154 80.3882L48.7919 80.8165L48.8267 81.0293C48.8378 81.096 48.8475 81.1864 48.8489 81.2003C48.8489 81.2629 48.8614 81.3255 48.8642 81.3839C48.8631 81.3964 48.8631 81.4089 48.8642 81.4214L48.9143 81.4326C48.952 81.4437 48.9891 81.4567 49.0255 81.4715C49.0763 81.4908 49.121 81.5235 49.1549 81.5661C49.1549 81.5661 49.1549 81.5758 49.1549 81.5661C49.181 81.5146 49.2198 81.4706 49.2675 81.4381C49.2856 81.4256 49.3092 81.4075 49.3315 81.3936L49.369 81.37L49.3885 81.3575C49.3885 81.3575 49.3885 81.3575 49.3815 81.3477C49.376 81.3375 49.3714 81.3268 49.3676 81.3157L49.3468 81.2671L49.3064 81.1725L49.2286 80.9764C49.1771 80.8457 49.1284 80.7108 49.0784 80.576C48.981 80.2978 48.8837 80.0197 48.7711 79.7416C48.6353 79.3892 48.475 79.0467 48.2913 78.7167C48.2191 78.5838 48.1143 78.4714 47.9868 78.39C47.8899 78.3335 47.7789 78.306 47.6669 78.3107C47.5498 78.3158 47.4371 78.3571 47.3443 78.4289C47.2152 78.536 47.1248 78.6826 47.0871 78.8461C47.0701 78.909 47.0585 78.9731 47.0523 79.038C47.0523 79.07 47.0523 79.1033 47.0523 79.1353C47.0523 79.1673 47.0523 79.1895 47.0523 79.216C47.0523 79.3175 47.0634 79.419 47.0759 79.5177C47.0759 79.5678 47.0871 79.6178 47.0954 79.6651L47.1093 79.743C47.1204 79.8 47.1357 79.8556 47.1524 79.9113C47.1872 80.0239 47.2289 80.131 47.2734 80.2561C47.2837 80.2819 47.2898 80.3091 47.2915 80.3368C47.2939 80.3504 47.2928 80.3644 47.2884 80.3775C47.2841 80.3906 47.2765 80.4024 47.2665 80.4119C47.2553 80.4216 47.2442 80.4119 47.2331 80.4119C47.2222 80.4089 47.2119 80.4042 47.2025 80.398C47.1823 80.3864 47.1636 80.3724 47.1469 80.3562C47.0805 80.2734 47.0245 80.1828 46.98 80.0865C46.9515 80.0361 46.9169 79.9894 46.8771 79.9474C46.8657 79.9369 46.8536 79.9272 46.8409 79.9182L46.8326 79.9113L46.802 79.8918L46.7339 79.8515C46.6873 79.821 46.6368 79.7971 46.5837 79.7805L46.5044 79.7527C46.4738 79.743 46.4377 79.7374 46.4043 79.7305C46.3627 79.7261 46.3207 79.7261 46.2791 79.7305C46.2252 79.7346 46.1723 79.7468 46.122 79.7666C46.0656 79.7918 46.015 79.8283 45.9732 79.8737C45.9536 79.8952 45.9355 79.918 45.919 79.9419C45.9079 79.9627 45.8967 79.9836 45.887 80.0044C45.8388 80.1234 45.8198 80.2521 45.8314 80.3799C45.845 80.5561 45.8729 80.731 45.9148 80.9027L45.9412 81.0196L45.9537 81.0696L45.9788 81.1725C45.9974 81.2433 46.0109 81.3153 46.0191 81.3881C46.024 81.4264 46.024 81.4652 46.0191 81.5035C46.0168 81.5226 46.0088 81.5407 45.9961 81.5553C45.9835 81.5699 45.9668 81.5804 45.9482 81.5855C45.9259 81.5884 45.9032 81.5851 45.8826 81.576C45.8621 81.5669 45.8443 81.5524 45.8314 81.5341C45.8008 81.4993 45.7757 81.4618 45.7479 81.4242C45.7211 81.385 45.6904 81.3487 45.6562 81.3157C45.6474 81.3067 45.6376 81.2988 45.627 81.2921L45.6117 81.281H45.6047L45.5811 81.2685C45.5444 81.2498 45.5068 81.2331 45.4684 81.2184C45.4263 81.2075 45.3836 81.1986 45.3405 81.192C45.1744 81.1764 45.0084 81.223 44.8746 81.3227C44.7585 81.4128 44.6679 81.5317 44.6118 81.6676C44.5585 81.7955 44.5348 81.9338 44.5423 82.0722C44.5489 82.1962 44.5723 82.3188 44.6118 82.4366C44.6784 82.6235 44.7598 82.8049 44.8552 82.9789C44.9464 83.1499 45.0472 83.3156 45.1569 83.4753C45.3781 83.799 45.6441 84.0897 45.9468 84.3389C46.2557 84.5892 46.6098 84.778 46.9897 84.8951C47.178 84.9535 47.3719 84.9922 47.5682 85.0105C47.7601 85.0346 47.9533 85.0462 48.1467 85.0453C48.7433 85.0408 49.3341 84.9282 49.8905 84.7129C50.4551 84.4997 50.9694 84.1715 51.4007 83.7493C51.5946 83.5611 51.7667 83.3516 51.9138 83.1249C51.9777 83.0136 52.0348 82.9107 52.0862 82.8162C52.1377 82.7216 52.1613 82.6257 52.1919 82.5381C52.2445 82.4007 52.2769 82.2564 52.2878 82.1098C52.2934 82.0566 52.2957 82.0032 52.2948 81.9498C52.2914 81.905 52.283 81.8607 52.2698 81.8177C52.2503 81.7456 52.2167 81.678 52.171 81.6189C52.1379 81.5676 52.0982 81.5208 52.0528 81.4798C51.9819 81.4326 51.9027 81.5007 51.829 81.6481C51.7886 81.7218 51.765 81.8191 51.7094 81.9262C51.6537 82.0333 51.6231 82.164 51.5481 82.2961C51.1726 83.1096 50.4161 83.7284 49.5401 84.0566C49.1004 84.2218 48.6358 84.3112 48.1662 84.3208L47.8157 84.3111L47.4834 84.2485C47.2705 84.2098 47.0645 84.1405 46.8715 84.0427C46.293 83.7493 45.8202 83.1972 45.4949 82.5603C45.4174 82.4215 45.3554 82.2746 45.3099 82.1223C45.2973 82.077 45.2917 82.0302 45.2932 81.9832C45.2955 81.9602 45.3026 81.9379 45.3141 81.9179L45.3252 81.8998L45.3099 81.8789C45.3021 81.8674 45.2951 81.8553 45.289 81.8428C45.2779 81.8219 45.2807 81.8122 45.2793 81.8275C45.2786 81.8196 45.2786 81.8117 45.2793 81.8038C45.2793 81.8038 45.2793 81.7802 45.2793 81.7899C45.2795 81.7932 45.2795 81.7964 45.2793 81.7997C45.2877 81.7788 45.2153 81.9846 45.2445 81.897C45.2432 81.8983 45.2415 81.899 45.2397 81.899C45.2379 81.899 45.2361 81.8983 45.2348 81.897L45.3224 82.0013C45.3919 82.0806 45.4615 82.1974 45.5268 82.2794C45.5579 82.3215 45.5919 82.3615 45.6283 82.399L45.7243 82.488C45.7747 82.527 45.8287 82.5609 45.8856 82.5895L45.8773 82.5506Z" fill="black"/>
</svg>
