<svg width="1966" height="1159" fill="none" xmlns="http://www.w3.org/2000/svg"><path fill-rule="evenodd" clip-rule="evenodd" d="M752.278 4.598c-4.884 4.89-38.035 54.373-54.526 81.386-48.701 79.773-88.355 160.714-121.941 248.901-9.363 24.583-16.749 46.056-29.164 84.789-39.195 122.274-62.502 217.109-104.997 427.211-39.952 197.525-40.821 201.635-47.76 225.995-4.566 16.03-14.313 44.59-16.977 49.74-1.743 3.37-5.838 6.19-7.869 5.41-2.41-.93-10.934-14.75-14.824-24.04-9.209-22-21.533-64.68-28.196-97.64-12.468-61.683-20.869-128.98-28.956-231.965-6.61-84.179-8.588-118.995-11.029-194.117-1.475-45.386-2.671-63.207-4.692-69.883-2.869-9.484-10.115-13.684-21.904-12.695-13.31 1.115-18.604 6.482-24.77 25.105-6.522 19.701-22.232 79.911-33.153 127.062-18.091 78.106-29.001 120.061-42.525 163.528-14.147 45.469-21.566 64.804-32.998 86-14.761 27.369-23.265 36.295-28.776 30.204-4.604-5.087-15.509-33.677-20.676-54.204-9.578-38.059-16.378-80.215-25.484-158-13.625-116.386-18.87-209.226-15.593-276 1.874-38.169 2.426-72.149 1.222-75.198-1.656-4.195-5.219-5.938-12.34-6.039-14.418-.204-17.297 5.179-20.214 37.789-6.748 75.424-3.98 168.837 8.442 284.948 12.588 117.658 25.274 188.251 41.97 233.53 7.91 21.455 16.967 31.905 32.071 37.002 5.36 1.809 8.146 2.106 16.917 1.804 9.634-.332 11.119-.66 18-3.976 9.84-4.741 14.673-9.098 22.419-20.207 31.464-45.129 53.535-111.861 92.657-280.153 6.489-27.917 9.822-38.299 12.59-39.222 1.502-.501 1.951 4.323 4.353 46.722 3.628 64.03 8.922 131.983 15.502 199 11.642 118.551 31.579 213.715 54.144 258.445 11.227 22.25 22.304 35.46 33.29 39.71 7.527 2.9 20.885 3.61 28.163 1.5 7.135-2.08 14.266-6.9 17.779-12.02 4.709-6.87 14.556-29.27 19.405-44.14 12.856-39.42 13.78-43.59 57.295-258.376 28.55-140.926 47.514-223.102 72.259-313.119 9.925-36.107 26.225-91.089 32.166-108.5l3.071-9-.559 14c-2.254 56.462-2.575 94.593-2.031 241.5.363 98.131.964 160.915 1.562 163.177 2.243 8.481 14.006 13.028 24.251 9.374 7.973-2.843 8.618-4.053 19.716-36.993 15.206-45.133 23.84-65.748 35.216-84.088 7.679-12.38 13.677-18.725 17.295-18.297 5.813.689 7.935 7.851 11.932 40.281 3.273 26.556 8.281 41.429 16.699 49.599 14.079 13.664 48.113 5.778 72.936-16.899l6.39-5.838.201 8.083c.395 15.831 5.484 28.616 14.845 37.295 18.413 17.07 50.026 14.085 70.454-6.654 4.125-4.188 8.974-9.285 10.776-11.327 3.131-3.549 3.556-3.713 9.613-3.713 9.287 0 16.225-1.563 24.111-5.432 12.524-6.144 28.869-22.175 34.947-34.276 3.073-6.117 3.587-14.958.929-15.978a1.987 1.987 0 00-2.477.902c-2.747 4.909-11.353 15.35-18.368 22.284-9.708 9.596-21.858 16.5-29.037 16.5-7.549 0-8.881-3.459-5.974-15.5 1.868-7.736 1.883-24.455.029-33.265-4.278-20.338-12.432-29.693-28.103-32.244-12.113-1.971-34.287 2.433-46.181 9.172-7.811 4.426-16.123 13.336-21.683 23.243-3.998 7.123-7.664 11.528-19.989 24.018-13.19 13.367-16.06 15.768-22.764 19.049-7.132 3.489-8.188 3.727-15.005 3.383-8.578-.433-12.705-2.742-15.823-8.854-3.252-6.375-4.02-12.212-4.447-33.815-.444-22.448-2.135-35.485-5.443-41.97-4.08-7.997-13.101-12.182-26.312-12.205-15.899-.028-28.268 5.304-40.309 17.377-8.812 8.835-14.54 17.473-26.933 40.611-4.271 7.975-8.169 14.927-8.661 15.45-2.032 2.155-.428-28.319 3.131-59.471 2.285-20.007 5.608-41.255 13.369-85.479 12.349-70.364 25.673-168.419 30.1-221.5 2.201-26.394 3-64.985 1.647-79.545-1.931-20.77-6.948-35.578-15.015-44.316l-3.99-4.322 7.552-16.158c26.973-57.72 58.056-114.112 95.096-172.531 23.228-36.634 29.519-51.505 26.072-61.628l-1.362-4-9.237-.287-9.237-.288-4.28 4.288zm994.762 254.308c-17.31 2.822-29.92 9.797-45.86 25.356-19.67 19.19-31.61 38.088-41.17 65.123-3.05 8.636-3.8 12.314-4.22 20.72l-.51 10.22 3.41 3.415c4.55 4.548 12.88 6.493 18.23 4.257 4.97-2.075 7.08-6.139 10.16-19.53 7.53-32.711 21.23-55.723 45.41-76.272 23.22-19.735 35.06-20.375 53.36-2.885 11 10.508 22.05 27.943 28.68 45.267 3.22 8.396 10.59 33.969 14.36 49.808 10.72 45.068 16.06 100.1 17.33 178.5.89 54.686-1.9 110.008-8.66 172-1.62 14.85-3.44 31.725-4.05 37.5-2.05 19.64-5.03 26.438-18.3 41.804-32.53 37.675-57.52 75.934-82.11 125.696-14.92 30.206-23.01 51.859-29.96 80.245-8.69 35.5-8.52 61.38.53 78.35 5.21 9.77 11.54 12.9 26.1 12.9 14.35 0 21.97-3.81 32.39-16.21 9.27-11.03 17.3-24.1 27.75-45.19 25.56-51.569 52.16-136.216 67.59-215.095 1.73-8.8 3.85-18.475 4.71-21.5 8.33-28.999 43.44-63.752 86.83-85.93 14.36-7.343 17.03-9.231 16.18-11.442-.88-2.301-10.81-2.164-17.81.245-7.57 2.603-47.34 23.485-58.97 30.958-10.52 6.76-14.37 7.693-15.84 3.835-.92-2.417-.21-13.996 2.4-39.121 6.01-57.912 8.62-123.421 6.63-166.045-4.62-98.9-9.84-141.748-22.69-186.238-10.2-35.324-21.11-57.296-37.79-76.106-11.35-12.814-22.41-20.057-36.11-23.654-8.68-2.278-27.13-2.755-38-.981zM646.266 291.499c6.048 12.659 3.075 73.916-9.288 191.386-3.463 32.908-16.046 136.653-16.919 139.5-.713 2.323.367-71.339 1.48-101 4.227-112.596 8.558-195.566 11.067-212 2.194-14.371 5.692-21.462 10.263-20.807 1.182.169 2.71 1.483 3.397 2.921zm793.654 382.857c-17.01 2.586-34.83 13.329-43.05 25.948-8.28 12.706-9.98 12.983-16.47 2.67-5.89-9.368-11.54-13.073-19.85-13.021-6.13.038-10.13 1.749-16.89 7.23-5.67 4.595-10.98 11.887-21.48 29.491-8.79 14.744-11.99 18.767-13.62 17.137-.51-.509-1.42-4.301-2.04-8.426-.61-4.125-1.35-9.071-1.64-10.991-1.46-9.695-19.48-16.963-25.97-10.476-2.52 2.523-2.53 2.588-2.27 18.541l.26 16.008-10.28 12.009c-18.17 21.242-33.25 31.933-44.97 31.887-7.23-.028-12.74-2.56-17.39-7.983-6.08-7.106-7.23-12.033-7.21-30.995.01-12.477.55-19.678 2.24-29.535 1.23-7.169 2.31-16.742 2.39-21.273.15-7.434-.07-8.49-2.24-10.81-5.13-5.495-10.98-6.679-19-3.848-5.56 1.962-8.65 4.897-10.04 9.534l-1.11 3.688-8.13-3.797c-10.93-5.109-18.7-6.959-29.2-6.959-19.86 0-40.36 9.393-58.7 26.899-12.31 11.745-19.73 24.375-25.12 42.78-8.54 29.163-2.23 52.254 16.73 61.211 8.82 4.169 20.38 6.509 28 5.671 27.05-2.973 43.76-16.647 63.59-52.025l4.78-8.519 1.2 8.586c2.13 15.277 7.46 26.604 14.94 31.79 7.46 5.168 14.52 6.915 27.66 6.839 28.13-.164 48.97-11.413 66.31-35.784 6.03-8.48 6.19-8.617 6.26-5.326.03 1.858.39 11.135.79 20.616.81 19.275 1.44 21.107 8.37 24.557 4.49 2.232 12.32 1.46 17.07-1.684 4.09-2.705 11.87-17.599 22.27-42.611 9.43-22.67 17.72-39.59 21.19-43.25 2.99-3.149 5.75-3.538 7.1-1 .51.962 1.09 14.125 1.28 29.25.33 25.585.5 27.744 2.41 30.998 2.64 4.498 5.66 5.969 12.3 5.987 10.46.029 15.06-4.12 19.94-17.985 16.68-47.383 33.91-79.372 43.76-81.255 3.85-.736 7.99 1.508 10.18 5.522 2.45 4.485 2.32 24.854-.27 42.233-1.38 9.289-1.94 18.424-1.95 32-.01 16.965.23 19.769 2.25 26.184 2.98 9.478 7.31 15.024 14.71 18.806 5.27 2.695 6.84 3.01 14.96 3.005 17.07-.008 30.04-6.959 53.72-28.803 26.14-24.108 41.51-42.902 39.46-48.247-.5-1.319-.98-1.317-4.18.018-4.61 1.926-17.82 12.238-29.13 22.732-4.84 4.497-13.53 11.914-19.3 16.482-21.43 16.949-32.95 19.645-38.73 9.064-2.59-4.736-2.31-25.723.6-45.241 2.85-19.171 3.89-44.07 2.15-51.553-1.79-7.684-5.88-14.824-10.35-18.064-6.96-5.048-18.34-7.426-28.29-5.912zm-295.06 38.524c4.66 1.216 12.96 4.673 14.52 6.054.91.803-3.58 13.099-8.38 22.951-13.06 26.832-31.59 50.568-46.18 59.166-8.17 4.812-17.33 3.151-21.27-3.855-1.92-3.419-2.29-5.535-2.28-13.191.01-14.526 4.82-30.63 13.64-45.62 6.89-11.709 17.99-21.661 28.45-25.507 4.95-1.822 14.5-1.821 21.5.002zm-277.391 2.664c6.31 6.772 8.419 30.987 3.68 42.251l-1.644 3.909-2.58-2.409c-9.8-9.155-13.619-31.919-7.027-41.881 3.019-4.562 4.681-4.973 7.571-1.87zm-37.486 26.487c1.296 5.163 7.563 16.947 12.421 23.354 3.725 4.913 14.379 14.81 18.939 17.593.976.596-4.746 10.235-8.659 14.587-4.734 5.266-14.466 10.818-18.964 10.819-8.833.003-14.284-11.435-14.297-30.001-.004-5.867.716-14.003 1.632-18.437 1.735-8.398 6.159-20.561 7.479-20.561.432 0 1.084 1.191 1.449 2.646zm979.067 155.225c-19.29 77.681-43.18 141.944-65.1 175.114-5.79 8.76-9.16 10.72-12.56 7.31-1.94-1.94-2.11-3.19-2.07-15.45.04-17.82 3.97-37.5 12.65-63.35 14.53-43.278 33.78-79.791 62.83-119.161 8.35-11.309 9.26-12.238 9.52-9.673.16 1.562-2.21 12.906-5.27 25.21z" fill="#000"/></svg>