<svg width="70" height="70" viewBox="0 0 70 70" fill="none" xmlns="http://www.w3.org/2000/svg">
<rect width="70" height="70" rx="10" fill="#4D4D4D"/>
<path d="M26.6865 59.7519C31.2756 59.7519 35 56.0556 35 51.5013V43.2507H26.6865C22.0975 43.2507 18.3731 46.9469 18.3731 51.5013C18.3731 56.0556 22.0975 59.7519 26.6865 59.7519Z" fill="#0ACF83"/>
<path d="M18.3731 35C18.3731 30.4456 22.0975 26.7494 26.6865 26.7494H35V43.2506H26.6865C22.0975 43.2506 18.3731 39.5543 18.3731 35Z" fill="#A259FF"/>
<path d="M18.3733 18.4987C18.3733 13.9444 22.0977 10.2481 26.6867 10.2481H35.0002V26.7494H26.6867C22.0977 26.7494 18.3733 23.0531 18.3733 18.4987Z" fill="#F24E1E"/>
<path d="M35 10.2481H43.3134C47.9025 10.2481 51.6269 13.9444 51.6269 18.4987C51.6269 23.0531 47.9025 26.7494 43.3134 26.7494H35V10.2481Z" fill="#FF7262"/>
<path d="M51.6269 35C51.6269 39.5543 47.9025 43.2506 43.3134 43.2506C38.7244 43.2506 35 39.5543 35 35C35 30.4456 38.7244 26.7494 43.3134 26.7494C47.9025 26.7494 51.6269 30.4456 51.6269 35Z" fill="#1ABCFE"/>
</svg>
