<svg width="20" height="20" viewBox="0 0 20 20" fill="none" xmlns="http://www.w3.org/2000/svg">
<path d="M14.0419 0H5.95811C2.67279 0 0 2.67279 0 5.95811V14.0419C0 17.3272 2.67279 20 5.95811 20H14.0419C17.3272 20 20 17.3272 20 14.0419V5.95811C20 2.67279 17.3272 0 14.0419 0ZM17.988 14.0419C17.988 16.2213 16.2213 17.988 14.0419 17.988H5.95811C3.77875 17.988 2.012 16.2213 2.012 14.0419V5.95811C2.012 3.77871 3.77875 2.012 5.95811 2.012H14.0419C16.2213 2.012 17.988 3.77871 17.988 5.95811V14.0419Z" fill="black"/>
<path d="M9.99998 4.82729C7.14774 4.82729 4.82727 7.14776 4.82727 9.99996C4.82727 12.8522 7.14774 15.1727 9.99998 15.1727C12.8522 15.1727 15.1727 12.8522 15.1727 9.99996C15.1727 7.14772 12.8522 4.82729 9.99998 4.82729ZM9.99998 13.1607C8.25435 13.1607 6.83927 11.7456 6.83927 10C6.83927 8.25437 8.25439 6.83928 9.99998 6.83928C11.7456 6.83928 13.1607 8.25437 13.1607 10C13.1607 11.7456 11.7456 13.1607 9.99998 13.1607Z" fill="black"/>
<path d="M15.1827 6.10561C15.8673 6.10561 16.4222 5.55067 16.4222 4.86612C16.4222 4.18157 15.8673 3.62663 15.1827 3.62663C14.4982 3.62663 13.9432 4.18157 13.9432 4.86612C13.9432 5.55067 14.4982 6.10561 15.1827 6.10561Z" fill="black"/>
</svg>
