<svg width="32" height="32" viewBox="0 0 32 32" fill="none" xmlns="http://www.w3.org/2000/svg">
<g clip-path="url(#clip0_201:5)">
<path d="M31.3765 9.78958C31.7507 9.65658 32.0004 9.30226 32 8.90514C31.9995 8.50801 31.7489 8.15433 31.3744 8.0222L16.3119 2.70776C16.1101 2.63651 15.8899 2.63651 15.6881 2.70776L0.625626 8.0222C0.251126 8.15426 0.000500749 8.50801 7.49189e-07 8.90514C-0.000499251 9.30226 0.249313 9.65658 0.623501 9.78958L6.59031 11.9108V18.0263C6.59031 19.0356 7.64325 19.8891 9.71988 20.5631C11.5299 21.1506 13.7603 21.4742 16.0001 21.4742C18.2398 21.4742 20.4701 21.1506 22.2803 20.5631C24.3569 19.8891 25.4098 19.0356 25.4098 18.0263V11.9108L27.8734 11.035V19.509C26.7778 19.8964 25.9906 20.942 25.9906 22.1685C25.9906 23.395 26.7778 24.4406 27.8734 24.828V28.4083C27.8734 28.9261 28.2931 29.3458 28.8109 29.3458C29.3286 29.3458 29.7484 28.9261 29.7484 28.4083V24.828C30.8439 24.4406 31.6312 23.3951 31.6312 22.1685C31.6312 20.942 30.8439 19.8964 29.7484 19.509V10.3684L31.3765 9.78958ZM28.8108 23.1138C28.2896 23.1138 27.8655 22.6897 27.8655 22.1685C27.8655 21.6472 28.2896 21.2231 28.8108 21.2231C29.3321 21.2231 29.7561 21.6472 29.7561 22.1685C29.7561 22.6897 29.3321 23.1138 28.8108 23.1138ZM16 4.58595L28.2543 8.90964L16 13.2661L3.74569 8.90958L16 4.58595ZM23.5347 17.885C23.3551 18.0661 22.7118 18.4999 21.26 18.9141C19.7112 19.3559 17.8431 19.5992 16 19.5992C14.1569 19.5992 12.2889 19.3559 10.74 18.9141C9.28819 18.4999 8.64494 18.0661 8.46525 17.885V12.5774L15.6859 15.1444C15.7875 15.1805 15.8938 15.1986 15.9999 15.1986C16.1062 15.1986 16.2124 15.1805 16.3139 15.1444L23.5346 12.5774V17.885H23.5347Z" fill="white"/>
</g>
<defs>
<clipPath id="clip0_201:5">
<rect width="32" height="32" fill="white"/>
</clipPath>
</defs>
</svg>
