<svg width="68" height="68" viewBox="0 0 68 68" fill="none" xmlns="http://www.w3.org/2000/svg">
<path d="M60.2156 34C60.8349 33.4451 61.4289 32.8891 61.9865 32.3324C67.3329 26.9961 69.1999 22.1217 67.2431 18.6073C66.1167 16.5841 63.2349 14.1723 55.9037 14.1723C53.1094 14.1723 49.9845 14.5255 46.6576 15.1875C46.1823 13.5253 45.6438 11.9495 45.0396 10.488C42.243 3.72463 38.3224 0 34.0003 0C29.6782 0 25.7576 3.72463 22.9604 10.488C22.3559 11.9495 21.8173 13.5253 21.3424 15.1875C18.0155 14.5255 14.8906 14.1723 12.0963 14.1723C4.76513 14.1723 1.8833 16.5841 0.756943 18.6073C-1.19992 22.1217 0.667069 26.9958 6.01351 32.3324C6.57112 32.8891 7.16546 33.4451 7.7844 34C7.16513 34.5549 6.57112 35.1109 6.01351 35.6676C0.667069 41.0039 -1.19992 45.8783 0.756943 49.3927C1.8833 51.4159 4.76513 53.8277 12.0963 53.8277C14.8906 53.8277 18.0155 53.4745 21.3424 52.8125C21.8177 54.4747 22.3562 56.0505 22.9604 57.512C25.7576 64.2754 29.6782 68 34.0003 68C38.3224 68 42.243 64.2754 45.0399 57.512C45.6444 56.0505 46.183 54.4747 46.6579 52.8122C49.9849 53.4742 53.1098 53.8274 55.904 53.8277C55.9047 53.8277 55.905 53.8277 55.9057 53.8277C63.2349 53.8277 66.1167 51.4159 67.2431 49.3927C69.1999 45.8783 67.3329 41.0042 61.9865 35.6676C61.4292 35.1106 60.8349 34.5546 60.2156 34ZM55.9043 17.1635C60.3261 17.1635 63.3146 18.1571 64.3192 19.9614C65.5948 22.2527 63.862 26.0261 59.5655 30.3146C59.0135 30.8655 58.425 31.4162 57.8081 31.9657C55.1332 29.836 52.0451 27.7544 48.6591 25.7949C48.3773 23.1153 47.9558 20.539 47.4061 18.1132C50.4962 17.497 53.3787 17.1635 55.9043 17.1635ZM39.3435 43.5966C37.5687 44.4183 35.7811 45.1781 34.0003 45.8744C32.2193 45.1781 30.4317 44.4183 28.6572 43.5966C26.5094 42.6021 24.4397 41.5492 22.4661 40.4541C22.292 38.3944 22.1981 36.2389 22.1981 33.9994C22.1981 31.7602 22.292 29.6044 22.4661 27.5447C24.4397 26.4496 26.5094 25.3967 28.6572 24.4025C30.432 23.5808 32.2196 22.821 34.0007 22.1247C35.7817 22.821 37.569 23.5808 39.3438 24.4025C41.4916 25.397 43.5613 26.4499 45.5349 27.545C45.709 29.6047 45.8028 31.7602 45.8028 33.9997C45.8028 36.2389 45.709 38.3947 45.5349 40.4544C43.5609 41.5495 41.4909 42.6024 39.3435 43.5966ZM45.1235 44.1464C44.8785 45.9097 44.5735 47.5869 44.2169 49.1665C42.2748 48.6796 40.275 48.0939 38.2424 47.4128C39.1044 47.0422 39.9667 46.6626 40.8287 46.2636C42.2965 45.5843 43.7282 44.8757 45.1235 44.1464ZM29.7583 47.4131C27.7256 48.0942 25.7258 48.6799 23.7837 49.1668C23.4272 47.5869 23.1218 45.91 22.8771 44.1464C24.2724 44.8757 25.7042 45.584 27.172 46.2639C28.034 46.6632 28.8963 47.0428 29.7583 47.4131ZM19.0434 38.4497C16.7113 37.01 14.5567 35.5174 12.6277 33.9997C14.557 32.4823 16.7113 30.9897 19.0434 29.5497C18.9624 31.0139 18.9178 32.4987 18.9178 33.9997C18.9178 35.5007 18.9624 36.9855 19.0434 38.4497ZM22.8768 23.8533C23.1218 22.0897 23.4268 20.4128 23.7834 18.8329C25.7255 19.3198 27.7253 19.9058 29.7579 20.5866C28.896 20.9572 28.0336 21.3368 27.1716 21.7358C25.7038 22.4154 24.2721 23.124 22.8768 23.8533ZM38.2421 20.5866C40.2747 19.9055 42.2745 19.3198 44.2166 18.8329C44.5732 20.4128 44.8785 22.0897 45.1232 23.8533C43.7279 23.124 42.2962 22.4157 40.8284 21.7358C39.9664 21.3365 39.104 20.9572 38.2421 20.5866ZM48.9569 29.55C51.289 30.9897 53.4437 32.4823 55.3726 34C53.4433 35.5174 51.289 37.01 48.9569 38.45C49.0379 36.9858 49.0825 35.501 49.0825 34C49.0825 32.499 49.0379 31.0142 48.9569 29.55ZM34.0003 2.99119C37.4529 2.99119 41.1488 7.86385 43.4668 15.9042C40.4154 16.6633 37.2338 17.6612 34.0003 18.8774C30.7669 17.6612 27.5856 16.663 24.5338 15.9042C26.8518 7.86385 30.5478 2.99119 34.0003 2.99119ZM8.43483 30.3146C4.13832 26.0264 2.40581 22.2527 3.68141 19.9614C4.68609 18.1571 7.67452 17.1635 12.0963 17.1635C14.6219 17.1635 17.5041 17.497 20.5942 18.1132C20.0445 20.5393 19.6233 23.1153 19.3412 25.7949C15.9553 27.7544 12.8671 29.836 10.1923 31.9657C9.57529 31.4162 8.98685 30.8655 8.43483 30.3146ZM12.096 50.8362C7.67419 50.8362 4.68576 49.8426 3.68109 48.0383C2.40548 45.747 4.13832 41.9736 8.43483 37.6852C8.98685 37.1342 9.57529 36.5835 10.1923 36.034C12.8671 38.1637 15.9553 40.2453 19.3412 42.2048C19.623 44.8844 20.0445 47.4607 20.5942 49.8865C17.5041 50.5027 14.6216 50.8362 12.096 50.8362ZM34.0003 65.0085C30.5478 65.0085 26.8518 60.1359 24.5338 52.0955C27.5853 51.3364 30.7669 50.3385 34.0003 49.122C37.2334 50.3382 40.4151 51.3364 43.4668 52.0952C41.1485 60.1359 37.4529 65.0085 34.0003 65.0085ZM64.3189 48.0383C63.3142 49.8429 60.3268 50.8362 55.906 50.8362C55.9056 50.8362 55.9047 50.8362 55.9043 50.8362C53.3787 50.8362 50.4962 50.5024 47.4061 49.8865C47.9555 47.4604 48.377 44.8844 48.6588 42.2048C52.0447 40.2453 55.1329 38.1637 57.8077 36.034C58.4247 36.5835 59.0131 37.1342 59.5652 37.6852C63.862 41.9733 65.5945 45.747 64.3189 48.0383ZM41.2095 34C41.2095 37.625 37.9754 40.5743 34.0003 40.5743C30.0249 40.5743 26.7912 37.625 26.7912 34C26.7912 30.375 30.0253 27.4257 34.0003 27.4257C37.9754 27.4257 41.2095 30.3747 41.2095 34Z" fill="#C8E7F0"/>
</svg>
