<svg width="62" height="58" viewBox="0 0 62 58" fill="none" xmlns="http://www.w3.org/2000/svg">
<path d="M42.6296 40.3548C44.8545 40.1246 46.5423 38.2066 46.4656 35.9049C46.3889 33.6033 44.4709 31.762 42.1692 31.762H42.0158C39.6374 31.8387 37.7961 33.8334 37.8728 36.2118C37.9496 37.3626 38.4099 38.36 39.1004 39.0505C36.4919 44.1908 32.5023 47.9502 26.5181 51.0958C22.4518 53.244 18.2322 54.0112 14.0125 53.4741C10.56 53.0138 7.87479 51.4794 6.18692 48.9476C3.73184 45.1882 3.50168 41.122 5.57315 37.0557C7.03086 34.1403 9.3325 31.9921 10.7902 30.918C10.4833 29.9207 10.023 28.2328 9.79283 27.0052C-1.33177 35.061 -0.180947 45.9554 3.19479 51.0958C5.7266 54.9318 10.8669 57.3102 16.5443 57.3102C18.0787 57.3102 19.6132 57.1567 21.1476 56.7731C30.9679 54.8551 38.4099 49.0243 42.6296 40.3548V40.3548Z" fill="#BB99F1"/>
<path d="M56.1325 30.8413C50.3017 24.0131 41.7089 20.2537 31.8886 20.2537H30.661C29.9705 18.8727 28.5128 17.9521 26.9017 17.9521H26.7482C24.3699 18.0288 22.5286 20.0236 22.6053 22.4019C22.682 24.7036 24.6 26.5449 26.9017 26.5449H27.0551C28.743 26.4682 30.2007 25.3941 30.8145 23.9364H32.1955C38.0263 23.9364 43.5502 25.6242 48.5371 28.9232C52.3732 31.455 55.1351 34.7541 56.6696 38.7436C57.9738 41.9659 57.8971 45.1114 56.5161 47.7967C54.3679 51.8629 50.762 54.0878 46.0053 54.0878C42.9365 54.0878 40.021 53.1672 38.4866 52.4767C37.6427 53.2439 36.1083 54.4715 35.0342 55.2387C38.3332 56.7731 41.7089 57.617 44.9312 57.617C52.2965 57.617 57.7437 53.5508 59.8151 49.4846C62.0401 45.0347 61.8866 37.3626 56.1325 30.8413Z" fill="#BB99F1"/>
<path d="M17.1581 41.659C17.2348 43.9607 19.1528 45.802 21.4545 45.802H21.6079C23.9863 45.7252 25.8276 43.7305 25.7509 41.3521C25.6741 39.0505 23.7561 37.2092 21.4545 37.2092H21.301C21.1476 37.2092 20.9174 37.2092 20.764 37.2859C17.6184 32.0688 16.3141 26.3915 16.7745 20.2538C17.0813 15.6505 18.6158 11.661 21.301 8.36195C23.5259 5.52326 27.8223 4.14228 30.7377 4.06556C38.8702 3.91212 42.3227 14.0393 42.5528 18.1056C43.5502 18.3357 45.2381 18.8728 46.3889 19.2564C45.4682 6.82753 37.7961 0.382935 30.4309 0.382935C23.5259 0.382935 17.1581 5.36982 14.6263 12.7351C11.0971 22.5554 13.3987 31.9921 17.6951 39.4341C17.3115 39.9711 17.0813 40.8151 17.1581 41.659V41.659Z" fill="#BB99F1"/>
</svg>
