<svg width="68" height="52" viewBox="0 0 68 52" fill="none" xmlns="http://www.w3.org/2000/svg">
<path d="M58.1768 29.7279C55.8342 29.7411 53.8057 30.3037 52.1044 31.1414C51.4762 29.8981 50.848 28.8118 50.7435 28.0005C50.6257 27.0582 50.4817 26.4823 50.6257 25.3569C50.7695 24.2313 51.4239 22.6347 51.4239 22.5038C51.4107 22.386 51.2798 21.8102 49.932 21.7971C48.5841 21.784 47.4192 22.0588 47.2884 22.4122C47.1575 22.7655 46.8958 23.5769 46.7256 24.4145C46.4901 25.6447 44.0297 30.0027 42.6294 32.2929C42.1713 31.403 41.7787 30.6178 41.7001 29.9895C41.5824 29.0473 41.4383 28.4714 41.5824 27.346C41.7264 26.2204 42.3807 24.6239 42.3807 24.493C42.3676 24.3752 42.2368 23.7994 40.8889 23.7863C39.5408 23.7732 38.3762 24.0481 38.2453 24.4014C38.1144 24.7548 37.9705 25.5923 37.6826 26.4037C37.4076 27.2151 34.1358 34.4916 33.2852 36.3892C32.8533 37.3576 32.4739 38.1298 32.199 38.6533C31.9241 39.1767 32.1859 38.6925 32.1597 38.7449C31.9241 39.1898 31.7933 39.4385 31.7933 39.4385V39.4517C31.61 39.7789 31.4137 40.0928 31.322 40.0928C31.2566 40.0928 31.1257 39.216 31.3482 38.0121C31.8324 35.4862 33.0102 31.5471 32.9973 31.4031C32.9973 31.3377 33.2196 30.644 32.2381 30.2907C31.2827 29.9374 30.9426 30.5263 30.8639 30.5263C30.7854 30.5263 30.72 30.7357 30.72 30.7357C30.72 30.7357 31.78 26.2993 28.6915 26.2993C26.7546 26.2993 24.0848 28.4063 22.763 30.3301C21.9255 30.7882 20.1456 31.7565 18.2611 32.7905C17.5413 33.1831 16.7953 33.6019 16.0886 33.9814L15.9448 33.8241C12.2019 29.8326 5.27883 27.0057 5.56675 21.64C5.67145 19.6901 6.35198 14.5468 18.8634 8.31738C29.1105 3.21341 37.3161 4.61373 38.7425 7.72846C40.771 12.1781 34.3583 20.4491 23.7056 21.64C19.6486 22.0981 17.5153 20.5276 16.9788 19.9387C16.4161 19.3236 16.3375 19.2974 16.1282 19.4152C15.7879 19.5984 15.9973 20.1481 16.1282 20.4753C16.4422 21.2998 17.751 22.7655 19.9758 23.4984C21.9256 24.1397 26.6894 24.493 32.4477 22.2682C38.8997 19.7686 43.9382 12.8324 42.4594 7.03484C40.9543 1.13256 31.1652 -0.804329 21.9126 2.48053C16.4029 4.4436 10.4351 7.50598 6.14258 11.5237C1.03862 16.2874 0.227221 20.4491 0.567485 22.1766C1.75854 28.3406 10.2519 32.3584 13.6546 35.3291C13.4844 35.4206 13.3274 35.5122 13.1834 35.5909C11.4821 36.4283 5.00401 39.818 3.38121 43.4037C1.54902 47.4607 3.66912 50.3793 5.08253 50.7719C9.45361 51.989 13.9294 49.8035 16.3505 46.2045C18.7584 42.6056 18.4706 37.9335 17.3582 35.8003L17.3188 35.7218L18.6537 34.9365C19.5176 34.4261 20.3682 33.955 21.1141 33.5492C20.6954 34.6877 20.3943 36.0357 20.2374 37.9988C20.0541 40.3022 20.9964 43.286 22.2397 44.4638C22.7893 44.9741 23.4437 44.9873 23.8494 44.9873C25.289 44.9873 25.9433 43.7962 26.6631 42.3699C27.553 40.6293 28.3383 38.6139 28.3383 38.6139C28.3383 38.6139 27.3567 44.0712 30.0396 44.0712C31.0211 44.0712 32.0027 42.8017 32.4476 42.1474V42.1605C32.4476 42.1605 32.4738 42.1212 32.5261 42.0296C32.581 41.9484 32.6334 41.8655 32.6832 41.7811V41.7549C33.0758 41.0744 33.9526 39.517 35.2613 36.9389C36.9494 33.6147 38.5724 29.453 38.5724 29.453C38.5724 29.453 38.7294 30.4738 39.2136 32.149C39.5014 33.1437 40.1296 34.2298 40.6138 35.2899C40.2212 35.8395 39.9856 36.1538 39.9856 36.1538L39.9987 36.1668C39.6848 36.5856 39.3313 37.0307 38.965 37.4756C37.6301 39.0722 36.0335 40.8914 35.8241 41.4149C35.5754 42.0299 35.6278 42.4879 36.112 42.8545C36.4653 43.1162 37.0935 43.1684 37.761 43.1162C38.965 43.0376 39.8026 42.7367 40.2213 42.5533C40.8757 42.3178 41.6217 41.9644 42.3414 41.4409C43.6502 40.4726 44.4485 39.0985 44.3699 37.2663C44.3307 36.2586 44.0035 35.264 43.5978 34.3217C43.7156 34.1516 43.8335 33.9813 43.9512 33.7982C46.0189 30.775 47.6155 27.451 47.6155 27.451C47.6155 27.451 47.7726 28.4718 48.2568 30.1469C48.5053 30.9976 49.0028 31.9269 49.4477 32.843C47.5108 34.4265 46.2937 36.2587 45.875 37.4627C45.1028 39.6875 45.7048 40.6952 46.8434 40.9308C47.3537 41.0355 48.0867 40.7999 48.6362 40.5644C49.3167 40.3419 50.1412 39.9622 50.9004 39.3996C52.2091 38.4312 53.4655 37.0832 53.4 35.2641C53.3608 34.4265 53.1383 33.602 52.8373 32.8168C54.4863 32.1363 56.6193 31.7437 59.3285 32.0708C65.1522 32.7514 66.3039 36.3896 66.0815 37.9077C65.8591 39.4259 64.642 40.2634 64.2361 40.5251C63.8304 40.7738 63.6996 40.8655 63.7388 41.0486C63.7912 41.3236 63.9744 41.3103 64.3277 41.2581C64.812 41.1795 67.3901 40.0148 67.4948 37.2143C67.6519 33.6149 64.2361 29.6887 58.1768 29.7279ZM13.262 44.8696C11.3382 46.9767 8.62913 47.775 7.47746 47.0944C6.23419 46.3746 6.71828 43.273 9.08717 41.0351C10.5268 39.6741 12.3982 38.4177 13.6284 37.6456C13.9032 37.4754 14.322 37.2269 14.8193 36.9258C14.8978 36.8735 14.9502 36.8472 14.9502 36.8472C15.0418 36.7949 15.1465 36.7295 15.2512 36.664C16.128 39.8573 15.2905 42.6579 13.262 44.8696ZM27.3306 35.303C26.6631 36.9389 25.2497 41.1398 24.3991 40.9042C23.6661 40.7079 23.2212 37.5278 24.255 34.3869C24.7785 32.8032 25.8909 30.9188 26.5452 30.1858C27.6054 29.0079 28.7569 28.6153 29.045 29.0995C29.3852 29.7279 27.7493 34.2822 27.3306 35.303ZM38.9388 40.8519C38.6509 40.996 38.3891 41.1005 38.2714 41.0222C38.1798 40.9698 38.389 40.7735 38.389 40.7735C38.389 40.7735 39.8417 39.2161 40.4175 38.4963C40.7447 38.0777 41.1373 37.5935 41.5561 37.0437V37.2007C41.5562 39.0851 39.7502 40.3415 38.9388 40.8519ZM47.8902 38.8103C47.6808 38.6533 47.7071 38.169 48.4137 36.6509C48.6887 36.0489 49.3167 35.0412 50.403 34.0859C50.5338 34.4785 50.6125 34.8579 50.5993 35.2114C50.5863 37.567 48.9112 38.4439 47.8902 38.8103Z" fill="#FDD7EA"/>
</svg>
