<svg width="32" height="32" viewBox="0 0 32 32" fill="none" xmlns="http://www.w3.org/2000/svg">
<g clip-path="url(#clip0_201:129)">
<path d="M27.2504 16.0001C27.5162 15.739 27.7711 15.4773 28.0104 15.2153C30.3048 12.7041 31.106 10.4102 30.2663 8.75642C29.7829 7.80431 28.5461 6.66934 25.3999 6.66934C24.2008 6.66934 22.8597 6.83558 21.432 7.14708C21.228 6.36487 20.9969 5.62333 20.7376 4.93556C19.5375 1.75278 17.8549 0 16.0001 0C14.1453 0 12.4627 1.75278 11.2623 4.93556C11.0029 5.62333 10.7717 6.36487 10.5679 7.14708C9.14017 6.83558 7.79912 6.66934 6.59996 6.66934C3.45378 6.66934 2.21704 7.80431 1.73366 8.75642C0.893866 10.4102 1.69509 12.704 3.98952 15.2153C4.22882 15.4773 4.48388 15.739 4.7495 16.0001C4.48374 16.2612 4.22882 16.5229 3.98952 16.7848C1.69509 19.296 0.893866 21.5899 1.73366 23.2437C2.21704 24.1958 3.45378 25.3308 6.59996 25.3308C7.79912 25.3308 9.14017 25.1646 10.5679 24.8531C10.7719 25.6353 11.003 26.3768 11.2623 27.0646C12.4627 30.2474 14.1453 32.0001 16.0001 32.0001C17.8549 32.0001 19.5375 30.2474 20.7377 27.0646C20.9972 26.3768 21.2283 25.6353 21.4321 24.8529C22.8599 25.1644 24.2009 25.3307 25.4001 25.3308C25.4004 25.3308 25.4005 25.3308 25.4008 25.3308C28.5461 25.3308 29.7829 24.1958 30.2663 23.2437C31.106 21.5899 30.3048 19.2962 28.0104 16.7848C27.7712 16.5227 27.5162 16.261 27.2504 16.0001ZM25.4002 8.07696C27.2978 8.07696 28.5803 8.54458 29.0115 9.39366C29.5589 10.4719 28.8153 12.2476 26.9714 14.2657C26.7345 14.525 26.482 14.7842 26.2172 15.0427C25.0693 14.0405 23.744 13.0609 22.2909 12.1388C22.17 10.8779 21.9891 9.66547 21.7532 8.52388C23.0793 8.23391 24.3164 8.07696 25.4002 8.07696ZM18.2931 20.5162C17.5315 20.9028 16.7643 21.2604 16.0001 21.5881C15.2358 21.2604 14.4686 20.9028 13.7071 20.5162C12.7854 20.0481 11.8971 19.5526 11.0502 19.0373C10.9754 18.068 10.9352 17.0537 10.9352 15.9998C10.9352 14.946 10.9754 13.9316 11.0502 12.9623C11.8971 12.4469 12.7854 11.9515 13.7071 11.4836C14.4687 11.0969 15.2359 10.7393 16.0002 10.4117C16.7646 10.7393 17.5316 11.0969 18.2933 11.4836C19.215 11.9516 20.1032 12.4471 20.9502 12.9624C21.0249 13.9317 21.0652 14.946 21.0652 15.9999C21.0652 17.0537 21.0249 18.0682 20.9502 19.0374C20.103 19.5528 19.2147 20.0483 18.2931 20.5162ZM20.7736 20.7749C20.6685 21.6047 20.5376 22.3939 20.3846 23.1373C19.5511 22.9081 18.6929 22.6325 17.8206 22.312C18.1905 22.1376 18.5606 21.959 18.9305 21.7712C19.5604 21.4515 20.1748 21.1181 20.7736 20.7749ZM14.1796 22.3122C13.3073 22.6327 12.4491 22.9083 11.6156 23.1374C11.4626 22.3939 11.3316 21.6048 11.2266 20.7749C11.8254 21.1181 12.4398 21.4514 13.0697 21.7713C13.4396 21.9593 13.8097 22.1379 14.1796 22.3122ZM9.58132 18.0941C8.58049 17.4166 7.65582 16.7142 6.828 15.9999C7.65596 15.2858 8.58049 14.5834 9.58132 13.9058C9.54655 14.5948 9.5274 15.2936 9.5274 15.9999C9.5274 16.7063 9.54655 17.405 9.58132 18.0941ZM11.2264 11.2251C11.3316 10.3952 11.4625 9.60607 11.6155 8.86256C12.4489 9.09172 13.3072 9.36747 14.1795 9.68785C13.8095 9.86226 13.4395 10.0409 13.0696 10.2287C12.4396 10.5485 11.8252 10.8819 11.2264 11.2251ZM17.8204 9.68785C18.6927 9.36733 19.551 9.09172 20.3844 8.86256C20.5374 9.60607 20.6685 10.3952 20.7735 11.2251C20.1747 10.8819 19.5603 10.5486 18.9304 10.2287C18.5604 10.0407 18.1904 9.86226 17.8204 9.68785ZM22.4187 13.9059C23.4196 14.5834 24.3442 15.2858 25.1721 16.0001C24.3441 16.7142 23.4196 17.4166 22.4187 18.0942C22.4535 17.4052 22.4726 16.7064 22.4726 16.0001C22.4726 15.2937 22.4535 14.595 22.4187 13.9059ZM16.0001 1.40763C17.4818 1.40763 19.0679 3.70065 20.0626 7.48435C18.7531 7.84161 17.3877 8.31119 16.0001 8.88353C14.6125 8.31119 13.2472 7.84147 11.9375 7.48435C12.9323 3.70065 14.5184 1.40763 16.0001 1.40763ZM5.02863 14.2657C3.18478 12.2478 2.44127 10.4719 2.9887 9.39366C3.41985 8.54458 4.70234 8.07696 6.59996 8.07696C7.68384 8.07696 8.92072 8.23391 10.2468 8.52388C10.0109 9.66561 9.83018 10.8779 9.70913 12.1388C8.25604 13.0609 6.93076 14.0405 5.78284 15.0427C5.51806 14.7842 5.26553 14.525 5.02863 14.2657ZM6.59982 23.923C4.7022 23.923 3.41971 23.4554 2.98856 22.6063C2.44113 21.5281 3.18478 19.7524 5.02863 17.7343C5.26553 17.475 5.51806 17.2158 5.78284 16.9573C6.93076 17.9595 8.25604 18.9391 9.70913 19.8612C9.83004 21.1221 10.0109 22.3345 10.2468 23.4761C8.92072 23.7661 7.6837 23.923 6.59982 23.923ZM16.0001 30.5924C14.5184 30.5924 12.9323 28.2993 11.9375 24.5156C13.2471 24.1584 14.6125 23.6888 16.0001 23.1163C17.3876 23.6887 18.753 24.1584 20.0626 24.5155C19.0677 28.2994 17.4818 30.5924 16.0001 30.5924ZM29.0114 22.6063C28.5802 23.4556 27.2981 23.923 25.4009 23.923C25.4008 23.923 25.4004 23.923 25.4002 23.923C24.3164 23.923 23.0793 23.7659 21.7532 23.4761C21.989 22.3344 22.1699 21.1221 22.2908 19.8612C23.7439 18.9391 25.0692 17.9595 26.2171 16.9573C26.4818 17.2158 26.7344 17.475 26.9713 17.7343C28.8153 19.7522 29.5588 21.5281 29.0114 22.6063ZM19.0939 16.0001C19.0939 17.706 17.706 19.0939 16.0001 19.0939C14.2941 19.0939 12.9063 17.706 12.9063 16.0001C12.9063 14.2942 14.2942 12.9062 16.0001 12.9062C17.706 12.9062 19.0939 14.294 19.0939 16.0001Z" fill="white"/>
</g>
<defs>
<clipPath id="clip0_201:129">
<rect width="32" height="32" fill="white"/>
</clipPath>
</defs>
</svg>
