<svg width="20" height="20" viewBox="0 0 20 20" fill="none" xmlns="http://www.w3.org/2000/svg">
<g clip-path="url(#clip0_6:432)">
<path d="M0.353381 9.643L4.96178 11.363L6.74551 17.0995C6.85965 17.4669 7.30891 17.6027 7.60711 17.3589L10.1759 15.2647C10.4452 15.0453 10.8287 15.0344 11.1101 15.2387L15.7433 18.6025C16.0623 18.8343 16.5142 18.6595 16.5942 18.2741L19.9883 1.948C20.0756 1.52693 19.6619 1.17566 19.261 1.33073L0.347981 8.6268C-0.118752 8.8068 -0.114686 9.4676 0.353381 9.643ZM6.45805 10.4474L15.4646 4.90026C15.6264 4.80086 15.793 5.01973 15.654 5.14866L8.22098 12.058C7.95971 12.3012 7.79118 12.6267 7.74345 12.9799L7.49025 14.8563C7.45671 15.1069 7.10478 15.1317 7.03565 14.8893L6.06185 11.4676C5.95031 11.0773 6.11285 10.6605 6.45805 10.4474Z" fill="black"/>
</g>
<defs>
<clipPath id="clip0_6:432">
<rect width="20" height="20" fill="white"/>
</clipPath>
</defs>
</svg>
