<svg width="50" height="50" viewBox="0 0 50 50" fill="none" xmlns="http://www.w3.org/2000/svg">
<g clip-path="url(#clip0_201:117)">
<path d="M44.7148 0.5H5.28516C2.64239 0.5 0.5 2.64239 0.5 5.28516V44.7148C0.5 47.3576 2.64239 49.5 5.28516 49.5H44.7148C47.3576 49.5 49.5 47.3576 49.5 44.7148V5.28516C49.5 2.64239 47.3576 0.5 44.7148 0.5Z" fill="#ABC8E9"/>
<path fill-rule="evenodd" clip-rule="evenodd" d="M30.8379 39.4512V44.2363C31.6131 44.6383 32.5605 44.935 33.6133 45.1359C34.666 45.3369 35.8145 45.4326 36.9629 45.4326C38.1113 45.4326 39.1641 45.3274 40.2168 45.1072C41.2695 44.8871 42.1309 44.5234 42.8965 44.0545C43.6717 43.5473 44.332 42.9061 44.7148 42.0447C45.0977 41.1834 45.3943 40.2264 45.3943 38.9822C45.3943 38.1113 45.2604 37.3553 45.002 36.6854C44.7436 36.0154 44.3703 35.4412 43.8535 34.9627C43.3654 34.4555 42.8008 34.0057 42.1309 33.6229C41.4609 33.24 40.6953 32.8381 39.834 32.4744C39.2023 32.216 38.6855 31.9672 38.1113 31.7184C37.6137 31.4695 37.183 31.2207 36.8672 30.9719C36.5131 30.7135 36.2451 30.4455 36.0537 30.168C35.8623 29.8809 35.7666 29.565 35.7666 29.2109C35.7666 28.8856 35.8518 28.5889 36.025 28.3209C36.1982 28.0529 36.4365 27.8328 36.7428 27.6414C37.049 27.45 37.4318 27.3065 37.8912 27.2012C38.341 27.0959 38.8387 27.0481 39.4225 27.0481C39.8244 27.0481 40.2455 27.0777 40.6666 27.138C41.1068 27.1983 41.5566 27.2911 42.0064 27.4156C42.4563 27.54 42.8965 27.6931 43.3463 27.8845C43.7674 28.0759 44.1598 28.296 44.4947 28.5448V24.0468C43.7674 23.7693 42.9635 23.5587 42.1021 23.4247C41.2408 23.2907 40.2838 23.2238 39.1354 23.2238C37.9869 23.2238 36.9342 23.3482 35.8814 23.5874C34.8287 23.8267 33.9674 24.2095 33.2018 24.7359C32.4266 25.2527 31.8619 25.8843 31.3834 26.7456C30.9336 27.5495 30.7135 28.4683 30.7135 29.6167C30.7135 31.0523 31.125 32.2964 31.9576 33.2534C32.7807 34.3062 34.0631 35.0718 35.69 35.8374C36.3504 36.1054 36.9342 36.3734 37.5084 36.6318C38.0826 36.8902 38.5611 37.1581 38.9439 37.4357C39.3555 37.7132 39.6809 38.0195 39.901 38.3448C40.1402 38.6702 40.2646 39.0531 40.2646 39.4933C40.2646 39.7995 40.19 40.0866 40.0445 40.3546C39.8991 40.6226 39.6713 40.8523 39.365 41.0437C39.0588 41.2351 38.6855 41.3882 38.2166 41.5031C37.7668 41.6083 37.2596 41.6658 36.5896 41.6658C35.5369 41.6658 34.4842 41.4839 33.5271 41.1202C32.4744 40.7566 31.5174 40.2111 30.6561 39.4933L30.8379 39.4512ZM22.7988 27.6797H28.9238V23.7559H11.793V27.6797H17.918V45.1934H22.7988V27.6797Z" fill="white"/>
</g>
<defs>
<clipPath id="clip0_201:117">
<rect width="49" height="49" fill="white" transform="translate(0.5 0.5)"/>
</clipPath>
</defs>
</svg>
