<svg width="58" height="56" viewBox="0 0 58 56" fill="none" xmlns="http://www.w3.org/2000/svg">
<path d="M53.6562 9.65521H4.34377C1.9447 9.65521 0 11.5329 0 13.8492V42.151C0 44.4672 1.9447 46.3449 4.34377 46.3449H53.6562C56.0552 46.3449 58 44.4673 58 42.151V13.8492C58 11.5329 56.0553 9.65521 53.6562 9.65521Z" fill="#41479B"/>
<path d="M57.9398 13.1559C57.5975 11.1697 55.8105 9.65509 53.6562 9.65509H52.526L34 21.3743V9.6552H24V21.3744L5.47398 9.6552H4.34377C2.1895 9.6552 0.402488 11.1697 0.0601523 13.156L15.8944 23.1725H0V32.8277H15.8944L0.0601523 42.8441C0.402488 44.8302 2.1895 46.3448 4.34377 46.3448H5.47398L24 34.6256V46.3448H34V34.6256L52.526 46.3448H53.6562C55.8105 46.3448 57.5975 44.8303 57.9398 42.8441L42.1056 32.8275H58V23.1723H42.1056L57.9398 13.1559Z" fill="#F5F5F5"/>
<path d="M32 9.65521H26V25.1034H0V30.8966H26V46.3448H32V30.8966H58V25.1034H32V9.65521Z" fill="#FF4B55"/>
<path d="M2.80857 46.0745L23.9449 32.8276H20.2714L1.04489 44.8777C1.51535 45.4078 2.11993 45.8232 2.80857 46.0745Z" fill="#FF4B55"/>
<path d="M39.2393 32.8276H35.5658L56.0375 45.6579C56.6104 45.2946 57.0884 44.804 57.4294 44.2278L39.2393 32.8276Z" fill="#FF4B55"/>
<path d="M0.458679 11.9739L18.3265 23.1725H22L1.75303 10.4828C1.20939 10.8735 0.764538 11.3843 0.458679 11.9739Z" fill="#FF4B55"/>
<path d="M37.6735 23.1724L56.9353 11.1002C56.4596 10.5718 55.8503 10.1588 55.1569 9.91235L34 23.1724H37.6735Z" fill="#FF4B55"/>
</svg>
