<svg width="1966" height="1159" viewBox="0 0 1966 1159" fill="none" xmlns="http://www.w3.org/2000/svg">
<path fill-rule="evenodd" clip-rule="evenodd" d="M752.278 4.59781C747.394 9.48881 714.243 58.9708 697.752 85.9838C649.051 165.757 609.397 246.698 575.811 334.885C566.448 359.468 559.062 380.941 546.647 419.674C507.452 541.948 484.145 636.783 441.65 846.885C401.698 1044.41 400.829 1048.52 393.89 1072.88C389.324 1088.91 379.577 1117.47 376.913 1122.62C375.17 1125.99 371.075 1128.81 369.044 1128.03C366.634 1127.1 358.11 1113.28 354.22 1103.99C345.011 1081.99 332.687 1039.31 326.024 1006.35C313.556 944.667 305.155 877.37 297.068 774.385C290.458 690.206 288.48 655.39 286.039 580.268C284.564 534.882 283.368 517.061 281.347 510.385C278.478 500.901 271.232 496.701 259.443 497.69C246.133 498.805 240.839 504.172 234.673 522.795C228.151 542.496 212.441 602.706 201.52 649.857C183.429 727.963 172.519 769.918 158.995 813.385C144.848 858.854 137.429 878.189 125.997 899.385C111.236 926.754 102.732 935.68 97.2212 929.589C92.6172 924.502 81.7122 895.912 76.5452 875.385C66.9672 837.326 60.1672 795.17 51.0612 717.385C37.4362 600.999 32.1912 508.159 35.4682 441.385C37.3422 403.216 37.8942 369.236 36.6902 366.187C35.0342 361.992 31.4712 360.249 24.3492 360.148C9.93221 359.944 7.0532 365.327 4.1362 397.937C-2.6118 473.361 0.156204 566.774 12.5782 682.885C25.1662 800.543 37.8522 871.136 54.5472 916.415C62.4582 937.87 71.5152 948.32 86.6192 953.417C91.9792 955.226 94.7652 955.523 103.536 955.221C113.17 954.889 114.655 954.561 121.536 951.245C131.376 946.504 136.209 942.147 143.955 931.038C175.419 885.909 197.49 819.177 236.612 650.885C243.101 622.968 246.434 612.586 249.202 611.663C250.704 611.162 251.153 615.986 253.555 658.385C257.183 722.415 262.477 790.368 269.057 857.385C280.699 975.936 300.636 1071.1 323.201 1115.83C334.428 1138.08 345.505 1151.29 356.491 1155.54C364.018 1158.44 377.376 1159.15 384.654 1157.04C391.789 1154.96 398.92 1150.14 402.433 1145.02C407.142 1138.15 416.989 1115.75 421.838 1100.88C434.694 1061.46 435.618 1057.29 479.133 842.504C507.683 701.578 526.647 619.402 551.392 529.385C561.317 493.278 577.617 438.296 583.558 420.885L586.629 411.885L586.07 425.885C583.816 482.347 583.495 520.478 584.039 667.385C584.402 765.516 585.003 828.3 585.601 830.562C587.844 839.043 599.607 843.59 609.852 839.936C617.825 837.093 618.47 835.883 629.568 802.943C644.774 757.81 653.408 737.195 664.784 718.855C672.463 706.475 678.461 700.13 682.079 700.558C687.892 701.247 690.014 708.409 694.011 740.839C697.284 767.395 702.292 782.268 710.71 790.438C724.789 804.102 758.823 796.216 783.646 773.539L790.036 767.701L790.237 775.784C790.632 791.615 795.721 804.4 805.082 813.079C823.495 830.149 855.108 827.164 875.536 806.425C879.661 802.237 884.51 797.14 886.312 795.098C889.443 791.549 889.868 791.385 895.925 791.385C905.212 791.385 912.15 789.822 920.036 785.953C932.56 779.809 948.905 763.778 954.983 751.677C958.056 745.56 958.57 736.719 955.912 735.699C954.963 735.335 953.934 735.71 953.435 736.601C950.688 741.51 942.082 751.951 935.067 758.885C925.359 768.481 913.209 775.385 906.03 775.385C898.481 775.385 897.149 771.926 900.056 759.885C901.924 752.149 901.939 735.43 900.085 726.62C895.807 706.282 887.653 696.927 871.982 694.376C859.869 692.405 837.695 696.809 825.801 703.548C817.99 707.974 809.678 716.884 804.118 726.791C800.12 733.914 796.454 738.319 784.129 750.809C770.939 764.176 768.069 766.577 761.365 769.858C754.233 773.347 753.177 773.585 746.36 773.241C737.782 772.808 733.655 770.499 730.537 764.387C727.285 758.012 726.517 752.175 726.09 730.572C725.646 708.124 723.955 695.087 720.647 688.602C716.567 680.605 707.546 676.42 694.335 676.397C678.436 676.369 666.067 681.701 654.026 693.774C645.214 702.609 639.486 711.247 627.093 734.385C622.822 742.36 618.924 749.312 618.432 749.835C616.4 751.99 618.004 721.516 621.563 690.364C623.848 670.357 627.171 649.109 634.932 604.885C647.281 534.521 660.605 436.466 665.032 383.385C667.233 356.991 668.032 318.4 666.679 303.84C664.748 283.07 659.731 268.262 651.664 259.524L647.674 255.202L655.226 239.044C682.199 181.324 713.282 124.932 750.322 66.5128C773.55 29.8788 779.841 15.0078 776.394 4.88481L775.032 0.884814L765.795 0.597814L756.558 0.309814L752.278 4.59781ZM1747.04 258.906C1729.73 261.728 1717.12 268.703 1701.18 284.262C1681.51 303.452 1669.57 322.35 1660.01 349.385C1656.96 358.021 1656.21 361.699 1655.79 370.105L1655.28 380.325L1658.69 383.74C1663.24 388.288 1671.57 390.233 1676.92 387.997C1681.89 385.922 1684 381.858 1687.08 368.467C1694.61 335.756 1708.31 312.744 1732.49 292.195C1755.71 272.46 1767.55 271.82 1785.85 289.31C1796.85 299.818 1807.9 317.253 1814.53 334.577C1817.75 342.973 1825.12 368.546 1828.89 384.385C1839.61 429.453 1844.95 484.485 1846.22 562.885C1847.11 617.571 1844.32 672.893 1837.56 734.885C1835.94 749.735 1834.12 766.61 1833.51 772.385C1831.46 792.025 1828.48 798.823 1815.21 814.189C1782.68 851.864 1757.69 890.123 1733.1 939.885C1718.18 970.091 1710.09 991.744 1703.14 1020.13C1694.45 1055.63 1694.62 1081.51 1703.67 1098.48C1708.88 1108.25 1715.21 1111.38 1729.77 1111.38C1744.12 1111.38 1751.74 1107.57 1762.16 1095.17C1771.43 1084.14 1779.46 1071.07 1789.91 1049.98C1815.47 998.411 1842.07 913.764 1857.5 834.885C1859.23 826.085 1861.35 816.41 1862.21 813.385C1870.54 784.386 1905.65 749.633 1949.04 727.455C1963.4 720.112 1966.07 718.224 1965.22 716.013C1964.34 713.712 1954.41 713.849 1947.41 716.258C1939.84 718.861 1900.07 739.743 1888.44 747.216C1877.92 753.976 1874.07 754.909 1872.6 751.051C1871.68 748.634 1872.39 737.055 1875 711.93C1881.01 654.018 1883.62 588.509 1881.63 545.885C1877.01 446.985 1871.79 404.137 1858.94 359.647C1848.74 324.323 1837.83 302.351 1821.15 283.541C1809.8 270.727 1798.74 263.484 1785.04 259.887C1776.36 257.609 1757.91 257.132 1747.04 258.906ZM646.266 291.499C652.314 304.158 649.341 365.415 636.978 482.885C633.515 515.793 620.932 619.538 620.059 622.385C619.346 624.708 620.426 551.046 621.539 521.385C625.766 408.789 630.097 325.819 632.606 309.385C634.8 295.014 638.298 287.923 642.869 288.578C644.051 288.747 645.579 290.061 646.266 291.499ZM1439.92 674.356C1422.91 676.942 1405.09 687.685 1396.87 700.304C1388.59 713.01 1386.89 713.287 1380.4 702.974C1374.51 693.606 1368.86 689.901 1360.55 689.953C1354.42 689.991 1350.42 691.702 1343.66 697.183C1337.99 701.778 1332.68 709.07 1322.18 726.674C1313.39 741.418 1310.19 745.441 1308.56 743.811C1308.05 743.302 1307.14 739.51 1306.52 735.385C1305.91 731.26 1305.17 726.314 1304.88 724.394C1303.42 714.699 1285.4 707.431 1278.91 713.918C1276.39 716.441 1276.38 716.506 1276.64 732.459L1276.9 748.467L1266.62 760.476C1248.45 781.718 1233.37 792.409 1221.65 792.363C1214.42 792.335 1208.91 789.803 1204.26 784.38C1198.18 777.274 1197.03 772.347 1197.05 753.385C1197.06 740.908 1197.6 733.707 1199.29 723.85C1200.52 716.681 1201.6 707.108 1201.68 702.577C1201.83 695.143 1201.61 694.087 1199.44 691.767C1194.31 686.272 1188.46 685.088 1180.44 687.919C1174.88 689.881 1171.79 692.816 1170.4 697.453L1169.29 701.141L1161.16 697.344C1150.23 692.235 1142.46 690.385 1131.96 690.385C1112.1 690.385 1091.6 699.778 1073.26 717.284C1060.95 729.029 1053.53 741.659 1048.14 760.064C1039.6 789.227 1045.91 812.318 1064.87 821.275C1073.69 825.444 1085.25 827.784 1092.87 826.946C1119.92 823.973 1136.63 810.299 1156.46 774.921L1161.24 766.402L1162.44 774.988C1164.57 790.265 1169.9 801.592 1177.38 806.778C1184.84 811.946 1191.9 813.693 1205.04 813.617C1233.17 813.453 1254.01 802.204 1271.35 777.833C1277.38 769.353 1277.54 769.216 1277.61 772.507C1277.64 774.365 1278 783.642 1278.4 793.123C1279.21 812.398 1279.84 814.23 1286.77 817.68C1291.26 819.912 1299.09 819.14 1303.84 815.996C1307.93 813.291 1315.71 798.397 1326.11 773.385C1335.54 750.715 1343.83 733.795 1347.3 730.135C1350.29 726.986 1353.05 726.597 1354.4 729.135C1354.91 730.097 1355.49 743.26 1355.68 758.385C1356.01 783.97 1356.18 786.129 1358.09 789.383C1360.73 793.881 1363.75 795.352 1370.39 795.37C1380.85 795.399 1385.45 791.25 1390.33 777.385C1407.01 730.002 1424.24 698.013 1434.09 696.13C1437.94 695.394 1442.08 697.638 1444.27 701.652C1446.72 706.137 1446.59 726.506 1444 743.885C1442.62 753.174 1442.06 762.309 1442.05 775.885C1442.04 792.85 1442.28 795.654 1444.3 802.069C1447.28 811.547 1451.61 817.093 1459.01 820.875C1464.28 823.57 1465.85 823.885 1473.97 823.88C1491.04 823.872 1504.01 816.921 1527.69 795.077C1553.83 770.969 1569.2 752.175 1567.15 746.83C1566.65 745.511 1566.17 745.513 1562.97 746.848C1558.36 748.774 1545.15 759.086 1533.84 769.58C1529 774.077 1520.31 781.494 1514.54 786.062C1493.11 803.011 1481.59 805.707 1475.81 795.126C1473.22 790.39 1473.5 769.403 1476.41 749.885C1479.26 730.714 1480.3 705.815 1478.56 698.332C1476.77 690.648 1472.68 683.508 1468.21 680.268C1461.25 675.22 1449.87 672.842 1439.92 674.356ZM1144.86 712.88C1149.52 714.096 1157.82 717.553 1159.38 718.934C1160.29 719.737 1155.8 732.033 1151 741.885C1137.94 768.717 1119.41 792.453 1104.82 801.051C1096.65 805.863 1087.49 804.202 1083.55 797.196C1081.63 793.777 1081.26 791.661 1081.27 784.005C1081.28 769.479 1086.09 753.375 1094.91 738.385C1101.8 726.676 1112.9 716.724 1123.36 712.878C1128.31 711.056 1137.86 711.057 1144.86 712.88ZM867.469 715.544C873.779 722.316 875.888 746.531 871.149 757.795L869.505 761.704L866.925 759.295C857.125 750.14 853.306 727.376 859.898 717.414C862.917 712.852 864.579 712.441 867.469 715.544ZM829.983 742.031C831.279 747.194 837.546 758.978 842.404 765.385C846.129 770.298 856.783 780.195 861.343 782.978C862.319 783.574 856.597 793.213 852.684 797.565C847.95 802.831 838.218 808.383 833.72 808.384C824.887 808.387 819.436 796.949 819.423 778.383C819.419 772.516 820.139 764.38 821.055 759.946C822.79 751.548 827.214 739.385 828.534 739.385C828.966 739.385 829.618 740.576 829.983 742.031ZM1809.05 897.256C1789.76 974.937 1765.87 1039.2 1743.95 1072.37C1738.16 1081.13 1734.79 1083.09 1731.39 1079.68C1729.45 1077.74 1729.28 1076.49 1729.32 1064.23C1729.36 1046.41 1733.29 1026.73 1741.97 1000.88C1756.5 957.602 1775.75 921.089 1804.8 881.719C1813.15 870.41 1814.06 869.481 1814.32 872.046C1814.48 873.608 1812.11 884.952 1809.05 897.256Z" fill="black"/>
</svg>
