<svg width="68" height="68" fill="none" xmlns="http://www.w3.org/2000/svg"><path d="M60.216 34a44.106 44.106 0 001.77-1.668c5.347-5.336 7.214-10.21 5.257-13.725-1.126-2.023-4.008-4.435-11.34-4.435-2.794 0-5.919.353-9.245 1.015a43.997 43.997 0 00-1.618-4.699C42.243 3.725 38.322 0 34 0c-4.322 0-8.242 3.725-11.04 10.488a43.842 43.842 0 00-1.618 4.7c-3.326-.663-6.451-1.016-9.246-1.016-7.33 0-10.213 2.412-11.34 4.435-1.956 3.515-.089 8.389 5.258 13.725A45.492 45.492 0 007.784 34a44.106 44.106 0 00-1.77 1.668C.667 41.004-1.2 45.878.757 49.393c1.126 2.023 4.008 4.435 11.34 4.435 2.794 0 5.918-.354 9.245-1.016a43.997 43.997 0 001.618 4.7C25.758 64.275 29.678 68 34 68c4.322 0 8.243-3.725 11.04-10.488a43.825 43.825 0 001.618-4.7c3.327.662 6.452 1.015 9.246 1.016h.002c7.329 0 10.21-2.412 11.337-4.435 1.957-3.515.09-8.389-5.256-13.725A44.571 44.571 0 0060.215 34zm-4.312-16.837c4.422 0 7.41.994 8.415 2.798 1.276 2.292-.457 6.065-4.754 10.354a42.18 42.18 0 01-1.757 1.65c-2.675-2.129-5.763-4.21-9.149-6.17a66.18 66.18 0 00-1.253-7.682c3.09-.616 5.973-.95 8.498-.95zm-16.56 26.434A95.56 95.56 0 0134 45.874a95.4 95.4 0 01-11.534-5.42A76.69 76.69 0 0122.198 34c0-2.239.094-4.395.268-6.454a95.198 95.198 0 0111.535-5.42 95.494 95.494 0 0111.534 5.42c.174 2.06.268 4.215.268 6.455 0 2.239-.094 4.395-.268 6.454a95.411 95.411 0 01-6.191 3.143zm5.78.55a60.879 60.879 0 01-.907 5.02 80.351 80.351 0 01-5.975-1.754c.862-.37 1.725-.75 2.587-1.15a99.39 99.39 0 004.294-2.117zm-15.366 3.266a80.368 80.368 0 01-5.974 1.754 60.802 60.802 0 01-.907-5.02c1.395.729 2.827 1.437 4.295 2.117.862.4 1.724.779 2.586 1.15zM19.043 38.45A69.355 69.355 0 0112.628 34c1.929-1.518 4.083-3.01 6.415-4.45a80.569 80.569 0 00-.125 4.45c0 1.5.044 2.986.125 4.45zm3.834-14.597c.245-1.763.55-3.44.906-5.02a80.495 80.495 0 015.975 1.754c-.862.37-1.724.75-2.586 1.149a99.74 99.74 0 00-4.295 2.117zm15.365-3.266a80.351 80.351 0 015.975-1.754 60.76 60.76 0 01.906 5.02 100.092 100.092 0 00-4.295-2.117c-.862-.4-1.724-.779-2.586-1.15zm10.715 8.963c2.332 1.44 4.487 2.932 6.416 4.45a69.51 69.51 0 01-6.416 4.45c.08-1.464.126-2.949.126-4.45a80.56 80.56 0 00-.126-4.45zM34 2.991c3.453 0 7.149 4.873 9.467 12.913A86.041 86.041 0 0034 18.877a85.943 85.943 0 00-9.466-2.973C26.852 7.864 30.548 2.991 34 2.991zM8.435 30.315c-4.297-4.289-6.03-8.062-4.754-10.354 1.005-1.804 3.994-2.797 8.415-2.797 2.526 0 5.408.333 8.498.95a66.254 66.254 0 00-1.253 7.68c-3.386 1.96-6.474 4.042-9.149 6.172a42.83 42.83 0 01-1.757-1.651zm3.661 20.521c-4.422 0-7.41-.993-8.415-2.798-1.276-2.291.457-6.064 4.754-10.353a42.514 42.514 0 011.757-1.651c2.675 2.13 5.763 4.211 9.15 6.17a66.18 66.18 0 001.252 7.682c-3.09.617-5.972.95-8.498.95zM34 65.008c-3.452 0-7.148-4.872-9.466-12.912A85.967 85.967 0 0034 49.121a85.93 85.93 0 009.467 2.973c-2.319 8.04-6.014 12.913-9.467 12.913zm30.319-16.97c-1.005 1.805-3.992 2.798-8.413 2.798h-.002c-2.525 0-5.408-.334-8.498-.95.55-2.426.971-5.002 1.253-7.681 3.386-1.96 6.474-4.041 9.149-6.171.617.55 1.205 1.1 1.757 1.651 4.297 4.288 6.03 8.062 4.754 10.353zM41.209 34c0 3.625-3.234 6.574-7.209 6.574-3.975 0-7.209-2.949-7.209-6.574s3.234-6.574 7.21-6.574c3.974 0 7.209 2.949 7.209 6.574z" fill="#C8E7F0"/></svg>