<svg width="50" height="50" fill="none" xmlns="http://www.w3.org/2000/svg"><g clip-path="url(#clip0_201:117)"><path d="M44.715.5H5.285A4.785 4.785 0 00.5 5.285v39.43A4.785 4.785 0 005.285 49.5h39.43a4.785 4.785 0 004.785-4.785V5.285A4.785 4.785 0 0044.715.5z" fill="#ABC8E9"/><path fill-rule="evenodd" clip-rule="evenodd" d="M30.838 39.451v4.785c.775.402 1.722.699 2.775.9 1.053.2 2.202.297 3.35.297a15.63 15.63 0 003.254-.326 8.256 8.256 0 002.68-1.053c.775-.507 1.435-1.148 1.818-2.01.383-.86.68-1.818.68-3.062 0-.87-.135-1.627-.393-2.297a4.508 4.508 0 00-1.149-1.722 7.602 7.602 0 00-1.722-1.34 21.37 21.37 0 00-2.297-1.149c-.632-.258-1.149-.507-1.723-.756-.497-.248-.928-.497-1.244-.746a3.417 3.417 0 01-.813-.804 1.68 1.68 0 01-.287-.957c0-.325.085-.622.258-.89s.412-.488.718-.68c.306-.191.689-.334 1.148-.44.45-.105.948-.153 1.532-.153.401 0 .822.03 1.244.09a10.627 10.627 0 012.68.746c.42.192.813.412 1.148.66v-4.497a11.824 11.824 0 00-2.393-.622c-.861-.134-1.818-.201-2.967-.201-1.148 0-2.2.124-3.254.363-1.052.24-1.914.622-2.68 1.149-.774.517-1.34 1.148-1.818 2.01-.45.803-.67 1.722-.67 2.87 0 1.436.412 2.68 1.245 3.637.823 1.053 2.105 1.819 3.732 2.584.66.268 1.244.536 1.818.795a8.161 8.161 0 011.436.804c.411.277.737.584.957.909.24.325.364.708.364 1.148 0 .306-.075.594-.22.862a1.882 1.882 0 01-.68.689c-.306.191-.68.344-1.148.46-.45.104-.957.162-1.627.162a8.675 8.675 0 01-3.063-.546 9.093 9.093 0 01-2.87-1.627l.18-.042zm-8.04-11.771h6.126v-3.924H11.793v3.924h6.125v17.513h4.88V27.68z" fill="#fff"/></g><defs><clipPath id="clip0_201:117"><path fill="#fff" transform="translate(.5 .5)" d="M0 0h49v49H0z"/></clipPath></defs></svg>