<svg width="20" height="20" fill="none" xmlns="http://www.w3.org/2000/svg"><g clip-path="url(#clip0_6:406)" fill="#000"><path d="M7.214 16.08c-.14.027-.2.092-.183.196.018.104.096.139.235.104.139-.035.2-.095.182-.182-.017-.096-.095-.135-.234-.117zm-.743.105c-.139 0-.208.048-.208.143 0 .113.074.16.221.143.14 0 .209-.047.209-.143 0-.113-.074-.16-.222-.143zm-1.015-.039c-.035.095.022.16.169.195.13.052.213.026.247-.078.027-.096-.03-.165-.169-.209-.13-.034-.212-.004-.247.092z"/><path d="M18.9 1.1C18.166.367 17.283 0 16.25 0H3.75C2.717 0 1.834.367 1.1 1.1.367 1.834 0 2.717 0 3.75v12.5c0 1.033.367 1.916 1.1 2.65.734.733 1.617 1.1 2.65 1.1h2.917c.19 0 .334-.007.43-.02a.505.505 0 00.286-.169c.095-.1.143-.245.143-.436l-.007-.886c-.004-.564-.006-1.01-.006-1.34l-.3.051c-.19.035-.432.05-.723.046a5.547 5.547 0 01-.904-.091 2.028 2.028 0 01-.873-.39 1.652 1.652 0 01-.573-.802l-.13-.3A3.26 3.26 0 003.6 15c-.187-.243-.375-.408-.566-.495l-.092-.065a.959.959 0 01-.169-.156.723.723 0 01-.117-.183c-.026-.06-.004-.11.065-.15.07-.039.195-.058.378-.058l.26.04c.174.034.389.138.645.312.256.173.466.399.631.676.2.356.44.628.723.814.282.187.566.28.853.28.286 0 .533-.021.742-.065a2.57 2.57 0 00.586-.195c.078-.582.29-1.029.638-1.341a8.933 8.933 0 01-1.335-.235 5.324 5.324 0 01-1.224-.508A3.503 3.503 0 014.57 12.8c-.278-.348-.506-.803-.684-1.367-.177-.565-.266-1.216-.266-1.954 0-1.05.343-1.944 1.028-2.682-.321-.79-.29-1.675.091-2.656.252-.078.625-.02 1.12.176.495.195.857.362 1.087.501.23.139.415.256.554.352a9.243 9.243 0 012.5-.34c.86 0 1.693.113 2.5.339l.495-.313c.339-.208.738-.4 1.198-.573.46-.173.812-.221 1.055-.143.39.981.425 1.866.104 2.656.685.738 1.028 1.632 1.028 2.683 0 .737-.089 1.39-.267 1.96-.177.568-.407 1.024-.69 1.367a3.642 3.642 0 01-1.054.865 5.312 5.312 0 01-1.224.508c-.395.104-.84.183-1.335.235.451.39.677 1.006.677 1.849v3.112a.83.83 0 00.065.358.36.36 0 00.208.189c.096.034.18.056.255.064.073.01.18.014.319.014h2.916c1.033 0 1.916-.367 2.65-1.1.733-.734 1.1-1.618 1.1-2.65V3.75c0-1.033-.367-1.916-1.1-2.65z"/><path d="M3.958 14.557c-.06.043-.052.113.026.208.087.087.157.1.209.04.06-.044.052-.113-.026-.209-.087-.078-.157-.091-.209-.039zm-.429-.325c-.026.06.004.113.09.156.07.044.127.035.17-.026.026-.06-.004-.113-.091-.156-.087-.026-.143-.018-.17.026zm.833.833c-.078.043-.078.122 0 .234.078.114.152.144.221.092.079-.061.079-.144 0-.248-.069-.113-.143-.139-.22-.078zm.456.585c-.078.07-.061.153.052.248.104.104.19.117.26.04.07-.07.052-.152-.052-.248-.104-.104-.19-.117-.26-.04z"/></g><defs><clipPath id="clip0_6:406"><path fill="#fff" d="M0 0h20v20H0z"/></clipPath></defs></svg>