<svg width="32" height="32" fill="none" xmlns="http://www.w3.org/2000/svg"><g clip-path="url(#clip0_201:5)"><path d="M31.377 9.79a.938.938 0 00-.003-1.768L16.312 2.708a.937.937 0 00-.624 0L.626 8.022A.937.937 0 00.624 9.79l5.966 2.12v6.116c0 1.01 1.053 1.863 3.13 2.537 1.81.588 4.04.911 6.28.911s4.47-.323 6.28-.91c2.077-.675 3.13-1.528 3.13-2.538v-6.115l2.463-.876v8.474a2.825 2.825 0 00-1.882 2.66c0 1.226.787 2.272 1.882 2.659v3.58a.937.937 0 101.875 0v-3.58a2.825 2.825 0 001.883-2.66 2.825 2.825 0 00-1.883-2.659v-9.14l1.628-.58zM28.81 23.114a.946.946 0 010-1.89.946.946 0 010 1.89zM16 4.586L28.254 8.91 16 13.266 3.746 8.91 16 4.586zm7.535 13.299c-.18.181-.823.615-2.275 1.03-1.549.44-3.417.684-5.26.684s-3.711-.243-5.26-.685c-1.452-.414-2.095-.848-2.275-1.029v-5.308l7.22 2.567a.938.938 0 00.629 0l7.22-2.567v5.308z" fill="#fff"/></g><defs><clipPath id="clip0_201:5"><path fill="#fff" d="M0 0h32v32H0z"/></clipPath></defs></svg>