<svg width="20" height="20" fill="none" xmlns="http://www.w3.org/2000/svg"><g clip-path="url(#clip0_6:432)"><path d="M.353 9.643l4.609 1.72 1.784 5.736a.542.542 0 00.861.26l2.569-2.094c.27-.22.653-.23.934-.026l4.633 3.363c.32.232.771.058.851-.328l3.394-16.326a.543.543 0 00-.727-.617L.348 8.627a.544.544 0 00.005 1.016zm6.105.804L15.465 4.9c.161-.1.328.12.189.249l-7.433 6.909a1.54 1.54 0 00-.478.922l-.253 1.876c-.033.25-.385.276-.454.033l-.974-3.421a.907.907 0 01.396-1.02z" fill="#000"/></g><defs><clipPath id="clip0_6:432"><path fill="#fff" d="M0 0h20v20H0z"/></clipPath></defs></svg>