<svg width="70" height="70" fill="none" xmlns="http://www.w3.org/2000/svg"><rect width="70" height="70" rx="10" fill="#4D4D4D"/><path d="M26.686 59.752c4.59 0 8.314-3.696 8.314-8.25V43.25h-8.314c-4.588 0-8.313 3.696-8.313 8.25 0 4.555 3.724 8.25 8.313 8.25z" fill="#0ACF83"/><path d="M18.373 35c0-4.554 3.724-8.25 8.313-8.25H35v16.5h-8.314c-4.588 0-8.313-3.696-8.313-8.25z" fill="#A259FF"/><path d="M18.373 18.499c0-4.555 3.725-8.25 8.314-8.25H35v16.5h-8.313c-4.59 0-8.314-3.696-8.314-8.25z" fill="#F24E1E"/><path d="M35 10.248h8.313c4.59 0 8.314 3.696 8.314 8.25 0 4.555-3.724 8.251-8.314 8.251H35v-16.5z" fill="#FF7262"/><path d="M51.627 35c0 4.554-3.724 8.25-8.314 8.25C38.724 43.25 35 39.555 35 35s3.724-8.25 8.313-8.25c4.59 0 8.314 3.696 8.314 8.25z" fill="#1ABCFE"/></svg>