<svg width="62" height="58" fill="none" xmlns="http://www.w3.org/2000/svg"><path d="M42.63 40.355c2.224-.23 3.912-2.148 3.836-4.45-.077-2.302-1.995-4.143-4.297-4.143h-.153c-2.379.077-4.22 2.071-4.143 4.45.077 1.15.537 2.148 1.227 2.838-2.608 5.14-6.598 8.9-12.582 12.046-4.066 2.148-8.286 2.915-12.506 2.378-3.452-.46-6.137-1.995-7.825-4.526-2.455-3.76-2.685-7.826-.614-11.892 1.458-2.916 3.76-5.064 5.217-6.138-.307-.997-.767-2.685-.997-3.913-11.125 8.056-9.974 18.95-6.598 24.09 2.532 3.837 7.672 6.215 13.35 6.215 1.534 0 3.068-.153 4.603-.537 9.82-1.918 17.262-7.749 21.482-16.418z" fill="#BB99F1"/><path d="M56.133 30.841c-5.831-6.828-14.424-10.587-24.244-10.587H30.66c-.69-1.381-2.148-2.302-3.76-2.302h-.153c-2.378.077-4.22 2.072-4.143 4.45.077 2.302 1.995 4.143 4.297 4.143h.153a4.322 4.322 0 003.76-2.609h1.38c5.831 0 11.355 1.688 16.342 4.987 3.836 2.532 6.598 5.831 8.133 9.82 1.304 3.223 1.227 6.368-.154 9.054-2.148 4.066-5.754 6.29-10.51 6.29-3.07 0-5.985-.92-7.52-1.61-.843.767-2.378 1.995-3.452 2.762 3.3 1.534 6.675 2.378 9.897 2.378 7.366 0 12.813-4.066 14.884-8.132 2.225-4.45 2.072-12.122-3.682-18.644z" fill="#BB99F1"/><path d="M17.158 41.659c.077 2.302 1.995 4.143 4.296 4.143h.154c2.378-.077 4.22-2.072 4.143-4.45-.077-2.301-1.995-4.143-4.297-4.143h-.153c-.153 0-.384 0-.537.077-3.146-5.217-4.45-10.895-3.99-17.032.307-4.604 1.842-8.593 4.527-11.892 2.225-2.839 6.521-4.22 9.437-4.296 8.132-.154 11.585 9.973 11.815 14.04.997.23 2.685.767 3.836 1.15C45.469 6.828 37.796.383 30.43.383c-6.905 0-13.273 4.987-15.805 12.352-3.529 9.82-1.227 19.257 3.07 26.7-.385.536-.615 1.38-.538 2.224z" fill="#BB99F1"/></svg>