<svg width="68" height="52" fill="none" xmlns="http://www.w3.org/2000/svg"><path d="M58.177 29.728a13.803 13.803 0 00-6.073 1.413c-.628-1.243-1.256-2.33-1.36-3.14-.118-.943-.262-1.519-.118-2.644.144-1.126.798-2.722.798-2.853-.013-.118-.144-.694-1.492-.707-1.348-.013-2.513.262-2.644.615a15.03 15.03 0 00-.562 2.003c-.236 1.23-2.696 5.588-4.097 7.878-.458-.89-.85-1.675-.929-2.303-.118-.943-.262-1.519-.118-2.644.144-1.126.799-2.722.799-2.853-.013-.118-.144-.694-1.492-.707-1.348-.013-2.513.262-2.644.615-.13.354-.274 1.191-.562 2.003-.275.811-3.547 8.088-4.398 9.985-.432.969-.811 1.74-1.086 2.264-.275.524-.013.04-.04.092l-.366.694v.013c-.183.327-.38.64-.471.64-.065 0-.196-.876.026-2.08.484-2.526 1.662-6.465 1.65-6.609 0-.065.222-.759-.76-1.112-.955-.354-1.295.235-1.374.235-.079 0-.144.21-.144.21s1.06-4.437-2.028-4.437c-1.937 0-4.607 2.107-5.929 4.031-.838.458-2.617 1.427-4.502 2.46-.72.393-1.466.812-2.172 1.191l-.144-.157C12.202 29.833 5.279 27.006 5.567 21.64c.104-1.95.785-7.093 13.296-13.323 10.247-5.104 18.453-3.703 19.88-.589 2.028 4.45-4.385 12.721-15.037 13.912-4.057.458-6.19-1.112-6.727-1.701-.563-.615-.642-.642-.85-.524-.341.183-.132.733 0 1.06.313.825 1.622 2.29 3.847 3.023 1.95.642 6.713.995 12.472-1.23 6.452-2.5 11.49-9.436 10.011-15.233-1.505-5.902-11.294-7.84-20.546-4.554-5.51 1.963-11.478 5.025-15.77 9.043C1.039 16.287.227 20.449.567 22.177c1.192 6.164 9.685 10.181 13.088 13.152-.17.092-.328.183-.472.262-1.7.837-8.179 4.227-9.802 7.813-1.832 4.057.288 6.975 1.702 7.368 4.37 1.217 8.846-.968 11.268-4.567 2.407-3.6 2.12-8.271 1.007-10.405l-.04-.078 1.336-.785c.864-.51 1.714-.982 2.46-1.388-.419 1.139-.72 2.487-.877 4.45-.183 2.303.76 5.287 2.003 6.465.55.51 1.204.523 1.61.523 1.439 0 2.093-1.19 2.813-2.617.89-1.74 1.675-3.756 1.675-3.756s-.981 5.457 1.702 5.457c.981 0 1.963-1.27 2.408-1.924v.014s.026-.04.078-.131c.055-.082.107-.165.157-.249v-.026c.393-.68 1.27-2.238 2.578-4.816 1.688-3.324 3.311-7.486 3.311-7.486s.157 1.02.642 2.696c.287.995.916 2.08 1.4 3.14-.393.55-.628.865-.628.865l.013.013c-.314.419-.668.864-1.034 1.309-1.335 1.596-2.932 3.415-3.14 3.939-.25.615-.197 1.073.287 1.44.353.261.981.313 1.649.261 1.204-.078 2.042-.38 2.46-.563a8.516 8.516 0 002.12-1.112c1.31-.968 2.108-2.343 2.029-4.175-.04-1.007-.366-2.002-.772-2.944.118-.17.236-.34.353-.524 2.068-3.023 3.664-6.347 3.664-6.347s.158 1.02.642 2.696c.248.85.746 1.78 1.19 2.696-1.936 1.583-3.153 3.416-3.572 4.62-.772 2.224-.17 3.232.968 3.468.51.105 1.244-.131 1.793-.367A8.126 8.126 0 0050.9 39.4c1.31-.969 2.566-2.317 2.5-4.136-.04-.838-.262-1.662-.563-2.447 1.65-.68 3.782-1.073 6.491-.746 5.824.68 6.976 4.319 6.754 5.837-.223 1.518-1.44 2.355-1.846 2.617-.406.249-.536.34-.497.524.052.275.235.261.589.21.484-.08 3.062-1.244 3.167-4.045.157-3.6-3.259-7.525-9.318-7.486zM13.262 44.87c-1.924 2.107-4.633 2.905-5.785 2.224-1.243-.72-.759-3.821 1.61-6.059 1.44-1.36 3.311-2.617 4.541-3.39.275-.17.694-.418 1.191-.72a1.38 1.38 0 01.131-.078c.092-.052.197-.117.301-.183.877 3.193.04 5.994-1.989 8.206zm14.069-9.567c-.668 1.636-2.081 5.837-2.932 5.601-.733-.196-1.178-3.376-.144-6.517.524-1.584 1.636-3.468 2.29-4.201 1.06-1.178 2.212-1.57 2.5-1.087.34.629-1.296 5.183-1.714 6.204zm11.608 5.549c-.288.144-.55.248-.668.17-.091-.052.118-.248.118-.248s1.453-1.558 2.028-2.278c.328-.418.72-.903 1.14-1.452v.157c0 1.884-1.807 3.14-2.618 3.65zm8.951-2.042c-.21-.157-.183-.641.524-2.16.275-.601.903-1.609 1.989-2.564.13.392.21.772.196 1.125-.013 2.356-1.688 3.233-2.709 3.6z" fill="#FDD7EA"/></svg>