<svg width="32" height="32" fill="none" xmlns="http://www.w3.org/2000/svg"><g clip-path="url(#clip0_201:129)"><path d="M27.25 16c.266-.261.521-.523.76-.785 2.295-2.51 3.096-4.805 2.256-6.459-.483-.952-1.72-2.087-4.866-2.087-1.2 0-2.54.167-3.968.478a22.1 22.1 0 00-.694-2.211C19.538 1.753 17.855 0 16 0c-1.855 0-3.537 1.753-4.738 4.936-.26.687-.49 1.429-.694 2.211C9.14 6.836 7.799 6.67 6.6 6.67c-3.146 0-4.383 1.135-4.866 2.087-.84 1.654-.039 3.948 2.256 6.46.239.261.494.523.76.784-.266.261-.521.523-.76.785-2.295 2.511-3.096 4.805-2.256 6.459.483.952 1.72 2.087 4.866 2.087 1.2 0 2.54-.166 3.968-.478.204.782.435 1.524.694 2.212C12.462 30.247 14.145 32 16 32c1.855 0 3.538-1.753 4.738-4.935.26-.688.49-1.43.694-2.212 1.428.311 2.769.478 3.968.478 3.146 0 4.383-1.135 4.866-2.087.84-1.654.039-3.948-2.256-6.46a20.5 20.5 0 00-.76-.784zM25.4 8.077c1.898 0 3.18.468 3.612 1.317.547 1.078-.197 2.854-2.04 4.872-.238.259-.49.518-.755.777a32.347 32.347 0 00-3.926-2.904 33.919 33.919 0 00-.538-3.615c1.326-.29 2.563-.447 3.647-.447zm-7.107 12.44c-.761.386-1.529.743-2.293 1.071a39.163 39.163 0 01-4.95-2.55A39.511 39.511 0 0110.935 16c0-1.054.04-2.068.115-3.038a39.582 39.582 0 014.95-2.55 39.066 39.066 0 014.95 2.55c.075.97.115 1.984.115 3.038 0 1.054-.04 2.068-.115 3.037a39.687 39.687 0 01-2.657 1.48zm2.48.258c-.104.83-.235 1.619-.388 2.362a32.24 32.24 0 01-2.564-.825c.37-.174.74-.353 1.11-.54.63-.32 1.244-.654 1.843-.997zm-6.593 1.537c-.873.32-1.73.596-2.564.825a31.116 31.116 0 01-.39-2.362 41.474 41.474 0 002.954 1.537zm-4.6-4.218c-1-.677-1.925-1.38-2.753-2.094a29.839 29.839 0 012.753-2.094 41.555 41.555 0 000 4.188zm1.645-6.869c.106-.83.236-1.619.39-2.362.833.229 1.691.504 2.564.825-.37.174-.74.353-1.11.54-.63.32-1.245.654-1.844.997zm6.594-1.537c.873-.32 1.731-.596 2.564-.825.153.743.285 1.532.39 2.362a41.474 41.474 0 00-1.844-.996 41.6 41.6 0 00-1.11-.541zm4.599 4.218c1 .677 1.925 1.38 2.753 2.094a29.836 29.836 0 01-2.753 2.094 41.52 41.52 0 000-4.188zM16 1.408c1.482 0 3.068 2.293 4.063 6.076-1.31.358-2.675.827-4.063 1.4a34.562 34.562 0 00-4.063-1.4c.995-3.783 2.581-6.076 4.063-6.076zM5.03 14.266c-1.844-2.018-2.588-3.794-2.04-4.872.43-.85 1.713-1.317 3.611-1.317 1.084 0 2.32.157 3.647.447a33.962 33.962 0 00-.538 3.615 32.349 32.349 0 00-3.926 2.904 19.009 19.009 0 01-.754-.777zm1.57 9.657c-1.897 0-3.18-.468-3.61-1.317-.548-1.078.196-2.854 2.04-4.872.237-.259.49-.518.754-.777a32.349 32.349 0 003.926 2.904 33.93 33.93 0 00.538 3.615c-1.326.29-2.563.447-3.647.447zm9.4 6.67c-1.482 0-3.068-2.294-4.063-6.077a34.555 34.555 0 004.063-1.4 34.546 34.546 0 004.063 1.4c-.995 3.783-2.581 6.076-4.063 6.076zm13.011-7.987c-.43.85-1.713 1.317-3.61 1.317-1.085 0-2.322-.157-3.648-.447a33.93 33.93 0 00.538-3.615 32.347 32.347 0 003.926-2.904c.265.259.517.518.754.777 1.844 2.018 2.588 3.794 2.04 4.872zM19.094 16A3.097 3.097 0 0116 19.094 3.097 3.097 0 0112.906 16 3.097 3.097 0 0116 12.906 3.097 3.097 0 0119.094 16z" fill="#fff"/></g><defs><clipPath id="clip0_201:129"><path fill="#fff" d="M0 0h32v32H0z"/></clipPath></defs></svg>