<svg width="58" height="56" fill="none" xmlns="http://www.w3.org/2000/svg"><path d="M53.656 9.655H4.344C1.944 9.655 0 11.533 0 13.85v28.302c0 2.316 1.945 4.194 4.344 4.194h49.312c2.4 0 4.344-1.878 4.344-4.194V13.849c0-2.316-1.945-4.194-4.344-4.194z" fill="#41479B"/><path d="M57.94 13.156c-.343-1.986-2.13-3.5-4.284-3.5h-1.13L34 21.373V9.655H24v11.72L5.474 9.654h-1.13C2.189 9.655.402 11.17.06 13.156l15.834 10.016H0v9.656h15.894L.06 42.844c.342 1.986 2.13 3.5 4.284 3.5h1.13L24 34.627v11.719h10v-11.72l18.526 11.72h1.13c2.154 0 3.941-1.515 4.284-3.5L42.106 32.827H58v-9.656H42.106L57.94 13.156z" fill="#F5F5F5"/><path d="M32 9.655h-6v15.448H0v5.794h26v15.448h6V30.897h26v-5.794H32V9.655z" fill="#FF4B55"/><path d="M2.809 46.075l21.136-13.247H20.27L1.045 44.878c.47.53 1.075.945 1.764 1.197zM39.24 32.828h-3.674l20.471 12.83a4.278 4.278 0 001.392-1.43l-18.19-11.4zM.459 11.974l17.867 11.198H22L1.753 10.482a4.258 4.258 0 00-1.294 1.492zm37.214 11.198L56.935 11.1a4.356 4.356 0 00-1.778-1.188L34 23.172h3.673z" fill="#FF4B55"/></svg>